G04 #@! TF.FileFunction,Legend,Top*
%FSLAX46Y46*%
G04 Gerber Fmt 4.6, Leading zero omitted, Abs format (unit mm)*
G04 Created by KiCad (PCBNEW 4.0.7-e2-6376~58~ubuntu16.04.1) date Mon Sep 11 21:05:43 2017*
%MOMM*%
%LPD*%
G01*
G04 APERTURE LIST*
%ADD10C,0.100000*%
%ADD11C,0.300000*%
%ADD12C,0.010000*%
%ADD13C,0.150000*%
G04 APERTURE END LIST*
D10*
D11*
X122370002Y-135068571D02*
X123370002Y-136568571D01*
X123370002Y-135068571D02*
X122370002Y-136568571D01*
X123727144Y-135068571D02*
X124584287Y-135068571D01*
X124155716Y-136568571D02*
X124155716Y-135068571D01*
X125727144Y-135068571D02*
X125441430Y-135068571D01*
X125298573Y-135140000D01*
X125227144Y-135211429D01*
X125084287Y-135425714D01*
X125012858Y-135711429D01*
X125012858Y-136282857D01*
X125084287Y-136425714D01*
X125155715Y-136497143D01*
X125298573Y-136568571D01*
X125584287Y-136568571D01*
X125727144Y-136497143D01*
X125798573Y-136425714D01*
X125870001Y-136282857D01*
X125870001Y-135925714D01*
X125798573Y-135782857D01*
X125727144Y-135711429D01*
X125584287Y-135640000D01*
X125298573Y-135640000D01*
X125155715Y-135711429D01*
X125084287Y-135782857D01*
X125012858Y-135925714D01*
X126798572Y-135068571D02*
X126941429Y-135068571D01*
X127084286Y-135140000D01*
X127155715Y-135211429D01*
X127227144Y-135354286D01*
X127298572Y-135640000D01*
X127298572Y-135997143D01*
X127227144Y-136282857D01*
X127155715Y-136425714D01*
X127084286Y-136497143D01*
X126941429Y-136568571D01*
X126798572Y-136568571D01*
X126655715Y-136497143D01*
X126584286Y-136425714D01*
X126512858Y-136282857D01*
X126441429Y-135997143D01*
X126441429Y-135640000D01*
X126512858Y-135354286D01*
X126584286Y-135211429D01*
X126655715Y-135140000D01*
X126798572Y-135068571D01*
X129584286Y-135782857D02*
X129798572Y-135854286D01*
X129870000Y-135925714D01*
X129941429Y-136068571D01*
X129941429Y-136282857D01*
X129870000Y-136425714D01*
X129798572Y-136497143D01*
X129655714Y-136568571D01*
X129084286Y-136568571D01*
X129084286Y-135068571D01*
X129584286Y-135068571D01*
X129727143Y-135140000D01*
X129798572Y-135211429D01*
X129870000Y-135354286D01*
X129870000Y-135497143D01*
X129798572Y-135640000D01*
X129727143Y-135711429D01*
X129584286Y-135782857D01*
X129084286Y-135782857D01*
X130798572Y-136568571D02*
X130655714Y-136497143D01*
X130584286Y-136425714D01*
X130512857Y-136282857D01*
X130512857Y-135854286D01*
X130584286Y-135711429D01*
X130655714Y-135640000D01*
X130798572Y-135568571D01*
X131012857Y-135568571D01*
X131155714Y-135640000D01*
X131227143Y-135711429D01*
X131298572Y-135854286D01*
X131298572Y-136282857D01*
X131227143Y-136425714D01*
X131155714Y-136497143D01*
X131012857Y-136568571D01*
X130798572Y-136568571D01*
X132584286Y-136568571D02*
X132584286Y-135782857D01*
X132512857Y-135640000D01*
X132370000Y-135568571D01*
X132084286Y-135568571D01*
X131941429Y-135640000D01*
X132584286Y-136497143D02*
X132441429Y-136568571D01*
X132084286Y-136568571D01*
X131941429Y-136497143D01*
X131870000Y-136354286D01*
X131870000Y-136211429D01*
X131941429Y-136068571D01*
X132084286Y-135997143D01*
X132441429Y-135997143D01*
X132584286Y-135925714D01*
X133298572Y-136568571D02*
X133298572Y-135568571D01*
X133298572Y-135854286D02*
X133370000Y-135711429D01*
X133441429Y-135640000D01*
X133584286Y-135568571D01*
X133727143Y-135568571D01*
X134870000Y-136568571D02*
X134870000Y-135068571D01*
X134870000Y-136497143D02*
X134727143Y-136568571D01*
X134441429Y-136568571D01*
X134298571Y-136497143D01*
X134227143Y-136425714D01*
X134155714Y-136282857D01*
X134155714Y-135854286D01*
X134227143Y-135711429D01*
X134298571Y-135640000D01*
X134441429Y-135568571D01*
X134727143Y-135568571D01*
X134870000Y-135640000D01*
X136512857Y-135068571D02*
X137012857Y-136568571D01*
X137512857Y-135068571D01*
X138584285Y-136497143D02*
X138441428Y-136568571D01*
X138155714Y-136568571D01*
X138012857Y-136497143D01*
X137941428Y-136354286D01*
X137941428Y-135782857D01*
X138012857Y-135640000D01*
X138155714Y-135568571D01*
X138441428Y-135568571D01*
X138584285Y-135640000D01*
X138655714Y-135782857D01*
X138655714Y-135925714D01*
X137941428Y-136068571D01*
X139298571Y-136568571D02*
X139298571Y-135568571D01*
X139298571Y-135854286D02*
X139369999Y-135711429D01*
X139441428Y-135640000D01*
X139584285Y-135568571D01*
X139727142Y-135568571D01*
X140155713Y-136497143D02*
X140298570Y-136568571D01*
X140584285Y-136568571D01*
X140727142Y-136497143D01*
X140798570Y-136354286D01*
X140798570Y-136282857D01*
X140727142Y-136140000D01*
X140584285Y-136068571D01*
X140369999Y-136068571D01*
X140227142Y-135997143D01*
X140155713Y-135854286D01*
X140155713Y-135782857D01*
X140227142Y-135640000D01*
X140369999Y-135568571D01*
X140584285Y-135568571D01*
X140727142Y-135640000D01*
X141441428Y-136568571D02*
X141441428Y-135568571D01*
X141441428Y-135068571D02*
X141369999Y-135140000D01*
X141441428Y-135211429D01*
X141512856Y-135140000D01*
X141441428Y-135068571D01*
X141441428Y-135211429D01*
X142370000Y-136568571D02*
X142227142Y-136497143D01*
X142155714Y-136425714D01*
X142084285Y-136282857D01*
X142084285Y-135854286D01*
X142155714Y-135711429D01*
X142227142Y-135640000D01*
X142370000Y-135568571D01*
X142584285Y-135568571D01*
X142727142Y-135640000D01*
X142798571Y-135711429D01*
X142870000Y-135854286D01*
X142870000Y-136282857D01*
X142798571Y-136425714D01*
X142727142Y-136497143D01*
X142584285Y-136568571D01*
X142370000Y-136568571D01*
X143512857Y-135568571D02*
X143512857Y-136568571D01*
X143512857Y-135711429D02*
X143584285Y-135640000D01*
X143727143Y-135568571D01*
X143941428Y-135568571D01*
X144084285Y-135640000D01*
X144155714Y-135782857D01*
X144155714Y-136568571D01*
X146798571Y-136568571D02*
X145941428Y-136568571D01*
X146370000Y-136568571D02*
X146370000Y-135068571D01*
X146227143Y-135282857D01*
X146084285Y-135425714D01*
X145941428Y-135497143D01*
X124584286Y-132528571D02*
X124584286Y-133600000D01*
X124512858Y-133814286D01*
X124370001Y-133957143D01*
X124155715Y-134028571D01*
X124012858Y-134028571D01*
X125941429Y-133028571D02*
X125941429Y-134028571D01*
X125298572Y-133028571D02*
X125298572Y-133814286D01*
X125370000Y-133957143D01*
X125512858Y-134028571D01*
X125727143Y-134028571D01*
X125870000Y-133957143D01*
X125941429Y-133885714D01*
X126584286Y-133957143D02*
X126727143Y-134028571D01*
X127012858Y-134028571D01*
X127155715Y-133957143D01*
X127227143Y-133814286D01*
X127227143Y-133742857D01*
X127155715Y-133600000D01*
X127012858Y-133528571D01*
X126798572Y-133528571D01*
X126655715Y-133457143D01*
X126584286Y-133314286D01*
X126584286Y-133242857D01*
X126655715Y-133100000D01*
X126798572Y-133028571D01*
X127012858Y-133028571D01*
X127155715Y-133100000D01*
X127655715Y-133028571D02*
X128227144Y-133028571D01*
X127870001Y-132528571D02*
X127870001Y-133814286D01*
X127941429Y-133957143D01*
X128084287Y-134028571D01*
X128227144Y-134028571D01*
X128727144Y-134028571D02*
X128727144Y-133028571D01*
X128727144Y-132528571D02*
X128655715Y-132600000D01*
X128727144Y-132671429D01*
X128798572Y-132600000D01*
X128727144Y-132528571D01*
X128727144Y-132671429D01*
X129441430Y-133028571D02*
X129441430Y-134028571D01*
X129441430Y-133171429D02*
X129512858Y-133100000D01*
X129655716Y-133028571D01*
X129870001Y-133028571D01*
X130012858Y-133100000D01*
X130084287Y-133242857D01*
X130084287Y-134028571D01*
X131941430Y-133242857D02*
X132441430Y-133242857D01*
X132655716Y-134028571D02*
X131941430Y-134028571D01*
X131941430Y-132528571D01*
X132655716Y-132528571D01*
X133941430Y-134028571D02*
X133941430Y-133242857D01*
X133870001Y-133100000D01*
X133727144Y-133028571D01*
X133441430Y-133028571D01*
X133298573Y-133100000D01*
X133941430Y-133957143D02*
X133798573Y-134028571D01*
X133441430Y-134028571D01*
X133298573Y-133957143D01*
X133227144Y-133814286D01*
X133227144Y-133671429D01*
X133298573Y-133528571D01*
X133441430Y-133457143D01*
X133798573Y-133457143D01*
X133941430Y-133385714D01*
X134584287Y-133957143D02*
X134727144Y-134028571D01*
X135012859Y-134028571D01*
X135155716Y-133957143D01*
X135227144Y-133814286D01*
X135227144Y-133742857D01*
X135155716Y-133600000D01*
X135012859Y-133528571D01*
X134798573Y-133528571D01*
X134655716Y-133457143D01*
X134584287Y-133314286D01*
X134584287Y-133242857D01*
X134655716Y-133100000D01*
X134798573Y-133028571D01*
X135012859Y-133028571D01*
X135155716Y-133100000D01*
X135655716Y-133028571D02*
X136227145Y-133028571D01*
X135870002Y-132528571D02*
X135870002Y-133814286D01*
X135941430Y-133957143D01*
X136084288Y-134028571D01*
X136227145Y-134028571D01*
X137298573Y-133957143D02*
X137155716Y-134028571D01*
X136870002Y-134028571D01*
X136727145Y-133957143D01*
X136655716Y-133814286D01*
X136655716Y-133242857D01*
X136727145Y-133100000D01*
X136870002Y-133028571D01*
X137155716Y-133028571D01*
X137298573Y-133100000D01*
X137370002Y-133242857D01*
X137370002Y-133385714D01*
X136655716Y-133528571D01*
X138012859Y-134028571D02*
X138012859Y-133028571D01*
X138012859Y-133314286D02*
X138084287Y-133171429D01*
X138155716Y-133100000D01*
X138298573Y-133028571D01*
X138441430Y-133028571D01*
X140012858Y-132671429D02*
X140084287Y-132600000D01*
X140227144Y-132528571D01*
X140584287Y-132528571D01*
X140727144Y-132600000D01*
X140798573Y-132671429D01*
X140870001Y-132814286D01*
X140870001Y-132957143D01*
X140798573Y-133171429D01*
X139941430Y-134028571D01*
X140870001Y-134028571D01*
X141798572Y-132528571D02*
X141941429Y-132528571D01*
X142084286Y-132600000D01*
X142155715Y-132671429D01*
X142227144Y-132814286D01*
X142298572Y-133100000D01*
X142298572Y-133457143D01*
X142227144Y-133742857D01*
X142155715Y-133885714D01*
X142084286Y-133957143D01*
X141941429Y-134028571D01*
X141798572Y-134028571D01*
X141655715Y-133957143D01*
X141584286Y-133885714D01*
X141512858Y-133742857D01*
X141441429Y-133457143D01*
X141441429Y-133100000D01*
X141512858Y-132814286D01*
X141584286Y-132671429D01*
X141655715Y-132600000D01*
X141798572Y-132528571D01*
X143727143Y-134028571D02*
X142870000Y-134028571D01*
X143298572Y-134028571D02*
X143298572Y-132528571D01*
X143155715Y-132742857D01*
X143012857Y-132885714D01*
X142870000Y-132957143D01*
X144227143Y-132528571D02*
X145227143Y-132528571D01*
X144584286Y-134028571D01*
X114840000Y-56328571D02*
X115340000Y-57828571D01*
X115840000Y-56328571D01*
X117197143Y-57685714D02*
X117125714Y-57757143D01*
X116911428Y-57828571D01*
X116768571Y-57828571D01*
X116554286Y-57757143D01*
X116411428Y-57614286D01*
X116340000Y-57471429D01*
X116268571Y-57185714D01*
X116268571Y-56971429D01*
X116340000Y-56685714D01*
X116411428Y-56542857D01*
X116554286Y-56400000D01*
X116768571Y-56328571D01*
X116911428Y-56328571D01*
X117125714Y-56400000D01*
X117197143Y-56471429D01*
X118697143Y-57685714D02*
X118625714Y-57757143D01*
X118411428Y-57828571D01*
X118268571Y-57828571D01*
X118054286Y-57757143D01*
X117911428Y-57614286D01*
X117840000Y-57471429D01*
X117768571Y-57185714D01*
X117768571Y-56971429D01*
X117840000Y-56685714D01*
X117911428Y-56542857D01*
X118054286Y-56400000D01*
X118268571Y-56328571D01*
X118411428Y-56328571D01*
X118625714Y-56400000D01*
X118697143Y-56471429D01*
X149130000Y-56328571D02*
X149630000Y-57828571D01*
X150130000Y-56328571D01*
X151487143Y-57685714D02*
X151415714Y-57757143D01*
X151201428Y-57828571D01*
X151058571Y-57828571D01*
X150844286Y-57757143D01*
X150701428Y-57614286D01*
X150630000Y-57471429D01*
X150558571Y-57185714D01*
X150558571Y-56971429D01*
X150630000Y-56685714D01*
X150701428Y-56542857D01*
X150844286Y-56400000D01*
X151058571Y-56328571D01*
X151201428Y-56328571D01*
X151415714Y-56400000D01*
X151487143Y-56471429D01*
X152987143Y-57685714D02*
X152915714Y-57757143D01*
X152701428Y-57828571D01*
X152558571Y-57828571D01*
X152344286Y-57757143D01*
X152201428Y-57614286D01*
X152130000Y-57471429D01*
X152058571Y-57185714D01*
X152058571Y-56971429D01*
X152130000Y-56685714D01*
X152201428Y-56542857D01*
X152344286Y-56400000D01*
X152558571Y-56328571D01*
X152701428Y-56328571D01*
X152915714Y-56400000D01*
X152987143Y-56471429D01*
X133477143Y-56400000D02*
X133334286Y-56328571D01*
X133120000Y-56328571D01*
X132905715Y-56400000D01*
X132762857Y-56542857D01*
X132691429Y-56685714D01*
X132620000Y-56971429D01*
X132620000Y-57185714D01*
X132691429Y-57471429D01*
X132762857Y-57614286D01*
X132905715Y-57757143D01*
X133120000Y-57828571D01*
X133262857Y-57828571D01*
X133477143Y-57757143D01*
X133548572Y-57685714D01*
X133548572Y-57185714D01*
X133262857Y-57185714D01*
X134191429Y-57828571D02*
X134191429Y-56328571D01*
X135048572Y-57828571D01*
X135048572Y-56328571D01*
X135762858Y-57828571D02*
X135762858Y-56328571D01*
X136120001Y-56328571D01*
X136334286Y-56400000D01*
X136477144Y-56542857D01*
X136548572Y-56685714D01*
X136620001Y-56971429D01*
X136620001Y-57185714D01*
X136548572Y-57471429D01*
X136477144Y-57614286D01*
X136334286Y-57757143D01*
X136120001Y-57828571D01*
X135762858Y-57828571D01*
D10*
X150075000Y-66230000D02*
X154775000Y-66230000D01*
X154775000Y-66230000D02*
X154775000Y-64630000D01*
X150375000Y-58230000D02*
X154575000Y-58230000D01*
X154575000Y-58230000D02*
X154675000Y-58230000D01*
X154675000Y-58230000D02*
X154775000Y-58230000D01*
X154775000Y-58230000D02*
X154775000Y-62230000D01*
X140475000Y-66230000D02*
X138475000Y-63530000D01*
X140475000Y-58230000D02*
X138475000Y-60930000D01*
X138475000Y-62230000D02*
X138475000Y-63480000D01*
X138475000Y-62230000D02*
X138475000Y-60980000D01*
X142875000Y-66230000D02*
X140475000Y-66230000D01*
X145875000Y-66230000D02*
X142875000Y-66230000D01*
X142875000Y-58230000D02*
X140475000Y-58230000D01*
X145975000Y-58230000D02*
X142875000Y-58230000D01*
X138475000Y-62130000D02*
X138475000Y-62430000D01*
X154775000Y-62230000D02*
X154775000Y-64630000D01*
X150375000Y-58230000D02*
X145975000Y-58230000D01*
X150075000Y-66230000D02*
X145875000Y-66230000D01*
X150075000Y-78930000D02*
X154775000Y-78930000D01*
X154775000Y-78930000D02*
X154775000Y-77330000D01*
X150375000Y-70930000D02*
X154575000Y-70930000D01*
X154575000Y-70930000D02*
X154675000Y-70930000D01*
X154675000Y-70930000D02*
X154775000Y-70930000D01*
X154775000Y-70930000D02*
X154775000Y-74930000D01*
X140475000Y-78930000D02*
X138475000Y-76230000D01*
X140475000Y-70930000D02*
X138475000Y-73630000D01*
X138475000Y-74930000D02*
X138475000Y-76180000D01*
X138475000Y-74930000D02*
X138475000Y-73680000D01*
X142875000Y-78930000D02*
X140475000Y-78930000D01*
X145875000Y-78930000D02*
X142875000Y-78930000D01*
X142875000Y-70930000D02*
X140475000Y-70930000D01*
X145975000Y-70930000D02*
X142875000Y-70930000D01*
X138475000Y-74830000D02*
X138475000Y-75130000D01*
X154775000Y-74930000D02*
X154775000Y-77330000D01*
X150375000Y-70930000D02*
X145975000Y-70930000D01*
X150075000Y-78930000D02*
X145875000Y-78930000D01*
X150075000Y-91630000D02*
X154775000Y-91630000D01*
X154775000Y-91630000D02*
X154775000Y-90030000D01*
X150375000Y-83630000D02*
X154575000Y-83630000D01*
X154575000Y-83630000D02*
X154675000Y-83630000D01*
X154675000Y-83630000D02*
X154775000Y-83630000D01*
X154775000Y-83630000D02*
X154775000Y-87630000D01*
X140475000Y-91630000D02*
X138475000Y-88930000D01*
X140475000Y-83630000D02*
X138475000Y-86330000D01*
X138475000Y-87630000D02*
X138475000Y-88880000D01*
X138475000Y-87630000D02*
X138475000Y-86380000D01*
X142875000Y-91630000D02*
X140475000Y-91630000D01*
X145875000Y-91630000D02*
X142875000Y-91630000D01*
X142875000Y-83630000D02*
X140475000Y-83630000D01*
X145975000Y-83630000D02*
X142875000Y-83630000D01*
X138475000Y-87530000D02*
X138475000Y-87830000D01*
X154775000Y-87630000D02*
X154775000Y-90030000D01*
X150375000Y-83630000D02*
X145975000Y-83630000D01*
X150075000Y-91630000D02*
X145875000Y-91630000D01*
X150075000Y-104330000D02*
X154775000Y-104330000D01*
X154775000Y-104330000D02*
X154775000Y-102730000D01*
X150375000Y-96330000D02*
X154575000Y-96330000D01*
X154575000Y-96330000D02*
X154675000Y-96330000D01*
X154675000Y-96330000D02*
X154775000Y-96330000D01*
X154775000Y-96330000D02*
X154775000Y-100330000D01*
X140475000Y-104330000D02*
X138475000Y-101630000D01*
X140475000Y-96330000D02*
X138475000Y-99030000D01*
X138475000Y-100330000D02*
X138475000Y-101580000D01*
X138475000Y-100330000D02*
X138475000Y-99080000D01*
X142875000Y-104330000D02*
X140475000Y-104330000D01*
X145875000Y-104330000D02*
X142875000Y-104330000D01*
X142875000Y-96330000D02*
X140475000Y-96330000D01*
X145975000Y-96330000D02*
X142875000Y-96330000D01*
X138475000Y-100230000D02*
X138475000Y-100530000D01*
X154775000Y-100330000D02*
X154775000Y-102730000D01*
X150375000Y-96330000D02*
X145975000Y-96330000D01*
X150075000Y-104330000D02*
X145875000Y-104330000D01*
X150075000Y-117030000D02*
X154775000Y-117030000D01*
X154775000Y-117030000D02*
X154775000Y-115430000D01*
X150375000Y-109030000D02*
X154575000Y-109030000D01*
X154575000Y-109030000D02*
X154675000Y-109030000D01*
X154675000Y-109030000D02*
X154775000Y-109030000D01*
X154775000Y-109030000D02*
X154775000Y-113030000D01*
X140475000Y-117030000D02*
X138475000Y-114330000D01*
X140475000Y-109030000D02*
X138475000Y-111730000D01*
X138475000Y-113030000D02*
X138475000Y-114280000D01*
X138475000Y-113030000D02*
X138475000Y-111780000D01*
X142875000Y-117030000D02*
X140475000Y-117030000D01*
X145875000Y-117030000D02*
X142875000Y-117030000D01*
X142875000Y-109030000D02*
X140475000Y-109030000D01*
X145975000Y-109030000D02*
X142875000Y-109030000D01*
X138475000Y-112930000D02*
X138475000Y-113230000D01*
X154775000Y-113030000D02*
X154775000Y-115430000D01*
X150375000Y-109030000D02*
X145975000Y-109030000D01*
X150075000Y-117030000D02*
X145875000Y-117030000D01*
X150075000Y-129730000D02*
X154775000Y-129730000D01*
X154775000Y-129730000D02*
X154775000Y-128130000D01*
X150375000Y-121730000D02*
X154575000Y-121730000D01*
X154575000Y-121730000D02*
X154675000Y-121730000D01*
X154675000Y-121730000D02*
X154775000Y-121730000D01*
X154775000Y-121730000D02*
X154775000Y-125730000D01*
X140475000Y-129730000D02*
X138475000Y-127030000D01*
X140475000Y-121730000D02*
X138475000Y-124430000D01*
X138475000Y-125730000D02*
X138475000Y-126980000D01*
X138475000Y-125730000D02*
X138475000Y-124480000D01*
X142875000Y-129730000D02*
X140475000Y-129730000D01*
X145875000Y-129730000D02*
X142875000Y-129730000D01*
X142875000Y-121730000D02*
X140475000Y-121730000D01*
X145975000Y-121730000D02*
X142875000Y-121730000D01*
X138475000Y-125630000D02*
X138475000Y-125930000D01*
X154775000Y-125730000D02*
X154775000Y-128130000D01*
X150375000Y-121730000D02*
X145975000Y-121730000D01*
X150075000Y-129730000D02*
X145875000Y-129730000D01*
X119165000Y-58230000D02*
X114465000Y-58230000D01*
X114465000Y-58230000D02*
X114465000Y-59830000D01*
X118865000Y-66230000D02*
X114665000Y-66230000D01*
X114665000Y-66230000D02*
X114565000Y-66230000D01*
X114565000Y-66230000D02*
X114465000Y-66230000D01*
X114465000Y-66230000D02*
X114465000Y-62230000D01*
X128765000Y-58230000D02*
X130765000Y-60930000D01*
X128765000Y-66230000D02*
X130765000Y-63530000D01*
X130765000Y-62230000D02*
X130765000Y-60980000D01*
X130765000Y-62230000D02*
X130765000Y-63480000D01*
X126365000Y-58230000D02*
X128765000Y-58230000D01*
X123365000Y-58230000D02*
X126365000Y-58230000D01*
X126365000Y-66230000D02*
X128765000Y-66230000D01*
X123265000Y-66230000D02*
X126365000Y-66230000D01*
X130765000Y-62330000D02*
X130765000Y-62030000D01*
X114465000Y-62230000D02*
X114465000Y-59830000D01*
X118865000Y-66230000D02*
X123265000Y-66230000D01*
X119165000Y-58230000D02*
X123365000Y-58230000D01*
X119165000Y-70930000D02*
X114465000Y-70930000D01*
X114465000Y-70930000D02*
X114465000Y-72530000D01*
X118865000Y-78930000D02*
X114665000Y-78930000D01*
X114665000Y-78930000D02*
X114565000Y-78930000D01*
X114565000Y-78930000D02*
X114465000Y-78930000D01*
X114465000Y-78930000D02*
X114465000Y-74930000D01*
X128765000Y-70930000D02*
X130765000Y-73630000D01*
X128765000Y-78930000D02*
X130765000Y-76230000D01*
X130765000Y-74930000D02*
X130765000Y-73680000D01*
X130765000Y-74930000D02*
X130765000Y-76180000D01*
X126365000Y-70930000D02*
X128765000Y-70930000D01*
X123365000Y-70930000D02*
X126365000Y-70930000D01*
X126365000Y-78930000D02*
X128765000Y-78930000D01*
X123265000Y-78930000D02*
X126365000Y-78930000D01*
X130765000Y-75030000D02*
X130765000Y-74730000D01*
X114465000Y-74930000D02*
X114465000Y-72530000D01*
X118865000Y-78930000D02*
X123265000Y-78930000D01*
X119165000Y-70930000D02*
X123365000Y-70930000D01*
X119165000Y-83630000D02*
X114465000Y-83630000D01*
X114465000Y-83630000D02*
X114465000Y-85230000D01*
X118865000Y-91630000D02*
X114665000Y-91630000D01*
X114665000Y-91630000D02*
X114565000Y-91630000D01*
X114565000Y-91630000D02*
X114465000Y-91630000D01*
X114465000Y-91630000D02*
X114465000Y-87630000D01*
X128765000Y-83630000D02*
X130765000Y-86330000D01*
X128765000Y-91630000D02*
X130765000Y-88930000D01*
X130765000Y-87630000D02*
X130765000Y-86380000D01*
X130765000Y-87630000D02*
X130765000Y-88880000D01*
X126365000Y-83630000D02*
X128765000Y-83630000D01*
X123365000Y-83630000D02*
X126365000Y-83630000D01*
X126365000Y-91630000D02*
X128765000Y-91630000D01*
X123265000Y-91630000D02*
X126365000Y-91630000D01*
X130765000Y-87730000D02*
X130765000Y-87430000D01*
X114465000Y-87630000D02*
X114465000Y-85230000D01*
X118865000Y-91630000D02*
X123265000Y-91630000D01*
X119165000Y-83630000D02*
X123365000Y-83630000D01*
X119165000Y-96330000D02*
X114465000Y-96330000D01*
X114465000Y-96330000D02*
X114465000Y-97930000D01*
X118865000Y-104330000D02*
X114665000Y-104330000D01*
X114665000Y-104330000D02*
X114565000Y-104330000D01*
X114565000Y-104330000D02*
X114465000Y-104330000D01*
X114465000Y-104330000D02*
X114465000Y-100330000D01*
X128765000Y-96330000D02*
X130765000Y-99030000D01*
X128765000Y-104330000D02*
X130765000Y-101630000D01*
X130765000Y-100330000D02*
X130765000Y-99080000D01*
X130765000Y-100330000D02*
X130765000Y-101580000D01*
X126365000Y-96330000D02*
X128765000Y-96330000D01*
X123365000Y-96330000D02*
X126365000Y-96330000D01*
X126365000Y-104330000D02*
X128765000Y-104330000D01*
X123265000Y-104330000D02*
X126365000Y-104330000D01*
X130765000Y-100430000D02*
X130765000Y-100130000D01*
X114465000Y-100330000D02*
X114465000Y-97930000D01*
X118865000Y-104330000D02*
X123265000Y-104330000D01*
X119165000Y-96330000D02*
X123365000Y-96330000D01*
X119165000Y-109030000D02*
X114465000Y-109030000D01*
X114465000Y-109030000D02*
X114465000Y-110630000D01*
X118865000Y-117030000D02*
X114665000Y-117030000D01*
X114665000Y-117030000D02*
X114565000Y-117030000D01*
X114565000Y-117030000D02*
X114465000Y-117030000D01*
X114465000Y-117030000D02*
X114465000Y-113030000D01*
X128765000Y-109030000D02*
X130765000Y-111730000D01*
X128765000Y-117030000D02*
X130765000Y-114330000D01*
X130765000Y-113030000D02*
X130765000Y-111780000D01*
X130765000Y-113030000D02*
X130765000Y-114280000D01*
X126365000Y-109030000D02*
X128765000Y-109030000D01*
X123365000Y-109030000D02*
X126365000Y-109030000D01*
X126365000Y-117030000D02*
X128765000Y-117030000D01*
X123265000Y-117030000D02*
X126365000Y-117030000D01*
X130765000Y-113130000D02*
X130765000Y-112830000D01*
X114465000Y-113030000D02*
X114465000Y-110630000D01*
X118865000Y-117030000D02*
X123265000Y-117030000D01*
X119165000Y-109030000D02*
X123365000Y-109030000D01*
X119165000Y-121730000D02*
X114465000Y-121730000D01*
X114465000Y-121730000D02*
X114465000Y-123330000D01*
X118865000Y-129730000D02*
X114665000Y-129730000D01*
X114665000Y-129730000D02*
X114565000Y-129730000D01*
X114565000Y-129730000D02*
X114465000Y-129730000D01*
X114465000Y-129730000D02*
X114465000Y-125730000D01*
X128765000Y-121730000D02*
X130765000Y-124430000D01*
X128765000Y-129730000D02*
X130765000Y-127030000D01*
X130765000Y-125730000D02*
X130765000Y-124480000D01*
X130765000Y-125730000D02*
X130765000Y-126980000D01*
X126365000Y-121730000D02*
X128765000Y-121730000D01*
X123365000Y-121730000D02*
X126365000Y-121730000D01*
X126365000Y-129730000D02*
X128765000Y-129730000D01*
X123265000Y-129730000D02*
X126365000Y-129730000D01*
X130765000Y-125830000D02*
X130765000Y-125530000D01*
X114465000Y-125730000D02*
X114465000Y-123330000D01*
X118865000Y-129730000D02*
X123265000Y-129730000D01*
X119165000Y-121730000D02*
X123365000Y-121730000D01*
D12*
G36*
X150491241Y-134819184D02*
X150517753Y-134832282D01*
X150550447Y-134855106D01*
X150574275Y-134879996D01*
X150590594Y-134911249D01*
X150600760Y-134953166D01*
X150606128Y-135010044D01*
X150608056Y-135086184D01*
X150608169Y-135118917D01*
X150607839Y-135190656D01*
X150606473Y-135241927D01*
X150603500Y-135277404D01*
X150598351Y-135301763D01*
X150590457Y-135319680D01*
X150582243Y-135331902D01*
X150529813Y-135383905D01*
X150468070Y-135415184D01*
X150401464Y-135424592D01*
X150334442Y-135410980D01*
X150313208Y-135401354D01*
X150262376Y-135374859D01*
X150262376Y-135790052D01*
X150299475Y-135770868D01*
X150348357Y-135756025D01*
X150408439Y-135752222D01*
X150468436Y-135759243D01*
X150513744Y-135775013D01*
X150551325Y-135805047D01*
X150583436Y-135848024D01*
X150585850Y-135852436D01*
X150596033Y-135873221D01*
X150603470Y-135894170D01*
X150608589Y-135919548D01*
X150611819Y-135953618D01*
X150613587Y-136000641D01*
X150614323Y-136064882D01*
X150614456Y-136137176D01*
X150614456Y-136367822D01*
X150476139Y-136367822D01*
X150476139Y-135942533D01*
X150437451Y-135909979D01*
X150397262Y-135883940D01*
X150359203Y-135879205D01*
X150320934Y-135891389D01*
X150300538Y-135903320D01*
X150285358Y-135920313D01*
X150274562Y-135945995D01*
X150267317Y-135983991D01*
X150262792Y-136037926D01*
X150260156Y-136111425D01*
X150259228Y-136160347D01*
X150256089Y-136361535D01*
X150190074Y-136365336D01*
X150124060Y-136369136D01*
X150124060Y-135120650D01*
X150262376Y-135120650D01*
X150265903Y-135190254D01*
X150277785Y-135238569D01*
X150299980Y-135268631D01*
X150334441Y-135283471D01*
X150369258Y-135286436D01*
X150408671Y-135283028D01*
X150434829Y-135269617D01*
X150451186Y-135251896D01*
X150464063Y-135232835D01*
X150471728Y-135211601D01*
X150475139Y-135181849D01*
X150475251Y-135137236D01*
X150474103Y-135099880D01*
X150471468Y-135043604D01*
X150467544Y-135006658D01*
X150460937Y-134983223D01*
X150450251Y-134967480D01*
X150440167Y-134958380D01*
X150398030Y-134938537D01*
X150348160Y-134935332D01*
X150319524Y-134942168D01*
X150291172Y-134966464D01*
X150272391Y-135013728D01*
X150263288Y-135083624D01*
X150262376Y-135120650D01*
X150124060Y-135120650D01*
X150124060Y-134808614D01*
X150193218Y-134808614D01*
X150234740Y-134810256D01*
X150256162Y-134816087D01*
X150262374Y-134827461D01*
X150262376Y-134827798D01*
X150265258Y-134838938D01*
X150277970Y-134837673D01*
X150303243Y-134825433D01*
X150362131Y-134806707D01*
X150428385Y-134804739D01*
X150491241Y-134819184D01*
X150491241Y-134819184D01*
G37*
X150491241Y-134819184D02*
X150517753Y-134832282D01*
X150550447Y-134855106D01*
X150574275Y-134879996D01*
X150590594Y-134911249D01*
X150600760Y-134953166D01*
X150606128Y-135010044D01*
X150608056Y-135086184D01*
X150608169Y-135118917D01*
X150607839Y-135190656D01*
X150606473Y-135241927D01*
X150603500Y-135277404D01*
X150598351Y-135301763D01*
X150590457Y-135319680D01*
X150582243Y-135331902D01*
X150529813Y-135383905D01*
X150468070Y-135415184D01*
X150401464Y-135424592D01*
X150334442Y-135410980D01*
X150313208Y-135401354D01*
X150262376Y-135374859D01*
X150262376Y-135790052D01*
X150299475Y-135770868D01*
X150348357Y-135756025D01*
X150408439Y-135752222D01*
X150468436Y-135759243D01*
X150513744Y-135775013D01*
X150551325Y-135805047D01*
X150583436Y-135848024D01*
X150585850Y-135852436D01*
X150596033Y-135873221D01*
X150603470Y-135894170D01*
X150608589Y-135919548D01*
X150611819Y-135953618D01*
X150613587Y-136000641D01*
X150614323Y-136064882D01*
X150614456Y-136137176D01*
X150614456Y-136367822D01*
X150476139Y-136367822D01*
X150476139Y-135942533D01*
X150437451Y-135909979D01*
X150397262Y-135883940D01*
X150359203Y-135879205D01*
X150320934Y-135891389D01*
X150300538Y-135903320D01*
X150285358Y-135920313D01*
X150274562Y-135945995D01*
X150267317Y-135983991D01*
X150262792Y-136037926D01*
X150260156Y-136111425D01*
X150259228Y-136160347D01*
X150256089Y-136361535D01*
X150190074Y-136365336D01*
X150124060Y-136369136D01*
X150124060Y-135120650D01*
X150262376Y-135120650D01*
X150265903Y-135190254D01*
X150277785Y-135238569D01*
X150299980Y-135268631D01*
X150334441Y-135283471D01*
X150369258Y-135286436D01*
X150408671Y-135283028D01*
X150434829Y-135269617D01*
X150451186Y-135251896D01*
X150464063Y-135232835D01*
X150471728Y-135211601D01*
X150475139Y-135181849D01*
X150475251Y-135137236D01*
X150474103Y-135099880D01*
X150471468Y-135043604D01*
X150467544Y-135006658D01*
X150460937Y-134983223D01*
X150450251Y-134967480D01*
X150440167Y-134958380D01*
X150398030Y-134938537D01*
X150348160Y-134935332D01*
X150319524Y-134942168D01*
X150291172Y-134966464D01*
X150272391Y-135013728D01*
X150263288Y-135083624D01*
X150262376Y-135120650D01*
X150124060Y-135120650D01*
X150124060Y-134808614D01*
X150193218Y-134808614D01*
X150234740Y-134810256D01*
X150256162Y-134816087D01*
X150262374Y-134827461D01*
X150262376Y-134827798D01*
X150265258Y-134838938D01*
X150277970Y-134837673D01*
X150303243Y-134825433D01*
X150362131Y-134806707D01*
X150428385Y-134804739D01*
X150491241Y-134819184D01*
G36*
X151015790Y-135756555D02*
X151074945Y-135772339D01*
X151119977Y-135800948D01*
X151151754Y-135838419D01*
X151161634Y-135854411D01*
X151168927Y-135871163D01*
X151174026Y-135892592D01*
X151177321Y-135922616D01*
X151179203Y-135965154D01*
X151180063Y-136024122D01*
X151180293Y-136103440D01*
X151180297Y-136124484D01*
X151180297Y-136367822D01*
X151119941Y-136367822D01*
X151081443Y-136365126D01*
X151052977Y-136358295D01*
X151045845Y-136354083D01*
X151026348Y-136346813D01*
X151006434Y-136354083D01*
X150973647Y-136363160D01*
X150926022Y-136366813D01*
X150873236Y-136365228D01*
X150824964Y-136358589D01*
X150796782Y-136350072D01*
X150742247Y-136315063D01*
X150708165Y-136266479D01*
X150692843Y-136201882D01*
X150692701Y-136200223D01*
X150694045Y-136171566D01*
X150815644Y-136171566D01*
X150826274Y-136204161D01*
X150843590Y-136222505D01*
X150878348Y-136236379D01*
X150924227Y-136241917D01*
X150971012Y-136239191D01*
X151008486Y-136228274D01*
X151018985Y-136221269D01*
X151037332Y-136188904D01*
X151041980Y-136152111D01*
X151041980Y-136103763D01*
X150972418Y-136103763D01*
X150906333Y-136108850D01*
X150856236Y-136123263D01*
X150825071Y-136145729D01*
X150815644Y-136171566D01*
X150694045Y-136171566D01*
X150696013Y-136129647D01*
X150719290Y-136073845D01*
X150763052Y-136031647D01*
X150769101Y-136027808D01*
X150795093Y-136015309D01*
X150827265Y-136007740D01*
X150872240Y-136004061D01*
X150925669Y-136003216D01*
X151041980Y-136003169D01*
X151041980Y-135954411D01*
X151037047Y-135916581D01*
X151024457Y-135891236D01*
X151022983Y-135889887D01*
X150994966Y-135878800D01*
X150952674Y-135874503D01*
X150905936Y-135876615D01*
X150864582Y-135884756D01*
X150840043Y-135896965D01*
X150826747Y-135906746D01*
X150812706Y-135908613D01*
X150793329Y-135900600D01*
X150764024Y-135880739D01*
X150720197Y-135847063D01*
X150716175Y-135843909D01*
X150718236Y-135832236D01*
X150735432Y-135812822D01*
X150761567Y-135791248D01*
X150790448Y-135773096D01*
X150799522Y-135768809D01*
X150832620Y-135760256D01*
X150881120Y-135754155D01*
X150935305Y-135751708D01*
X150937839Y-135751703D01*
X151015790Y-135756555D01*
X151015790Y-135756555D01*
G37*
X151015790Y-135756555D02*
X151074945Y-135772339D01*
X151119977Y-135800948D01*
X151151754Y-135838419D01*
X151161634Y-135854411D01*
X151168927Y-135871163D01*
X151174026Y-135892592D01*
X151177321Y-135922616D01*
X151179203Y-135965154D01*
X151180063Y-136024122D01*
X151180293Y-136103440D01*
X151180297Y-136124484D01*
X151180297Y-136367822D01*
X151119941Y-136367822D01*
X151081443Y-136365126D01*
X151052977Y-136358295D01*
X151045845Y-136354083D01*
X151026348Y-136346813D01*
X151006434Y-136354083D01*
X150973647Y-136363160D01*
X150926022Y-136366813D01*
X150873236Y-136365228D01*
X150824964Y-136358589D01*
X150796782Y-136350072D01*
X150742247Y-136315063D01*
X150708165Y-136266479D01*
X150692843Y-136201882D01*
X150692701Y-136200223D01*
X150694045Y-136171566D01*
X150815644Y-136171566D01*
X150826274Y-136204161D01*
X150843590Y-136222505D01*
X150878348Y-136236379D01*
X150924227Y-136241917D01*
X150971012Y-136239191D01*
X151008486Y-136228274D01*
X151018985Y-136221269D01*
X151037332Y-136188904D01*
X151041980Y-136152111D01*
X151041980Y-136103763D01*
X150972418Y-136103763D01*
X150906333Y-136108850D01*
X150856236Y-136123263D01*
X150825071Y-136145729D01*
X150815644Y-136171566D01*
X150694045Y-136171566D01*
X150696013Y-136129647D01*
X150719290Y-136073845D01*
X150763052Y-136031647D01*
X150769101Y-136027808D01*
X150795093Y-136015309D01*
X150827265Y-136007740D01*
X150872240Y-136004061D01*
X150925669Y-136003216D01*
X151041980Y-136003169D01*
X151041980Y-135954411D01*
X151037047Y-135916581D01*
X151024457Y-135891236D01*
X151022983Y-135889887D01*
X150994966Y-135878800D01*
X150952674Y-135874503D01*
X150905936Y-135876615D01*
X150864582Y-135884756D01*
X150840043Y-135896965D01*
X150826747Y-135906746D01*
X150812706Y-135908613D01*
X150793329Y-135900600D01*
X150764024Y-135880739D01*
X150720197Y-135847063D01*
X150716175Y-135843909D01*
X150718236Y-135832236D01*
X150735432Y-135812822D01*
X150761567Y-135791248D01*
X150790448Y-135773096D01*
X150799522Y-135768809D01*
X150832620Y-135760256D01*
X150881120Y-135754155D01*
X150935305Y-135751708D01*
X150937839Y-135751703D01*
X151015790Y-135756555D01*
G36*
X151406644Y-135753020D02*
X151425461Y-135758660D01*
X151431527Y-135771053D01*
X151431782Y-135776647D01*
X151432871Y-135792230D01*
X151440368Y-135794676D01*
X151460619Y-135783993D01*
X151472649Y-135776694D01*
X151510600Y-135761063D01*
X151555928Y-135753334D01*
X151603456Y-135752740D01*
X151648005Y-135758513D01*
X151684398Y-135769884D01*
X151707457Y-135786088D01*
X151712004Y-135806355D01*
X151709709Y-135811843D01*
X151692980Y-135834626D01*
X151667037Y-135862647D01*
X151662345Y-135867177D01*
X151637617Y-135888005D01*
X151616282Y-135894735D01*
X151586445Y-135890038D01*
X151574492Y-135886917D01*
X151537295Y-135879421D01*
X151511141Y-135882792D01*
X151489054Y-135894681D01*
X151468822Y-135910635D01*
X151453921Y-135930700D01*
X151443566Y-135958702D01*
X151436971Y-135998467D01*
X151433351Y-136053823D01*
X151431922Y-136128594D01*
X151431782Y-136173740D01*
X151431782Y-136367822D01*
X151306040Y-136367822D01*
X151306040Y-135751683D01*
X151368911Y-135751683D01*
X151406644Y-135753020D01*
X151406644Y-135753020D01*
G37*
X151406644Y-135753020D02*
X151425461Y-135758660D01*
X151431527Y-135771053D01*
X151431782Y-135776647D01*
X151432871Y-135792230D01*
X151440368Y-135794676D01*
X151460619Y-135783993D01*
X151472649Y-135776694D01*
X151510600Y-135761063D01*
X151555928Y-135753334D01*
X151603456Y-135752740D01*
X151648005Y-135758513D01*
X151684398Y-135769884D01*
X151707457Y-135786088D01*
X151712004Y-135806355D01*
X151709709Y-135811843D01*
X151692980Y-135834626D01*
X151667037Y-135862647D01*
X151662345Y-135867177D01*
X151637617Y-135888005D01*
X151616282Y-135894735D01*
X151586445Y-135890038D01*
X151574492Y-135886917D01*
X151537295Y-135879421D01*
X151511141Y-135882792D01*
X151489054Y-135894681D01*
X151468822Y-135910635D01*
X151453921Y-135930700D01*
X151443566Y-135958702D01*
X151436971Y-135998467D01*
X151433351Y-136053823D01*
X151431922Y-136128594D01*
X151431782Y-136173740D01*
X151431782Y-136367822D01*
X151306040Y-136367822D01*
X151306040Y-135751683D01*
X151368911Y-135751683D01*
X151406644Y-135753020D01*
G36*
X152198812Y-136367822D02*
X152129654Y-136367822D01*
X152089512Y-136366645D01*
X152068606Y-136361772D01*
X152061078Y-136351186D01*
X152060495Y-136344029D01*
X152059226Y-136329676D01*
X152051221Y-136326923D01*
X152030185Y-136335771D01*
X152013827Y-136344029D01*
X151951023Y-136363597D01*
X151882752Y-136364729D01*
X151827248Y-136350135D01*
X151775562Y-136314877D01*
X151736162Y-136262835D01*
X151714587Y-136201450D01*
X151714038Y-136198018D01*
X151710833Y-136160571D01*
X151709239Y-136106813D01*
X151709367Y-136066155D01*
X151846721Y-136066155D01*
X151849903Y-136120194D01*
X151857141Y-136164735D01*
X151866940Y-136189888D01*
X151904011Y-136224260D01*
X151948026Y-136236582D01*
X151993416Y-136226618D01*
X152032203Y-136196895D01*
X152046892Y-136176905D01*
X152055481Y-136153050D01*
X152059504Y-136118230D01*
X152060495Y-136065930D01*
X152058722Y-136014139D01*
X152054037Y-135968634D01*
X152047397Y-135938181D01*
X152046290Y-135935452D01*
X152019509Y-135903000D01*
X151980421Y-135885183D01*
X151936685Y-135882306D01*
X151895962Y-135894674D01*
X151865913Y-135922593D01*
X151862796Y-135928148D01*
X151853039Y-135962022D01*
X151847723Y-136010728D01*
X151846721Y-136066155D01*
X151709367Y-136066155D01*
X151709432Y-136045540D01*
X151710336Y-136012563D01*
X151716486Y-135930981D01*
X151729267Y-135869730D01*
X151750529Y-135824449D01*
X151782122Y-135790779D01*
X151812793Y-135771014D01*
X151855646Y-135757120D01*
X151908944Y-135752354D01*
X151963520Y-135756236D01*
X152010208Y-135768282D01*
X152034876Y-135782693D01*
X152060495Y-135805878D01*
X152060495Y-135512773D01*
X152198812Y-135512773D01*
X152198812Y-136367822D01*
X152198812Y-136367822D01*
G37*
X152198812Y-136367822D02*
X152129654Y-136367822D01*
X152089512Y-136366645D01*
X152068606Y-136361772D01*
X152061078Y-136351186D01*
X152060495Y-136344029D01*
X152059226Y-136329676D01*
X152051221Y-136326923D01*
X152030185Y-136335771D01*
X152013827Y-136344029D01*
X151951023Y-136363597D01*
X151882752Y-136364729D01*
X151827248Y-136350135D01*
X151775562Y-136314877D01*
X151736162Y-136262835D01*
X151714587Y-136201450D01*
X151714038Y-136198018D01*
X151710833Y-136160571D01*
X151709239Y-136106813D01*
X151709367Y-136066155D01*
X151846721Y-136066155D01*
X151849903Y-136120194D01*
X151857141Y-136164735D01*
X151866940Y-136189888D01*
X151904011Y-136224260D01*
X151948026Y-136236582D01*
X151993416Y-136226618D01*
X152032203Y-136196895D01*
X152046892Y-136176905D01*
X152055481Y-136153050D01*
X152059504Y-136118230D01*
X152060495Y-136065930D01*
X152058722Y-136014139D01*
X152054037Y-135968634D01*
X152047397Y-135938181D01*
X152046290Y-135935452D01*
X152019509Y-135903000D01*
X151980421Y-135885183D01*
X151936685Y-135882306D01*
X151895962Y-135894674D01*
X151865913Y-135922593D01*
X151862796Y-135928148D01*
X151853039Y-135962022D01*
X151847723Y-136010728D01*
X151846721Y-136066155D01*
X151709367Y-136066155D01*
X151709432Y-136045540D01*
X151710336Y-136012563D01*
X151716486Y-135930981D01*
X151729267Y-135869730D01*
X151750529Y-135824449D01*
X151782122Y-135790779D01*
X151812793Y-135771014D01*
X151855646Y-135757120D01*
X151908944Y-135752354D01*
X151963520Y-135756236D01*
X152010208Y-135768282D01*
X152034876Y-135782693D01*
X152060495Y-135805878D01*
X152060495Y-135512773D01*
X152198812Y-135512773D01*
X152198812Y-136367822D01*
G36*
X152681524Y-135754237D02*
X152731255Y-135757971D01*
X152861291Y-136147773D01*
X152881678Y-136078614D01*
X152893946Y-136035874D01*
X152910085Y-135978115D01*
X152927512Y-135914625D01*
X152936726Y-135880570D01*
X152971388Y-135751683D01*
X153114391Y-135751683D01*
X153071646Y-135886857D01*
X153050596Y-135953342D01*
X153025167Y-136033539D01*
X152998610Y-136117193D01*
X152974902Y-136191782D01*
X152920902Y-136361535D01*
X152862598Y-136365328D01*
X152804295Y-136369122D01*
X152772679Y-136264734D01*
X152753182Y-136199889D01*
X152731904Y-136128400D01*
X152713308Y-136065263D01*
X152712574Y-136062750D01*
X152698684Y-136019969D01*
X152686429Y-135990779D01*
X152677846Y-135979741D01*
X152676082Y-135981018D01*
X152669891Y-135998130D01*
X152658128Y-136034787D01*
X152642225Y-136086378D01*
X152623614Y-136148294D01*
X152613543Y-136182352D01*
X152559007Y-136367822D01*
X152443264Y-136367822D01*
X152350737Y-136075471D01*
X152324744Y-135993462D01*
X152301066Y-135918987D01*
X152280820Y-135855544D01*
X152265126Y-135806632D01*
X152255102Y-135775749D01*
X152252055Y-135766726D01*
X152254467Y-135757487D01*
X152273408Y-135753441D01*
X152312823Y-135753846D01*
X152318993Y-135754152D01*
X152392086Y-135757971D01*
X152439957Y-135934010D01*
X152457553Y-135998211D01*
X152473277Y-136054649D01*
X152485746Y-136098422D01*
X152493574Y-136124630D01*
X152495020Y-136128903D01*
X152501014Y-136123990D01*
X152513101Y-136098532D01*
X152529893Y-136055997D01*
X152550003Y-135999850D01*
X152567003Y-135949130D01*
X152631794Y-135750504D01*
X152681524Y-135754237D01*
X152681524Y-135754237D01*
G37*
X152681524Y-135754237D02*
X152731255Y-135757971D01*
X152861291Y-136147773D01*
X152881678Y-136078614D01*
X152893946Y-136035874D01*
X152910085Y-135978115D01*
X152927512Y-135914625D01*
X152936726Y-135880570D01*
X152971388Y-135751683D01*
X153114391Y-135751683D01*
X153071646Y-135886857D01*
X153050596Y-135953342D01*
X153025167Y-136033539D01*
X152998610Y-136117193D01*
X152974902Y-136191782D01*
X152920902Y-136361535D01*
X152862598Y-136365328D01*
X152804295Y-136369122D01*
X152772679Y-136264734D01*
X152753182Y-136199889D01*
X152731904Y-136128400D01*
X152713308Y-136065263D01*
X152712574Y-136062750D01*
X152698684Y-136019969D01*
X152686429Y-135990779D01*
X152677846Y-135979741D01*
X152676082Y-135981018D01*
X152669891Y-135998130D01*
X152658128Y-136034787D01*
X152642225Y-136086378D01*
X152623614Y-136148294D01*
X152613543Y-136182352D01*
X152559007Y-136367822D01*
X152443264Y-136367822D01*
X152350737Y-136075471D01*
X152324744Y-135993462D01*
X152301066Y-135918987D01*
X152280820Y-135855544D01*
X152265126Y-135806632D01*
X152255102Y-135775749D01*
X152252055Y-135766726D01*
X152254467Y-135757487D01*
X152273408Y-135753441D01*
X152312823Y-135753846D01*
X152318993Y-135754152D01*
X152392086Y-135757971D01*
X152439957Y-135934010D01*
X152457553Y-135998211D01*
X152473277Y-136054649D01*
X152485746Y-136098422D01*
X152493574Y-136124630D01*
X152495020Y-136128903D01*
X152501014Y-136123990D01*
X152513101Y-136098532D01*
X152529893Y-136055997D01*
X152550003Y-135999850D01*
X152567003Y-135949130D01*
X152631794Y-135750504D01*
X152681524Y-135754237D01*
G36*
X153438411Y-135755417D02*
X153491411Y-135768290D01*
X153506731Y-135775110D01*
X153536428Y-135792974D01*
X153559220Y-135813093D01*
X153576083Y-135838962D01*
X153587998Y-135874073D01*
X153595942Y-135921920D01*
X153600894Y-135985996D01*
X153603831Y-136069794D01*
X153604947Y-136125768D01*
X153609052Y-136367822D01*
X153538932Y-136367822D01*
X153496393Y-136366038D01*
X153474476Y-136359942D01*
X153468812Y-136349706D01*
X153465821Y-136338637D01*
X153452451Y-136340754D01*
X153434233Y-136349629D01*
X153388624Y-136363233D01*
X153330007Y-136366899D01*
X153268354Y-136360903D01*
X153213638Y-136345521D01*
X153208730Y-136343386D01*
X153158723Y-136308255D01*
X153125756Y-136259419D01*
X153110587Y-136202333D01*
X153111746Y-136181824D01*
X153235508Y-136181824D01*
X153246413Y-136209425D01*
X153278745Y-136229204D01*
X153330910Y-136239819D01*
X153358787Y-136241228D01*
X153405247Y-136237620D01*
X153436129Y-136223597D01*
X153443664Y-136216931D01*
X153464076Y-136180666D01*
X153468812Y-136147773D01*
X153468812Y-136103763D01*
X153407513Y-136103763D01*
X153336256Y-136107395D01*
X153286276Y-136118818D01*
X153254696Y-136138824D01*
X153247626Y-136147743D01*
X153235508Y-136181824D01*
X153111746Y-136181824D01*
X153113971Y-136142456D01*
X153136663Y-136085244D01*
X153167624Y-136046580D01*
X153186376Y-136029864D01*
X153204733Y-136018878D01*
X153228619Y-136012180D01*
X153263957Y-136008326D01*
X153316669Y-136005873D01*
X153337577Y-136005168D01*
X153468812Y-136000879D01*
X153468620Y-135961158D01*
X153463537Y-135919405D01*
X153445162Y-135894158D01*
X153408039Y-135878030D01*
X153407043Y-135877742D01*
X153354410Y-135871400D01*
X153302906Y-135879684D01*
X153264630Y-135899827D01*
X153249272Y-135909773D01*
X153232730Y-135908397D01*
X153207275Y-135893987D01*
X153192328Y-135883817D01*
X153163091Y-135862088D01*
X153144980Y-135845800D01*
X153142074Y-135841137D01*
X153154040Y-135817005D01*
X153189396Y-135788185D01*
X153204753Y-135778461D01*
X153248901Y-135761714D01*
X153308398Y-135752227D01*
X153374487Y-135750095D01*
X153438411Y-135755417D01*
X153438411Y-135755417D01*
G37*
X153438411Y-135755417D02*
X153491411Y-135768290D01*
X153506731Y-135775110D01*
X153536428Y-135792974D01*
X153559220Y-135813093D01*
X153576083Y-135838962D01*
X153587998Y-135874073D01*
X153595942Y-135921920D01*
X153600894Y-135985996D01*
X153603831Y-136069794D01*
X153604947Y-136125768D01*
X153609052Y-136367822D01*
X153538932Y-136367822D01*
X153496393Y-136366038D01*
X153474476Y-136359942D01*
X153468812Y-136349706D01*
X153465821Y-136338637D01*
X153452451Y-136340754D01*
X153434233Y-136349629D01*
X153388624Y-136363233D01*
X153330007Y-136366899D01*
X153268354Y-136360903D01*
X153213638Y-136345521D01*
X153208730Y-136343386D01*
X153158723Y-136308255D01*
X153125756Y-136259419D01*
X153110587Y-136202333D01*
X153111746Y-136181824D01*
X153235508Y-136181824D01*
X153246413Y-136209425D01*
X153278745Y-136229204D01*
X153330910Y-136239819D01*
X153358787Y-136241228D01*
X153405247Y-136237620D01*
X153436129Y-136223597D01*
X153443664Y-136216931D01*
X153464076Y-136180666D01*
X153468812Y-136147773D01*
X153468812Y-136103763D01*
X153407513Y-136103763D01*
X153336256Y-136107395D01*
X153286276Y-136118818D01*
X153254696Y-136138824D01*
X153247626Y-136147743D01*
X153235508Y-136181824D01*
X153111746Y-136181824D01*
X153113971Y-136142456D01*
X153136663Y-136085244D01*
X153167624Y-136046580D01*
X153186376Y-136029864D01*
X153204733Y-136018878D01*
X153228619Y-136012180D01*
X153263957Y-136008326D01*
X153316669Y-136005873D01*
X153337577Y-136005168D01*
X153468812Y-136000879D01*
X153468620Y-135961158D01*
X153463537Y-135919405D01*
X153445162Y-135894158D01*
X153408039Y-135878030D01*
X153407043Y-135877742D01*
X153354410Y-135871400D01*
X153302906Y-135879684D01*
X153264630Y-135899827D01*
X153249272Y-135909773D01*
X153232730Y-135908397D01*
X153207275Y-135893987D01*
X153192328Y-135883817D01*
X153163091Y-135862088D01*
X153144980Y-135845800D01*
X153142074Y-135841137D01*
X153154040Y-135817005D01*
X153189396Y-135788185D01*
X153204753Y-135778461D01*
X153248901Y-135761714D01*
X153308398Y-135752227D01*
X153374487Y-135750095D01*
X153438411Y-135755417D01*
G36*
X154035255Y-135751486D02*
X154083595Y-135761015D01*
X154111114Y-135775125D01*
X154140064Y-135798568D01*
X154098876Y-135850571D01*
X154073482Y-135882064D01*
X154056238Y-135897428D01*
X154039102Y-135899776D01*
X154014027Y-135892217D01*
X154002257Y-135887941D01*
X153954270Y-135881631D01*
X153910324Y-135895156D01*
X153878060Y-135925710D01*
X153872819Y-135935452D01*
X153867112Y-135961258D01*
X153862706Y-136008817D01*
X153859811Y-136074758D01*
X153858631Y-136155710D01*
X153858614Y-136167226D01*
X153858614Y-136367822D01*
X153720297Y-136367822D01*
X153720297Y-135751683D01*
X153789456Y-135751683D01*
X153829333Y-135752725D01*
X153850107Y-135757358D01*
X153857789Y-135767849D01*
X153858614Y-135777745D01*
X153858614Y-135803806D01*
X153891745Y-135777745D01*
X153929735Y-135759965D01*
X153980770Y-135751174D01*
X154035255Y-135751486D01*
X154035255Y-135751486D01*
G37*
X154035255Y-135751486D02*
X154083595Y-135761015D01*
X154111114Y-135775125D01*
X154140064Y-135798568D01*
X154098876Y-135850571D01*
X154073482Y-135882064D01*
X154056238Y-135897428D01*
X154039102Y-135899776D01*
X154014027Y-135892217D01*
X154002257Y-135887941D01*
X153954270Y-135881631D01*
X153910324Y-135895156D01*
X153878060Y-135925710D01*
X153872819Y-135935452D01*
X153867112Y-135961258D01*
X153862706Y-136008817D01*
X153859811Y-136074758D01*
X153858631Y-136155710D01*
X153858614Y-136167226D01*
X153858614Y-136367822D01*
X153720297Y-136367822D01*
X153720297Y-135751683D01*
X153789456Y-135751683D01*
X153829333Y-135752725D01*
X153850107Y-135757358D01*
X153857789Y-135767849D01*
X153858614Y-135777745D01*
X153858614Y-135803806D01*
X153891745Y-135777745D01*
X153929735Y-135759965D01*
X153980770Y-135751174D01*
X154035255Y-135751486D01*
G36*
X154432581Y-135754970D02*
X154492685Y-135770597D01*
X154543021Y-135802848D01*
X154567393Y-135826940D01*
X154607345Y-135883895D01*
X154630242Y-135949965D01*
X154638108Y-136031182D01*
X154638148Y-136037748D01*
X154638218Y-136103763D01*
X154258264Y-136103763D01*
X154266363Y-136138342D01*
X154280987Y-136169659D01*
X154306581Y-136202291D01*
X154311935Y-136207500D01*
X154357943Y-136235694D01*
X154410410Y-136240475D01*
X154470803Y-136221926D01*
X154481040Y-136216931D01*
X154512439Y-136201745D01*
X154533470Y-136193094D01*
X154537139Y-136192293D01*
X154549948Y-136200063D01*
X154574378Y-136219072D01*
X154586779Y-136229460D01*
X154612476Y-136253321D01*
X154620915Y-136269077D01*
X154615058Y-136283571D01*
X154611928Y-136287534D01*
X154590725Y-136304879D01*
X154555738Y-136325959D01*
X154531337Y-136338265D01*
X154462072Y-136359946D01*
X154385388Y-136366971D01*
X154312765Y-136358647D01*
X154292426Y-136352686D01*
X154229476Y-136318952D01*
X154182815Y-136267045D01*
X154152173Y-136196459D01*
X154137282Y-136106692D01*
X154135647Y-136059753D01*
X154140421Y-135991413D01*
X154260990Y-135991413D01*
X154272652Y-135996465D01*
X154303998Y-136000429D01*
X154349571Y-136002768D01*
X154380446Y-136003169D01*
X154435981Y-136002783D01*
X154471033Y-136000975D01*
X154490262Y-135996773D01*
X154498330Y-135989203D01*
X154499901Y-135978218D01*
X154489121Y-135944381D01*
X154461980Y-135910940D01*
X154426277Y-135885272D01*
X154390560Y-135874772D01*
X154342048Y-135884086D01*
X154300053Y-135911013D01*
X154270936Y-135949827D01*
X154260990Y-135991413D01*
X154140421Y-135991413D01*
X154142599Y-135960236D01*
X154164055Y-135880949D01*
X154200470Y-135821263D01*
X154252297Y-135780549D01*
X154319990Y-135758179D01*
X154356662Y-135753871D01*
X154432581Y-135754970D01*
X154432581Y-135754970D01*
G37*
X154432581Y-135754970D02*
X154492685Y-135770597D01*
X154543021Y-135802848D01*
X154567393Y-135826940D01*
X154607345Y-135883895D01*
X154630242Y-135949965D01*
X154638108Y-136031182D01*
X154638148Y-136037748D01*
X154638218Y-136103763D01*
X154258264Y-136103763D01*
X154266363Y-136138342D01*
X154280987Y-136169659D01*
X154306581Y-136202291D01*
X154311935Y-136207500D01*
X154357943Y-136235694D01*
X154410410Y-136240475D01*
X154470803Y-136221926D01*
X154481040Y-136216931D01*
X154512439Y-136201745D01*
X154533470Y-136193094D01*
X154537139Y-136192293D01*
X154549948Y-136200063D01*
X154574378Y-136219072D01*
X154586779Y-136229460D01*
X154612476Y-136253321D01*
X154620915Y-136269077D01*
X154615058Y-136283571D01*
X154611928Y-136287534D01*
X154590725Y-136304879D01*
X154555738Y-136325959D01*
X154531337Y-136338265D01*
X154462072Y-136359946D01*
X154385388Y-136366971D01*
X154312765Y-136358647D01*
X154292426Y-136352686D01*
X154229476Y-136318952D01*
X154182815Y-136267045D01*
X154152173Y-136196459D01*
X154137282Y-136106692D01*
X154135647Y-136059753D01*
X154140421Y-135991413D01*
X154260990Y-135991413D01*
X154272652Y-135996465D01*
X154303998Y-136000429D01*
X154349571Y-136002768D01*
X154380446Y-136003169D01*
X154435981Y-136002783D01*
X154471033Y-136000975D01*
X154490262Y-135996773D01*
X154498330Y-135989203D01*
X154499901Y-135978218D01*
X154489121Y-135944381D01*
X154461980Y-135910940D01*
X154426277Y-135885272D01*
X154390560Y-135874772D01*
X154342048Y-135884086D01*
X154300053Y-135911013D01*
X154270936Y-135949827D01*
X154260990Y-135991413D01*
X154140421Y-135991413D01*
X154142599Y-135960236D01*
X154164055Y-135880949D01*
X154200470Y-135821263D01*
X154252297Y-135780549D01*
X154319990Y-135758179D01*
X154356662Y-135753871D01*
X154432581Y-135754970D01*
G36*
X149861739Y-134815148D02*
X149927521Y-134844231D01*
X149977460Y-134892793D01*
X150011626Y-134960908D01*
X150030093Y-135048651D01*
X150031417Y-135062351D01*
X150032454Y-135158939D01*
X150019007Y-135243602D01*
X149991892Y-135312221D01*
X149977373Y-135334294D01*
X149926799Y-135381011D01*
X149862391Y-135411268D01*
X149790334Y-135423824D01*
X149716815Y-135417439D01*
X149660928Y-135397772D01*
X149612868Y-135364629D01*
X149573588Y-135321175D01*
X149572908Y-135320158D01*
X149556956Y-135293338D01*
X149546590Y-135266368D01*
X149540312Y-135232332D01*
X149536627Y-135184310D01*
X149535003Y-135144931D01*
X149534328Y-135109219D01*
X149660045Y-135109219D01*
X149661274Y-135144770D01*
X149665734Y-135192094D01*
X149673603Y-135222465D01*
X149687793Y-135244072D01*
X149701083Y-135256694D01*
X149748198Y-135283122D01*
X149797495Y-135286653D01*
X149843407Y-135267639D01*
X149866362Y-135246331D01*
X149882904Y-135224859D01*
X149892579Y-135204313D01*
X149896826Y-135177574D01*
X149897080Y-135137523D01*
X149895772Y-135100638D01*
X149892957Y-135047947D01*
X149888495Y-135013772D01*
X149880452Y-134991480D01*
X149866897Y-134974442D01*
X149856155Y-134964703D01*
X149811223Y-134939123D01*
X149762751Y-134937847D01*
X149722106Y-134952999D01*
X149687433Y-134984642D01*
X149666776Y-135036620D01*
X149660045Y-135109219D01*
X149534328Y-135109219D01*
X149533521Y-135066621D01*
X149536052Y-135008056D01*
X149543638Y-134964007D01*
X149557319Y-134929248D01*
X149578135Y-134898551D01*
X149585853Y-134889436D01*
X149634111Y-134844021D01*
X149685872Y-134817493D01*
X149749172Y-134806379D01*
X149780039Y-134805471D01*
X149861739Y-134815148D01*
X149861739Y-134815148D01*
G37*
X149861739Y-134815148D02*
X149927521Y-134844231D01*
X149977460Y-134892793D01*
X150011626Y-134960908D01*
X150030093Y-135048651D01*
X150031417Y-135062351D01*
X150032454Y-135158939D01*
X150019007Y-135243602D01*
X149991892Y-135312221D01*
X149977373Y-135334294D01*
X149926799Y-135381011D01*
X149862391Y-135411268D01*
X149790334Y-135423824D01*
X149716815Y-135417439D01*
X149660928Y-135397772D01*
X149612868Y-135364629D01*
X149573588Y-135321175D01*
X149572908Y-135320158D01*
X149556956Y-135293338D01*
X149546590Y-135266368D01*
X149540312Y-135232332D01*
X149536627Y-135184310D01*
X149535003Y-135144931D01*
X149534328Y-135109219D01*
X149660045Y-135109219D01*
X149661274Y-135144770D01*
X149665734Y-135192094D01*
X149673603Y-135222465D01*
X149687793Y-135244072D01*
X149701083Y-135256694D01*
X149748198Y-135283122D01*
X149797495Y-135286653D01*
X149843407Y-135267639D01*
X149866362Y-135246331D01*
X149882904Y-135224859D01*
X149892579Y-135204313D01*
X149896826Y-135177574D01*
X149897080Y-135137523D01*
X149895772Y-135100638D01*
X149892957Y-135047947D01*
X149888495Y-135013772D01*
X149880452Y-134991480D01*
X149866897Y-134974442D01*
X149856155Y-134964703D01*
X149811223Y-134939123D01*
X149762751Y-134937847D01*
X149722106Y-134952999D01*
X149687433Y-134984642D01*
X149666776Y-135036620D01*
X149660045Y-135109219D01*
X149534328Y-135109219D01*
X149533521Y-135066621D01*
X149536052Y-135008056D01*
X149543638Y-134964007D01*
X149557319Y-134929248D01*
X149578135Y-134898551D01*
X149585853Y-134889436D01*
X149634111Y-134844021D01*
X149685872Y-134817493D01*
X149749172Y-134806379D01*
X149780039Y-134805471D01*
X149861739Y-134815148D01*
G36*
X151043301Y-134822614D02*
X151055832Y-134828514D01*
X151099201Y-134860283D01*
X151140210Y-134906646D01*
X151170832Y-134957696D01*
X151179541Y-134981166D01*
X151187488Y-135023091D01*
X151192226Y-135073757D01*
X151192801Y-135094679D01*
X151192871Y-135160693D01*
X150812917Y-135160693D01*
X150821017Y-135195273D01*
X150840896Y-135236170D01*
X150875653Y-135271514D01*
X150917002Y-135294282D01*
X150943351Y-135299010D01*
X150979084Y-135293273D01*
X151021718Y-135278882D01*
X151036201Y-135272262D01*
X151089760Y-135245513D01*
X151135467Y-135280376D01*
X151161842Y-135303955D01*
X151175876Y-135323417D01*
X151176586Y-135329129D01*
X151164049Y-135342973D01*
X151136572Y-135364012D01*
X151111634Y-135380425D01*
X151044336Y-135409930D01*
X150968890Y-135423284D01*
X150894112Y-135419812D01*
X150834505Y-135401663D01*
X150773059Y-135362784D01*
X150729392Y-135311595D01*
X150702074Y-135245367D01*
X150689678Y-135161371D01*
X150688579Y-135122936D01*
X150692978Y-135034861D01*
X150693518Y-135032299D01*
X150819418Y-135032299D01*
X150822885Y-135040558D01*
X150837137Y-135045113D01*
X150866530Y-135047065D01*
X150915425Y-135047517D01*
X150934252Y-135047525D01*
X150991533Y-135046843D01*
X151027859Y-135044364D01*
X151047396Y-135039443D01*
X151054310Y-135031434D01*
X151054555Y-135028862D01*
X151046664Y-135008423D01*
X151026915Y-134979789D01*
X151018425Y-134969763D01*
X150986906Y-134941408D01*
X150954051Y-134930259D01*
X150936349Y-134929327D01*
X150888461Y-134940981D01*
X150848301Y-134972285D01*
X150822827Y-135017752D01*
X150822375Y-135019233D01*
X150819418Y-135032299D01*
X150693518Y-135032299D01*
X150707608Y-134965510D01*
X150733962Y-134910025D01*
X150766193Y-134870639D01*
X150825783Y-134827931D01*
X150895832Y-134805109D01*
X150970339Y-134803046D01*
X151043301Y-134822614D01*
X151043301Y-134822614D01*
G37*
X151043301Y-134822614D02*
X151055832Y-134828514D01*
X151099201Y-134860283D01*
X151140210Y-134906646D01*
X151170832Y-134957696D01*
X151179541Y-134981166D01*
X151187488Y-135023091D01*
X151192226Y-135073757D01*
X151192801Y-135094679D01*
X151192871Y-135160693D01*
X150812917Y-135160693D01*
X150821017Y-135195273D01*
X150840896Y-135236170D01*
X150875653Y-135271514D01*
X150917002Y-135294282D01*
X150943351Y-135299010D01*
X150979084Y-135293273D01*
X151021718Y-135278882D01*
X151036201Y-135272262D01*
X151089760Y-135245513D01*
X151135467Y-135280376D01*
X151161842Y-135303955D01*
X151175876Y-135323417D01*
X151176586Y-135329129D01*
X151164049Y-135342973D01*
X151136572Y-135364012D01*
X151111634Y-135380425D01*
X151044336Y-135409930D01*
X150968890Y-135423284D01*
X150894112Y-135419812D01*
X150834505Y-135401663D01*
X150773059Y-135362784D01*
X150729392Y-135311595D01*
X150702074Y-135245367D01*
X150689678Y-135161371D01*
X150688579Y-135122936D01*
X150692978Y-135034861D01*
X150693518Y-135032299D01*
X150819418Y-135032299D01*
X150822885Y-135040558D01*
X150837137Y-135045113D01*
X150866530Y-135047065D01*
X150915425Y-135047517D01*
X150934252Y-135047525D01*
X150991533Y-135046843D01*
X151027859Y-135044364D01*
X151047396Y-135039443D01*
X151054310Y-135031434D01*
X151054555Y-135028862D01*
X151046664Y-135008423D01*
X151026915Y-134979789D01*
X151018425Y-134969763D01*
X150986906Y-134941408D01*
X150954051Y-134930259D01*
X150936349Y-134929327D01*
X150888461Y-134940981D01*
X150848301Y-134972285D01*
X150822827Y-135017752D01*
X150822375Y-135019233D01*
X150819418Y-135032299D01*
X150693518Y-135032299D01*
X150707608Y-134965510D01*
X150733962Y-134910025D01*
X150766193Y-134870639D01*
X150825783Y-134827931D01*
X150895832Y-134805109D01*
X150970339Y-134803046D01*
X151043301Y-134822614D01*
G36*
X152414017Y-134806452D02*
X152461634Y-134815482D01*
X152511034Y-134834370D01*
X152516312Y-134836777D01*
X152553774Y-134856476D01*
X152579717Y-134874781D01*
X152588103Y-134886508D01*
X152580117Y-134905632D01*
X152560720Y-134933850D01*
X152552110Y-134944384D01*
X152516628Y-134985847D01*
X152470885Y-134958858D01*
X152427350Y-134940878D01*
X152377050Y-134931267D01*
X152328812Y-134930660D01*
X152291467Y-134939691D01*
X152282505Y-134945327D01*
X152265437Y-134971171D01*
X152263363Y-135000941D01*
X152276134Y-135024197D01*
X152283688Y-135028708D01*
X152306325Y-135034309D01*
X152346115Y-135040892D01*
X152395166Y-135047183D01*
X152404215Y-135048170D01*
X152482996Y-135061798D01*
X152540136Y-135084946D01*
X152578030Y-135119752D01*
X152599079Y-135168354D01*
X152605635Y-135227718D01*
X152596577Y-135295198D01*
X152567164Y-135348188D01*
X152517278Y-135386783D01*
X152446800Y-135411081D01*
X152368565Y-135420667D01*
X152304766Y-135420552D01*
X152253016Y-135411845D01*
X152217673Y-135399825D01*
X152173017Y-135378880D01*
X152131747Y-135354574D01*
X152117079Y-135343876D01*
X152079357Y-135313084D01*
X152124852Y-135267049D01*
X152170347Y-135221013D01*
X152222072Y-135255243D01*
X152273952Y-135280952D01*
X152329351Y-135294399D01*
X152382605Y-135295818D01*
X152428049Y-135285443D01*
X152460016Y-135263507D01*
X152470338Y-135244998D01*
X152468789Y-135215314D01*
X152443140Y-135192615D01*
X152393460Y-135176940D01*
X152339031Y-135169695D01*
X152255264Y-135155873D01*
X152193033Y-135129796D01*
X152151507Y-135090699D01*
X152129853Y-135037820D01*
X152126853Y-134975126D01*
X152141671Y-134909642D01*
X152175454Y-134860144D01*
X152228505Y-134826408D01*
X152301126Y-134808207D01*
X152354928Y-134804639D01*
X152414017Y-134806452D01*
X152414017Y-134806452D01*
G37*
X152414017Y-134806452D02*
X152461634Y-134815482D01*
X152511034Y-134834370D01*
X152516312Y-134836777D01*
X152553774Y-134856476D01*
X152579717Y-134874781D01*
X152588103Y-134886508D01*
X152580117Y-134905632D01*
X152560720Y-134933850D01*
X152552110Y-134944384D01*
X152516628Y-134985847D01*
X152470885Y-134958858D01*
X152427350Y-134940878D01*
X152377050Y-134931267D01*
X152328812Y-134930660D01*
X152291467Y-134939691D01*
X152282505Y-134945327D01*
X152265437Y-134971171D01*
X152263363Y-135000941D01*
X152276134Y-135024197D01*
X152283688Y-135028708D01*
X152306325Y-135034309D01*
X152346115Y-135040892D01*
X152395166Y-135047183D01*
X152404215Y-135048170D01*
X152482996Y-135061798D01*
X152540136Y-135084946D01*
X152578030Y-135119752D01*
X152599079Y-135168354D01*
X152605635Y-135227718D01*
X152596577Y-135295198D01*
X152567164Y-135348188D01*
X152517278Y-135386783D01*
X152446800Y-135411081D01*
X152368565Y-135420667D01*
X152304766Y-135420552D01*
X152253016Y-135411845D01*
X152217673Y-135399825D01*
X152173017Y-135378880D01*
X152131747Y-135354574D01*
X152117079Y-135343876D01*
X152079357Y-135313084D01*
X152124852Y-135267049D01*
X152170347Y-135221013D01*
X152222072Y-135255243D01*
X152273952Y-135280952D01*
X152329351Y-135294399D01*
X152382605Y-135295818D01*
X152428049Y-135285443D01*
X152460016Y-135263507D01*
X152470338Y-135244998D01*
X152468789Y-135215314D01*
X152443140Y-135192615D01*
X152393460Y-135176940D01*
X152339031Y-135169695D01*
X152255264Y-135155873D01*
X152193033Y-135129796D01*
X152151507Y-135090699D01*
X152129853Y-135037820D01*
X152126853Y-134975126D01*
X152141671Y-134909642D01*
X152175454Y-134860144D01*
X152228505Y-134826408D01*
X152301126Y-134808207D01*
X152354928Y-134804639D01*
X152414017Y-134806452D01*
G36*
X153010762Y-134816055D02*
X153074363Y-134850692D01*
X153124123Y-134905372D01*
X153147568Y-134949842D01*
X153157634Y-134989121D01*
X153164156Y-135045116D01*
X153166951Y-135109621D01*
X153165836Y-135174429D01*
X153160626Y-135231334D01*
X153154541Y-135261727D01*
X153134014Y-135303306D01*
X153098463Y-135347468D01*
X153055619Y-135386087D01*
X153013211Y-135411034D01*
X153012177Y-135411430D01*
X152959553Y-135422331D01*
X152897188Y-135422601D01*
X152837924Y-135412676D01*
X152815040Y-135404722D01*
X152756102Y-135371300D01*
X152713890Y-135327511D01*
X152686156Y-135269538D01*
X152670651Y-135193565D01*
X152667143Y-135153771D01*
X152667590Y-135103766D01*
X152802376Y-135103766D01*
X152806917Y-135176732D01*
X152819986Y-135232334D01*
X152840756Y-135267861D01*
X152855552Y-135278020D01*
X152893464Y-135285104D01*
X152938527Y-135283007D01*
X152977487Y-135272812D01*
X152987704Y-135267204D01*
X153014659Y-135234538D01*
X153032451Y-135184545D01*
X153040024Y-135123705D01*
X153036325Y-135058497D01*
X153028057Y-135019253D01*
X153004320Y-134973805D01*
X152966849Y-134945396D01*
X152921720Y-134935573D01*
X152875011Y-134945887D01*
X152839132Y-134971112D01*
X152820277Y-134991925D01*
X152809272Y-135012439D01*
X152804026Y-135040203D01*
X152802449Y-135082762D01*
X152802376Y-135103766D01*
X152667590Y-135103766D01*
X152668094Y-135047580D01*
X152685388Y-134960501D01*
X152719029Y-134892530D01*
X152769018Y-134843664D01*
X152835356Y-134813899D01*
X152849601Y-134810448D01*
X152935210Y-134802345D01*
X153010762Y-134816055D01*
X153010762Y-134816055D01*
G37*
X153010762Y-134816055D02*
X153074363Y-134850692D01*
X153124123Y-134905372D01*
X153147568Y-134949842D01*
X153157634Y-134989121D01*
X153164156Y-135045116D01*
X153166951Y-135109621D01*
X153165836Y-135174429D01*
X153160626Y-135231334D01*
X153154541Y-135261727D01*
X153134014Y-135303306D01*
X153098463Y-135347468D01*
X153055619Y-135386087D01*
X153013211Y-135411034D01*
X153012177Y-135411430D01*
X152959553Y-135422331D01*
X152897188Y-135422601D01*
X152837924Y-135412676D01*
X152815040Y-135404722D01*
X152756102Y-135371300D01*
X152713890Y-135327511D01*
X152686156Y-135269538D01*
X152670651Y-135193565D01*
X152667143Y-135153771D01*
X152667590Y-135103766D01*
X152802376Y-135103766D01*
X152806917Y-135176732D01*
X152819986Y-135232334D01*
X152840756Y-135267861D01*
X152855552Y-135278020D01*
X152893464Y-135285104D01*
X152938527Y-135283007D01*
X152977487Y-135272812D01*
X152987704Y-135267204D01*
X153014659Y-135234538D01*
X153032451Y-135184545D01*
X153040024Y-135123705D01*
X153036325Y-135058497D01*
X153028057Y-135019253D01*
X153004320Y-134973805D01*
X152966849Y-134945396D01*
X152921720Y-134935573D01*
X152875011Y-134945887D01*
X152839132Y-134971112D01*
X152820277Y-134991925D01*
X152809272Y-135012439D01*
X152804026Y-135040203D01*
X152802449Y-135082762D01*
X152802376Y-135103766D01*
X152667590Y-135103766D01*
X152668094Y-135047580D01*
X152685388Y-134960501D01*
X152719029Y-134892530D01*
X152769018Y-134843664D01*
X152835356Y-134813899D01*
X152849601Y-134810448D01*
X152935210Y-134802345D01*
X153010762Y-134816055D01*
G36*
X153393367Y-135004342D02*
X153394555Y-135096563D01*
X153398897Y-135166610D01*
X153407558Y-135217381D01*
X153421704Y-135251772D01*
X153442500Y-135272679D01*
X153471110Y-135283000D01*
X153506535Y-135285636D01*
X153543636Y-135282682D01*
X153571818Y-135271889D01*
X153592243Y-135250360D01*
X153606079Y-135215199D01*
X153614491Y-135163510D01*
X153618643Y-135092394D01*
X153619703Y-135004342D01*
X153619703Y-134808614D01*
X153758020Y-134808614D01*
X153758020Y-135412179D01*
X153688862Y-135412179D01*
X153647170Y-135410489D01*
X153625701Y-135404556D01*
X153619703Y-135393293D01*
X153616091Y-135383261D01*
X153601714Y-135385383D01*
X153572736Y-135399580D01*
X153506319Y-135421480D01*
X153435875Y-135419928D01*
X153368377Y-135396147D01*
X153336233Y-135377362D01*
X153311715Y-135357022D01*
X153293804Y-135331573D01*
X153281479Y-135297458D01*
X153273723Y-135251121D01*
X153269516Y-135189007D01*
X153267840Y-135107561D01*
X153267624Y-135044578D01*
X153267624Y-134808614D01*
X153393367Y-134808614D01*
X153393367Y-135004342D01*
X153393367Y-135004342D01*
G37*
X153393367Y-135004342D02*
X153394555Y-135096563D01*
X153398897Y-135166610D01*
X153407558Y-135217381D01*
X153421704Y-135251772D01*
X153442500Y-135272679D01*
X153471110Y-135283000D01*
X153506535Y-135285636D01*
X153543636Y-135282682D01*
X153571818Y-135271889D01*
X153592243Y-135250360D01*
X153606079Y-135215199D01*
X153614491Y-135163510D01*
X153618643Y-135092394D01*
X153619703Y-135004342D01*
X153619703Y-134808614D01*
X153758020Y-134808614D01*
X153758020Y-135412179D01*
X153688862Y-135412179D01*
X153647170Y-135410489D01*
X153625701Y-135404556D01*
X153619703Y-135393293D01*
X153616091Y-135383261D01*
X153601714Y-135385383D01*
X153572736Y-135399580D01*
X153506319Y-135421480D01*
X153435875Y-135419928D01*
X153368377Y-135396147D01*
X153336233Y-135377362D01*
X153311715Y-135357022D01*
X153293804Y-135331573D01*
X153281479Y-135297458D01*
X153273723Y-135251121D01*
X153269516Y-135189007D01*
X153267840Y-135107561D01*
X153267624Y-135044578D01*
X153267624Y-134808614D01*
X153393367Y-134808614D01*
X153393367Y-135004342D01*
G36*
X154617226Y-134813880D02*
X154690080Y-134844830D01*
X154713027Y-134859895D01*
X154742354Y-134883048D01*
X154760764Y-134901253D01*
X154763961Y-134907183D01*
X154754935Y-134920340D01*
X154731837Y-134942667D01*
X154713344Y-134958250D01*
X154662728Y-134998926D01*
X154622760Y-134965295D01*
X154591874Y-134943584D01*
X154561759Y-134936090D01*
X154527292Y-134937920D01*
X154472561Y-134951528D01*
X154434886Y-134979772D01*
X154411991Y-135025433D01*
X154401597Y-135091289D01*
X154401595Y-135091331D01*
X154402494Y-135164939D01*
X154416463Y-135218946D01*
X154444328Y-135255716D01*
X154463325Y-135268168D01*
X154513776Y-135283673D01*
X154567663Y-135283683D01*
X154614546Y-135268638D01*
X154625644Y-135261287D01*
X154653476Y-135242511D01*
X154675236Y-135239434D01*
X154698704Y-135253409D01*
X154724649Y-135278510D01*
X154765716Y-135320880D01*
X154720121Y-135358464D01*
X154649674Y-135400882D01*
X154570233Y-135421785D01*
X154487215Y-135420272D01*
X154432694Y-135406411D01*
X154368970Y-135372135D01*
X154318005Y-135318212D01*
X154294851Y-135280149D01*
X154276099Y-135225536D01*
X154266715Y-135156369D01*
X154266643Y-135081407D01*
X154275824Y-135009409D01*
X154294199Y-134949137D01*
X154297093Y-134942958D01*
X154339952Y-134882351D01*
X154397979Y-134838224D01*
X154466591Y-134811493D01*
X154541201Y-134803073D01*
X154617226Y-134813880D01*
X154617226Y-134813880D01*
G37*
X154617226Y-134813880D02*
X154690080Y-134844830D01*
X154713027Y-134859895D01*
X154742354Y-134883048D01*
X154760764Y-134901253D01*
X154763961Y-134907183D01*
X154754935Y-134920340D01*
X154731837Y-134942667D01*
X154713344Y-134958250D01*
X154662728Y-134998926D01*
X154622760Y-134965295D01*
X154591874Y-134943584D01*
X154561759Y-134936090D01*
X154527292Y-134937920D01*
X154472561Y-134951528D01*
X154434886Y-134979772D01*
X154411991Y-135025433D01*
X154401597Y-135091289D01*
X154401595Y-135091331D01*
X154402494Y-135164939D01*
X154416463Y-135218946D01*
X154444328Y-135255716D01*
X154463325Y-135268168D01*
X154513776Y-135283673D01*
X154567663Y-135283683D01*
X154614546Y-135268638D01*
X154625644Y-135261287D01*
X154653476Y-135242511D01*
X154675236Y-135239434D01*
X154698704Y-135253409D01*
X154724649Y-135278510D01*
X154765716Y-135320880D01*
X154720121Y-135358464D01*
X154649674Y-135400882D01*
X154570233Y-135421785D01*
X154487215Y-135420272D01*
X154432694Y-135406411D01*
X154368970Y-135372135D01*
X154318005Y-135318212D01*
X154294851Y-135280149D01*
X154276099Y-135225536D01*
X154266715Y-135156369D01*
X154266643Y-135081407D01*
X154275824Y-135009409D01*
X154294199Y-134949137D01*
X154297093Y-134942958D01*
X154339952Y-134882351D01*
X154397979Y-134838224D01*
X154466591Y-134811493D01*
X154541201Y-134803073D01*
X154617226Y-134813880D01*
G36*
X155077898Y-134806457D02*
X155110096Y-134814279D01*
X155171825Y-134842921D01*
X155224610Y-134886667D01*
X155261141Y-134939117D01*
X155266160Y-134950893D01*
X155273045Y-134981740D01*
X155277864Y-135027371D01*
X155279505Y-135073492D01*
X155279505Y-135160693D01*
X155097178Y-135160693D01*
X155021979Y-135160978D01*
X154969003Y-135162704D01*
X154935325Y-135167181D01*
X154918020Y-135175720D01*
X154914163Y-135189630D01*
X154920829Y-135210222D01*
X154932770Y-135234315D01*
X154966080Y-135274525D01*
X155012368Y-135294558D01*
X155068944Y-135293905D01*
X155133031Y-135272101D01*
X155188417Y-135245193D01*
X155234375Y-135281532D01*
X155280333Y-135317872D01*
X155237096Y-135357819D01*
X155179374Y-135395563D01*
X155108386Y-135418320D01*
X155032029Y-135424688D01*
X154958199Y-135413268D01*
X154946287Y-135409393D01*
X154881399Y-135375506D01*
X154833130Y-135324986D01*
X154800465Y-135256325D01*
X154782385Y-135168014D01*
X154782175Y-135166121D01*
X154780556Y-135069878D01*
X154787100Y-135035542D01*
X154914852Y-135035542D01*
X154926584Y-135040822D01*
X154958438Y-135044867D01*
X155005397Y-135047176D01*
X155035154Y-135047525D01*
X155090648Y-135047306D01*
X155125346Y-135045916D01*
X155143601Y-135042251D01*
X155149766Y-135035210D01*
X155148195Y-135023690D01*
X155146878Y-135019233D01*
X155124382Y-134977355D01*
X155089003Y-134943604D01*
X155057780Y-134928773D01*
X155016301Y-134929668D01*
X154974269Y-134948164D01*
X154939012Y-134978786D01*
X154917854Y-135016062D01*
X154914852Y-135035542D01*
X154787100Y-135035542D01*
X154796690Y-134985229D01*
X154828698Y-134914191D01*
X154874701Y-134858779D01*
X154932821Y-134821009D01*
X155001180Y-134802896D01*
X155077898Y-134806457D01*
X155077898Y-134806457D01*
G37*
X155077898Y-134806457D02*
X155110096Y-134814279D01*
X155171825Y-134842921D01*
X155224610Y-134886667D01*
X155261141Y-134939117D01*
X155266160Y-134950893D01*
X155273045Y-134981740D01*
X155277864Y-135027371D01*
X155279505Y-135073492D01*
X155279505Y-135160693D01*
X155097178Y-135160693D01*
X155021979Y-135160978D01*
X154969003Y-135162704D01*
X154935325Y-135167181D01*
X154918020Y-135175720D01*
X154914163Y-135189630D01*
X154920829Y-135210222D01*
X154932770Y-135234315D01*
X154966080Y-135274525D01*
X155012368Y-135294558D01*
X155068944Y-135293905D01*
X155133031Y-135272101D01*
X155188417Y-135245193D01*
X155234375Y-135281532D01*
X155280333Y-135317872D01*
X155237096Y-135357819D01*
X155179374Y-135395563D01*
X155108386Y-135418320D01*
X155032029Y-135424688D01*
X154958199Y-135413268D01*
X154946287Y-135409393D01*
X154881399Y-135375506D01*
X154833130Y-135324986D01*
X154800465Y-135256325D01*
X154782385Y-135168014D01*
X154782175Y-135166121D01*
X154780556Y-135069878D01*
X154787100Y-135035542D01*
X154914852Y-135035542D01*
X154926584Y-135040822D01*
X154958438Y-135044867D01*
X155005397Y-135047176D01*
X155035154Y-135047525D01*
X155090648Y-135047306D01*
X155125346Y-135045916D01*
X155143601Y-135042251D01*
X155149766Y-135035210D01*
X155148195Y-135023690D01*
X155146878Y-135019233D01*
X155124382Y-134977355D01*
X155089003Y-134943604D01*
X155057780Y-134928773D01*
X155016301Y-134929668D01*
X154974269Y-134948164D01*
X154939012Y-134978786D01*
X154917854Y-135016062D01*
X154914852Y-135035542D01*
X154787100Y-135035542D01*
X154796690Y-134985229D01*
X154828698Y-134914191D01*
X154874701Y-134858779D01*
X154932821Y-134821009D01*
X155001180Y-134802896D01*
X155077898Y-134806457D01*
G36*
X151645988Y-134819002D02*
X151677283Y-134833950D01*
X151707591Y-134855541D01*
X151730682Y-134880391D01*
X151747500Y-134912087D01*
X151758994Y-134954214D01*
X151766109Y-135010358D01*
X151769793Y-135084106D01*
X151770992Y-135179044D01*
X151771011Y-135188985D01*
X151771287Y-135412179D01*
X151632970Y-135412179D01*
X151632970Y-135206418D01*
X151632872Y-135130189D01*
X151632191Y-135074939D01*
X151630349Y-135036501D01*
X151626767Y-135010706D01*
X151620868Y-134993384D01*
X151612073Y-134980368D01*
X151599820Y-134967507D01*
X151556953Y-134939873D01*
X151510157Y-134934745D01*
X151465576Y-134952217D01*
X151450072Y-134965221D01*
X151438690Y-134977447D01*
X151430519Y-134990540D01*
X151425026Y-135008615D01*
X151421680Y-135035787D01*
X151419949Y-135076170D01*
X151419303Y-135133879D01*
X151419208Y-135204132D01*
X151419208Y-135412179D01*
X151280891Y-135412179D01*
X151280891Y-134808614D01*
X151350050Y-134808614D01*
X151391572Y-134810256D01*
X151412994Y-134816087D01*
X151419205Y-134827461D01*
X151419208Y-134827798D01*
X151422090Y-134838938D01*
X151434801Y-134837674D01*
X151460074Y-134825434D01*
X151517395Y-134807424D01*
X151582963Y-134805421D01*
X151645988Y-134819002D01*
X151645988Y-134819002D01*
G37*
X151645988Y-134819002D02*
X151677283Y-134833950D01*
X151707591Y-134855541D01*
X151730682Y-134880391D01*
X151747500Y-134912087D01*
X151758994Y-134954214D01*
X151766109Y-135010358D01*
X151769793Y-135084106D01*
X151770992Y-135179044D01*
X151771011Y-135188985D01*
X151771287Y-135412179D01*
X151632970Y-135412179D01*
X151632970Y-135206418D01*
X151632872Y-135130189D01*
X151632191Y-135074939D01*
X151630349Y-135036501D01*
X151626767Y-135010706D01*
X151620868Y-134993384D01*
X151612073Y-134980368D01*
X151599820Y-134967507D01*
X151556953Y-134939873D01*
X151510157Y-134934745D01*
X151465576Y-134952217D01*
X151450072Y-134965221D01*
X151438690Y-134977447D01*
X151430519Y-134990540D01*
X151425026Y-135008615D01*
X151421680Y-135035787D01*
X151419949Y-135076170D01*
X151419303Y-135133879D01*
X151419208Y-135204132D01*
X151419208Y-135412179D01*
X151280891Y-135412179D01*
X151280891Y-134808614D01*
X151350050Y-134808614D01*
X151391572Y-134810256D01*
X151412994Y-134816087D01*
X151419205Y-134827461D01*
X151419208Y-134827798D01*
X151422090Y-134838938D01*
X151434801Y-134837674D01*
X151460074Y-134825434D01*
X151517395Y-134807424D01*
X151582963Y-134805421D01*
X151645988Y-134819002D01*
G36*
X154199460Y-134808030D02*
X154242711Y-134821245D01*
X154270558Y-134837941D01*
X154279629Y-134851145D01*
X154277132Y-134866797D01*
X154260931Y-134891385D01*
X154247232Y-134908800D01*
X154218992Y-134940283D01*
X154197775Y-134953529D01*
X154179688Y-134952664D01*
X154126035Y-134939010D01*
X154086630Y-134939630D01*
X154054632Y-134955104D01*
X154043890Y-134964161D01*
X154009505Y-134996027D01*
X154009505Y-135412179D01*
X153871188Y-135412179D01*
X153871188Y-134808614D01*
X153940347Y-134808614D01*
X153981869Y-134810256D01*
X154003291Y-134816087D01*
X154009502Y-134827461D01*
X154009505Y-134827798D01*
X154012439Y-134839713D01*
X154025704Y-134838159D01*
X154044084Y-134829563D01*
X154082046Y-134813568D01*
X154112872Y-134803945D01*
X154152536Y-134801478D01*
X154199460Y-134808030D01*
X154199460Y-134808030D01*
G37*
X154199460Y-134808030D02*
X154242711Y-134821245D01*
X154270558Y-134837941D01*
X154279629Y-134851145D01*
X154277132Y-134866797D01*
X154260931Y-134891385D01*
X154247232Y-134908800D01*
X154218992Y-134940283D01*
X154197775Y-134953529D01*
X154179688Y-134952664D01*
X154126035Y-134939010D01*
X154086630Y-134939630D01*
X154054632Y-134955104D01*
X154043890Y-134964161D01*
X154009505Y-134996027D01*
X154009505Y-135412179D01*
X153871188Y-135412179D01*
X153871188Y-134808614D01*
X153940347Y-134808614D01*
X153981869Y-134810256D01*
X154003291Y-134816087D01*
X154009502Y-134827461D01*
X154009505Y-134827798D01*
X154012439Y-134839713D01*
X154025704Y-134838159D01*
X154044084Y-134829563D01*
X154082046Y-134813568D01*
X154112872Y-134803945D01*
X154152536Y-134801478D01*
X154199460Y-134808030D01*
G36*
X152776964Y-130640018D02*
X152833812Y-130941570D01*
X153253338Y-131114512D01*
X153504984Y-130943395D01*
X153575458Y-130895750D01*
X153639163Y-130853210D01*
X153693126Y-130817715D01*
X153734373Y-130791210D01*
X153759934Y-130775636D01*
X153766895Y-130772278D01*
X153779435Y-130780914D01*
X153806231Y-130804792D01*
X153844280Y-130840859D01*
X153890579Y-130886067D01*
X153942123Y-130937364D01*
X153995909Y-130991701D01*
X154048935Y-131046028D01*
X154098195Y-131097295D01*
X154140687Y-131142451D01*
X154173407Y-131178446D01*
X154193351Y-131202230D01*
X154198119Y-131210190D01*
X154191257Y-131224865D01*
X154172020Y-131257014D01*
X154142430Y-131303492D01*
X154104510Y-131361156D01*
X154060282Y-131426860D01*
X154034654Y-131464336D01*
X153987941Y-131532768D01*
X153946432Y-131594520D01*
X153912140Y-131646519D01*
X153887080Y-131685692D01*
X153873264Y-131708965D01*
X153871188Y-131713855D01*
X153875895Y-131727755D01*
X153888723Y-131760150D01*
X153907738Y-131806485D01*
X153931003Y-131862206D01*
X153956584Y-131922758D01*
X153982545Y-131983586D01*
X154006950Y-132040136D01*
X154027863Y-132087852D01*
X154043349Y-132122181D01*
X154051472Y-132138568D01*
X154051952Y-132139212D01*
X154064707Y-132142341D01*
X154098677Y-132149321D01*
X154150340Y-132159467D01*
X154216176Y-132172092D01*
X154292664Y-132186509D01*
X154337290Y-132194823D01*
X154419021Y-132210384D01*
X154492843Y-132225192D01*
X154555021Y-132238436D01*
X154601822Y-132249305D01*
X154629509Y-132256989D01*
X154635074Y-132259427D01*
X154640526Y-132275930D01*
X154644924Y-132313200D01*
X154648272Y-132366880D01*
X154650574Y-132432612D01*
X154651832Y-132506037D01*
X154652048Y-132582796D01*
X154651227Y-132658532D01*
X154649371Y-132728886D01*
X154646482Y-132789500D01*
X154642565Y-132836016D01*
X154637622Y-132864075D01*
X154634657Y-132869916D01*
X154616934Y-132876917D01*
X154579381Y-132886927D01*
X154526964Y-132898769D01*
X154464652Y-132911267D01*
X154442900Y-132915310D01*
X154338024Y-132934520D01*
X154255180Y-132949991D01*
X154191630Y-132962337D01*
X154144637Y-132972173D01*
X154111463Y-132980114D01*
X154089371Y-132986776D01*
X154075624Y-132992773D01*
X154067484Y-132998719D01*
X154066345Y-132999894D01*
X154054977Y-133018826D01*
X154037635Y-133055669D01*
X154016050Y-133105913D01*
X153991954Y-133165046D01*
X153967079Y-133228556D01*
X153943157Y-133291932D01*
X153921919Y-133350662D01*
X153905097Y-133400235D01*
X153894422Y-133436139D01*
X153891627Y-133453862D01*
X153891860Y-133454483D01*
X153901331Y-133468970D01*
X153922818Y-133500844D01*
X153954063Y-133546789D01*
X153992807Y-133603485D01*
X154036793Y-133667617D01*
X154049319Y-133685842D01*
X154093984Y-133751914D01*
X154133288Y-133812200D01*
X154165088Y-133863235D01*
X154187245Y-133901560D01*
X154197617Y-133923711D01*
X154198119Y-133926432D01*
X154189405Y-133940736D01*
X154165325Y-133969072D01*
X154128976Y-134008396D01*
X154083453Y-134055661D01*
X154031852Y-134107823D01*
X153977267Y-134161835D01*
X153922794Y-134214653D01*
X153871529Y-134263231D01*
X153826567Y-134304523D01*
X153791004Y-134335485D01*
X153767935Y-134353070D01*
X153761554Y-134355941D01*
X153746699Y-134349178D01*
X153716286Y-134330939D01*
X153675268Y-134304297D01*
X153643709Y-134282852D01*
X153586525Y-134243503D01*
X153518806Y-134197171D01*
X153450880Y-134150913D01*
X153414361Y-134126155D01*
X153290752Y-134042547D01*
X153186991Y-134098650D01*
X153139720Y-134123228D01*
X153099523Y-134142331D01*
X153072326Y-134153227D01*
X153065402Y-134154743D01*
X153057077Y-134143549D01*
X153040654Y-134111917D01*
X153017357Y-134062765D01*
X152988414Y-133999010D01*
X152955050Y-133923571D01*
X152918491Y-133839364D01*
X152879964Y-133749308D01*
X152840694Y-133656321D01*
X152801908Y-133563320D01*
X152764830Y-133473223D01*
X152730689Y-133388948D01*
X152700708Y-133313413D01*
X152676116Y-133249534D01*
X152658136Y-133200231D01*
X152647997Y-133168421D01*
X152646366Y-133157496D01*
X152659291Y-133143561D01*
X152687589Y-133120940D01*
X152725346Y-133094333D01*
X152728515Y-133092228D01*
X152826100Y-133014114D01*
X152904786Y-132922982D01*
X152963891Y-132821745D01*
X153002732Y-132713318D01*
X153020628Y-132600614D01*
X153016897Y-132486548D01*
X152990857Y-132374034D01*
X152941825Y-132265985D01*
X152927400Y-132242345D01*
X152852369Y-132146887D01*
X152763730Y-132070232D01*
X152664549Y-132012780D01*
X152557895Y-131974929D01*
X152446836Y-131957078D01*
X152334439Y-131959625D01*
X152223773Y-131982970D01*
X152117906Y-132027510D01*
X152019905Y-132093645D01*
X151989590Y-132120487D01*
X151912438Y-132204512D01*
X151856218Y-132292966D01*
X151817653Y-132392115D01*
X151796174Y-132490303D01*
X151790872Y-132600697D01*
X151808552Y-132711640D01*
X151847419Y-132819381D01*
X151905677Y-132920169D01*
X151981531Y-133010256D01*
X152073183Y-133085892D01*
X152085228Y-133093864D01*
X152123389Y-133119974D01*
X152152399Y-133142595D01*
X152166268Y-133157039D01*
X152166469Y-133157496D01*
X152163492Y-133173121D01*
X152151689Y-133208582D01*
X152132286Y-133260962D01*
X152106512Y-133327345D01*
X152075591Y-133404814D01*
X152040751Y-133490450D01*
X152003217Y-133581337D01*
X151964217Y-133674559D01*
X151924977Y-133767197D01*
X151886724Y-133856335D01*
X151850683Y-133939055D01*
X151818083Y-134012441D01*
X151790148Y-134073575D01*
X151768105Y-134119541D01*
X151753182Y-134147421D01*
X151747172Y-134154743D01*
X151728809Y-134149041D01*
X151694448Y-134133749D01*
X151650016Y-134111599D01*
X151625583Y-134098650D01*
X151521822Y-134042547D01*
X151398213Y-134126155D01*
X151335114Y-134168987D01*
X151266030Y-134216122D01*
X151201293Y-134260503D01*
X151168866Y-134282852D01*
X151123259Y-134313477D01*
X151084640Y-134337747D01*
X151058048Y-134352587D01*
X151049410Y-134355724D01*
X151036839Y-134347261D01*
X151009016Y-134323636D01*
X150968639Y-134287302D01*
X150918405Y-134240711D01*
X150861012Y-134186317D01*
X150824714Y-134151392D01*
X150761210Y-134088996D01*
X150706327Y-134033188D01*
X150662286Y-133986354D01*
X150631305Y-133950882D01*
X150615602Y-133929161D01*
X150614095Y-133924752D01*
X150621086Y-133907985D01*
X150640406Y-133874082D01*
X150669909Y-133826476D01*
X150707455Y-133768599D01*
X150750900Y-133703884D01*
X150763255Y-133685842D01*
X150808273Y-133620267D01*
X150848660Y-133561228D01*
X150882160Y-133512042D01*
X150906514Y-133476028D01*
X150919464Y-133456502D01*
X150920715Y-133454483D01*
X150918844Y-133438922D01*
X150908913Y-133404709D01*
X150892653Y-133356355D01*
X150871795Y-133298371D01*
X150848073Y-133235270D01*
X150823216Y-133171563D01*
X150798958Y-133111761D01*
X150777029Y-133060376D01*
X150759162Y-133021919D01*
X150747087Y-133000902D01*
X150746229Y-132999894D01*
X150738846Y-132993888D01*
X150726375Y-132987948D01*
X150706080Y-132981460D01*
X150675222Y-132973809D01*
X150631066Y-132964380D01*
X150570874Y-132952559D01*
X150491907Y-132937729D01*
X150391430Y-132919277D01*
X150369675Y-132915310D01*
X150305198Y-132902853D01*
X150248989Y-132890666D01*
X150206013Y-132879926D01*
X150181240Y-132871809D01*
X150177918Y-132869916D01*
X150172444Y-132853138D01*
X150167994Y-132815645D01*
X150164572Y-132761794D01*
X150162181Y-132695944D01*
X150160823Y-132622453D01*
X150160501Y-132545680D01*
X150161219Y-132469983D01*
X150162979Y-132399720D01*
X150165784Y-132339250D01*
X150169638Y-132292930D01*
X150174543Y-132265119D01*
X150177500Y-132259427D01*
X150193963Y-132253686D01*
X150231449Y-132244345D01*
X150286225Y-132232215D01*
X150354555Y-132218107D01*
X150432706Y-132202830D01*
X150475284Y-132194823D01*
X150556071Y-132179721D01*
X150628113Y-132166040D01*
X150687889Y-132154467D01*
X150731879Y-132145687D01*
X150756561Y-132140387D01*
X150760623Y-132139212D01*
X150767489Y-132125965D01*
X150782002Y-132094057D01*
X150802229Y-132048047D01*
X150826234Y-131992492D01*
X150852082Y-131931953D01*
X150877840Y-131870986D01*
X150901573Y-131814151D01*
X150921346Y-131766006D01*
X150935224Y-131731110D01*
X150941274Y-131714021D01*
X150941386Y-131713274D01*
X150934528Y-131699793D01*
X150915302Y-131668770D01*
X150885728Y-131623289D01*
X150847827Y-131566432D01*
X150803620Y-131501283D01*
X150777921Y-131463862D01*
X150731093Y-131395247D01*
X150689501Y-131332952D01*
X150655175Y-131280129D01*
X150630143Y-131239927D01*
X150616435Y-131215500D01*
X150614456Y-131210024D01*
X150622966Y-131197278D01*
X150646493Y-131170063D01*
X150682032Y-131131428D01*
X150726577Y-131084423D01*
X150777123Y-131032095D01*
X150830664Y-130977495D01*
X150884195Y-130923670D01*
X150934711Y-130873670D01*
X150979206Y-130830543D01*
X151014675Y-130797339D01*
X151038113Y-130777106D01*
X151045954Y-130772278D01*
X151058720Y-130779067D01*
X151089256Y-130798142D01*
X151134590Y-130827561D01*
X151191756Y-130865381D01*
X151257784Y-130909661D01*
X151307590Y-130943395D01*
X151559236Y-131114512D01*
X151768999Y-131028041D01*
X151978763Y-130941570D01*
X152035611Y-130640018D01*
X152092460Y-130338466D01*
X152720115Y-130338466D01*
X152776964Y-130640018D01*
X152776964Y-130640018D01*
G37*
X152776964Y-130640018D02*
X152833812Y-130941570D01*
X153253338Y-131114512D01*
X153504984Y-130943395D01*
X153575458Y-130895750D01*
X153639163Y-130853210D01*
X153693126Y-130817715D01*
X153734373Y-130791210D01*
X153759934Y-130775636D01*
X153766895Y-130772278D01*
X153779435Y-130780914D01*
X153806231Y-130804792D01*
X153844280Y-130840859D01*
X153890579Y-130886067D01*
X153942123Y-130937364D01*
X153995909Y-130991701D01*
X154048935Y-131046028D01*
X154098195Y-131097295D01*
X154140687Y-131142451D01*
X154173407Y-131178446D01*
X154193351Y-131202230D01*
X154198119Y-131210190D01*
X154191257Y-131224865D01*
X154172020Y-131257014D01*
X154142430Y-131303492D01*
X154104510Y-131361156D01*
X154060282Y-131426860D01*
X154034654Y-131464336D01*
X153987941Y-131532768D01*
X153946432Y-131594520D01*
X153912140Y-131646519D01*
X153887080Y-131685692D01*
X153873264Y-131708965D01*
X153871188Y-131713855D01*
X153875895Y-131727755D01*
X153888723Y-131760150D01*
X153907738Y-131806485D01*
X153931003Y-131862206D01*
X153956584Y-131922758D01*
X153982545Y-131983586D01*
X154006950Y-132040136D01*
X154027863Y-132087852D01*
X154043349Y-132122181D01*
X154051472Y-132138568D01*
X154051952Y-132139212D01*
X154064707Y-132142341D01*
X154098677Y-132149321D01*
X154150340Y-132159467D01*
X154216176Y-132172092D01*
X154292664Y-132186509D01*
X154337290Y-132194823D01*
X154419021Y-132210384D01*
X154492843Y-132225192D01*
X154555021Y-132238436D01*
X154601822Y-132249305D01*
X154629509Y-132256989D01*
X154635074Y-132259427D01*
X154640526Y-132275930D01*
X154644924Y-132313200D01*
X154648272Y-132366880D01*
X154650574Y-132432612D01*
X154651832Y-132506037D01*
X154652048Y-132582796D01*
X154651227Y-132658532D01*
X154649371Y-132728886D01*
X154646482Y-132789500D01*
X154642565Y-132836016D01*
X154637622Y-132864075D01*
X154634657Y-132869916D01*
X154616934Y-132876917D01*
X154579381Y-132886927D01*
X154526964Y-132898769D01*
X154464652Y-132911267D01*
X154442900Y-132915310D01*
X154338024Y-132934520D01*
X154255180Y-132949991D01*
X154191630Y-132962337D01*
X154144637Y-132972173D01*
X154111463Y-132980114D01*
X154089371Y-132986776D01*
X154075624Y-132992773D01*
X154067484Y-132998719D01*
X154066345Y-132999894D01*
X154054977Y-133018826D01*
X154037635Y-133055669D01*
X154016050Y-133105913D01*
X153991954Y-133165046D01*
X153967079Y-133228556D01*
X153943157Y-133291932D01*
X153921919Y-133350662D01*
X153905097Y-133400235D01*
X153894422Y-133436139D01*
X153891627Y-133453862D01*
X153891860Y-133454483D01*
X153901331Y-133468970D01*
X153922818Y-133500844D01*
X153954063Y-133546789D01*
X153992807Y-133603485D01*
X154036793Y-133667617D01*
X154049319Y-133685842D01*
X154093984Y-133751914D01*
X154133288Y-133812200D01*
X154165088Y-133863235D01*
X154187245Y-133901560D01*
X154197617Y-133923711D01*
X154198119Y-133926432D01*
X154189405Y-133940736D01*
X154165325Y-133969072D01*
X154128976Y-134008396D01*
X154083453Y-134055661D01*
X154031852Y-134107823D01*
X153977267Y-134161835D01*
X153922794Y-134214653D01*
X153871529Y-134263231D01*
X153826567Y-134304523D01*
X153791004Y-134335485D01*
X153767935Y-134353070D01*
X153761554Y-134355941D01*
X153746699Y-134349178D01*
X153716286Y-134330939D01*
X153675268Y-134304297D01*
X153643709Y-134282852D01*
X153586525Y-134243503D01*
X153518806Y-134197171D01*
X153450880Y-134150913D01*
X153414361Y-134126155D01*
X153290752Y-134042547D01*
X153186991Y-134098650D01*
X153139720Y-134123228D01*
X153099523Y-134142331D01*
X153072326Y-134153227D01*
X153065402Y-134154743D01*
X153057077Y-134143549D01*
X153040654Y-134111917D01*
X153017357Y-134062765D01*
X152988414Y-133999010D01*
X152955050Y-133923571D01*
X152918491Y-133839364D01*
X152879964Y-133749308D01*
X152840694Y-133656321D01*
X152801908Y-133563320D01*
X152764830Y-133473223D01*
X152730689Y-133388948D01*
X152700708Y-133313413D01*
X152676116Y-133249534D01*
X152658136Y-133200231D01*
X152647997Y-133168421D01*
X152646366Y-133157496D01*
X152659291Y-133143561D01*
X152687589Y-133120940D01*
X152725346Y-133094333D01*
X152728515Y-133092228D01*
X152826100Y-133014114D01*
X152904786Y-132922982D01*
X152963891Y-132821745D01*
X153002732Y-132713318D01*
X153020628Y-132600614D01*
X153016897Y-132486548D01*
X152990857Y-132374034D01*
X152941825Y-132265985D01*
X152927400Y-132242345D01*
X152852369Y-132146887D01*
X152763730Y-132070232D01*
X152664549Y-132012780D01*
X152557895Y-131974929D01*
X152446836Y-131957078D01*
X152334439Y-131959625D01*
X152223773Y-131982970D01*
X152117906Y-132027510D01*
X152019905Y-132093645D01*
X151989590Y-132120487D01*
X151912438Y-132204512D01*
X151856218Y-132292966D01*
X151817653Y-132392115D01*
X151796174Y-132490303D01*
X151790872Y-132600697D01*
X151808552Y-132711640D01*
X151847419Y-132819381D01*
X151905677Y-132920169D01*
X151981531Y-133010256D01*
X152073183Y-133085892D01*
X152085228Y-133093864D01*
X152123389Y-133119974D01*
X152152399Y-133142595D01*
X152166268Y-133157039D01*
X152166469Y-133157496D01*
X152163492Y-133173121D01*
X152151689Y-133208582D01*
X152132286Y-133260962D01*
X152106512Y-133327345D01*
X152075591Y-133404814D01*
X152040751Y-133490450D01*
X152003217Y-133581337D01*
X151964217Y-133674559D01*
X151924977Y-133767197D01*
X151886724Y-133856335D01*
X151850683Y-133939055D01*
X151818083Y-134012441D01*
X151790148Y-134073575D01*
X151768105Y-134119541D01*
X151753182Y-134147421D01*
X151747172Y-134154743D01*
X151728809Y-134149041D01*
X151694448Y-134133749D01*
X151650016Y-134111599D01*
X151625583Y-134098650D01*
X151521822Y-134042547D01*
X151398213Y-134126155D01*
X151335114Y-134168987D01*
X151266030Y-134216122D01*
X151201293Y-134260503D01*
X151168866Y-134282852D01*
X151123259Y-134313477D01*
X151084640Y-134337747D01*
X151058048Y-134352587D01*
X151049410Y-134355724D01*
X151036839Y-134347261D01*
X151009016Y-134323636D01*
X150968639Y-134287302D01*
X150918405Y-134240711D01*
X150861012Y-134186317D01*
X150824714Y-134151392D01*
X150761210Y-134088996D01*
X150706327Y-134033188D01*
X150662286Y-133986354D01*
X150631305Y-133950882D01*
X150615602Y-133929161D01*
X150614095Y-133924752D01*
X150621086Y-133907985D01*
X150640406Y-133874082D01*
X150669909Y-133826476D01*
X150707455Y-133768599D01*
X150750900Y-133703884D01*
X150763255Y-133685842D01*
X150808273Y-133620267D01*
X150848660Y-133561228D01*
X150882160Y-133512042D01*
X150906514Y-133476028D01*
X150919464Y-133456502D01*
X150920715Y-133454483D01*
X150918844Y-133438922D01*
X150908913Y-133404709D01*
X150892653Y-133356355D01*
X150871795Y-133298371D01*
X150848073Y-133235270D01*
X150823216Y-133171563D01*
X150798958Y-133111761D01*
X150777029Y-133060376D01*
X150759162Y-133021919D01*
X150747087Y-133000902D01*
X150746229Y-132999894D01*
X150738846Y-132993888D01*
X150726375Y-132987948D01*
X150706080Y-132981460D01*
X150675222Y-132973809D01*
X150631066Y-132964380D01*
X150570874Y-132952559D01*
X150491907Y-132937729D01*
X150391430Y-132919277D01*
X150369675Y-132915310D01*
X150305198Y-132902853D01*
X150248989Y-132890666D01*
X150206013Y-132879926D01*
X150181240Y-132871809D01*
X150177918Y-132869916D01*
X150172444Y-132853138D01*
X150167994Y-132815645D01*
X150164572Y-132761794D01*
X150162181Y-132695944D01*
X150160823Y-132622453D01*
X150160501Y-132545680D01*
X150161219Y-132469983D01*
X150162979Y-132399720D01*
X150165784Y-132339250D01*
X150169638Y-132292930D01*
X150174543Y-132265119D01*
X150177500Y-132259427D01*
X150193963Y-132253686D01*
X150231449Y-132244345D01*
X150286225Y-132232215D01*
X150354555Y-132218107D01*
X150432706Y-132202830D01*
X150475284Y-132194823D01*
X150556071Y-132179721D01*
X150628113Y-132166040D01*
X150687889Y-132154467D01*
X150731879Y-132145687D01*
X150756561Y-132140387D01*
X150760623Y-132139212D01*
X150767489Y-132125965D01*
X150782002Y-132094057D01*
X150802229Y-132048047D01*
X150826234Y-131992492D01*
X150852082Y-131931953D01*
X150877840Y-131870986D01*
X150901573Y-131814151D01*
X150921346Y-131766006D01*
X150935224Y-131731110D01*
X150941274Y-131714021D01*
X150941386Y-131713274D01*
X150934528Y-131699793D01*
X150915302Y-131668770D01*
X150885728Y-131623289D01*
X150847827Y-131566432D01*
X150803620Y-131501283D01*
X150777921Y-131463862D01*
X150731093Y-131395247D01*
X150689501Y-131332952D01*
X150655175Y-131280129D01*
X150630143Y-131239927D01*
X150616435Y-131215500D01*
X150614456Y-131210024D01*
X150622966Y-131197278D01*
X150646493Y-131170063D01*
X150682032Y-131131428D01*
X150726577Y-131084423D01*
X150777123Y-131032095D01*
X150830664Y-130977495D01*
X150884195Y-130923670D01*
X150934711Y-130873670D01*
X150979206Y-130830543D01*
X151014675Y-130797339D01*
X151038113Y-130777106D01*
X151045954Y-130772278D01*
X151058720Y-130779067D01*
X151089256Y-130798142D01*
X151134590Y-130827561D01*
X151191756Y-130865381D01*
X151257784Y-130909661D01*
X151307590Y-130943395D01*
X151559236Y-131114512D01*
X151768999Y-131028041D01*
X151978763Y-130941570D01*
X152035611Y-130640018D01*
X152092460Y-130338466D01*
X152720115Y-130338466D01*
X152776964Y-130640018D01*
D13*
X146097667Y-67778381D02*
X146097667Y-68492667D01*
X146050047Y-68635524D01*
X145954809Y-68730762D01*
X145811952Y-68778381D01*
X145716714Y-68778381D01*
X147097667Y-68778381D02*
X146526238Y-68778381D01*
X146811952Y-68778381D02*
X146811952Y-67778381D01*
X146716714Y-67921238D01*
X146621476Y-68016476D01*
X146526238Y-68064095D01*
X146097667Y-80478381D02*
X146097667Y-81192667D01*
X146050047Y-81335524D01*
X145954809Y-81430762D01*
X145811952Y-81478381D01*
X145716714Y-81478381D01*
X146526238Y-80573619D02*
X146573857Y-80526000D01*
X146669095Y-80478381D01*
X146907191Y-80478381D01*
X147002429Y-80526000D01*
X147050048Y-80573619D01*
X147097667Y-80668857D01*
X147097667Y-80764095D01*
X147050048Y-80906952D01*
X146478619Y-81478381D01*
X147097667Y-81478381D01*
X146097667Y-93178381D02*
X146097667Y-93892667D01*
X146050047Y-94035524D01*
X145954809Y-94130762D01*
X145811952Y-94178381D01*
X145716714Y-94178381D01*
X146478619Y-93178381D02*
X147097667Y-93178381D01*
X146764333Y-93559333D01*
X146907191Y-93559333D01*
X147002429Y-93606952D01*
X147050048Y-93654571D01*
X147097667Y-93749810D01*
X147097667Y-93987905D01*
X147050048Y-94083143D01*
X147002429Y-94130762D01*
X146907191Y-94178381D01*
X146621476Y-94178381D01*
X146526238Y-94130762D01*
X146478619Y-94083143D01*
X146097667Y-105878381D02*
X146097667Y-106592667D01*
X146050047Y-106735524D01*
X145954809Y-106830762D01*
X145811952Y-106878381D01*
X145716714Y-106878381D01*
X147002429Y-106211714D02*
X147002429Y-106878381D01*
X146764333Y-105830762D02*
X146526238Y-106545048D01*
X147145286Y-106545048D01*
X146097667Y-118578381D02*
X146097667Y-119292667D01*
X146050047Y-119435524D01*
X145954809Y-119530762D01*
X145811952Y-119578381D01*
X145716714Y-119578381D01*
X147050048Y-118578381D02*
X146573857Y-118578381D01*
X146526238Y-119054571D01*
X146573857Y-119006952D01*
X146669095Y-118959333D01*
X146907191Y-118959333D01*
X147002429Y-119006952D01*
X147050048Y-119054571D01*
X147097667Y-119149810D01*
X147097667Y-119387905D01*
X147050048Y-119483143D01*
X147002429Y-119530762D01*
X146907191Y-119578381D01*
X146669095Y-119578381D01*
X146573857Y-119530762D01*
X146526238Y-119483143D01*
X146097667Y-131278381D02*
X146097667Y-131992667D01*
X146050047Y-132135524D01*
X145954809Y-132230762D01*
X145811952Y-132278381D01*
X145716714Y-132278381D01*
X147002429Y-131278381D02*
X146811952Y-131278381D01*
X146716714Y-131326000D01*
X146669095Y-131373619D01*
X146573857Y-131516476D01*
X146526238Y-131706952D01*
X146526238Y-132087905D01*
X146573857Y-132183143D01*
X146621476Y-132230762D01*
X146716714Y-132278381D01*
X146907191Y-132278381D01*
X147002429Y-132230762D01*
X147050048Y-132183143D01*
X147097667Y-132087905D01*
X147097667Y-131849810D01*
X147050048Y-131754571D01*
X147002429Y-131706952D01*
X146907191Y-131659333D01*
X146716714Y-131659333D01*
X146621476Y-131706952D01*
X146573857Y-131754571D01*
X146526238Y-131849810D01*
X122475667Y-55586381D02*
X122475667Y-56300667D01*
X122428047Y-56443524D01*
X122332809Y-56538762D01*
X122189952Y-56586381D01*
X122094714Y-56586381D01*
X122856619Y-55586381D02*
X123523286Y-55586381D01*
X123094714Y-56586381D01*
X122475667Y-68286381D02*
X122475667Y-69000667D01*
X122428047Y-69143524D01*
X122332809Y-69238762D01*
X122189952Y-69286381D01*
X122094714Y-69286381D01*
X123094714Y-68714952D02*
X122999476Y-68667333D01*
X122951857Y-68619714D01*
X122904238Y-68524476D01*
X122904238Y-68476857D01*
X122951857Y-68381619D01*
X122999476Y-68334000D01*
X123094714Y-68286381D01*
X123285191Y-68286381D01*
X123380429Y-68334000D01*
X123428048Y-68381619D01*
X123475667Y-68476857D01*
X123475667Y-68524476D01*
X123428048Y-68619714D01*
X123380429Y-68667333D01*
X123285191Y-68714952D01*
X123094714Y-68714952D01*
X122999476Y-68762571D01*
X122951857Y-68810190D01*
X122904238Y-68905429D01*
X122904238Y-69095905D01*
X122951857Y-69191143D01*
X122999476Y-69238762D01*
X123094714Y-69286381D01*
X123285191Y-69286381D01*
X123380429Y-69238762D01*
X123428048Y-69191143D01*
X123475667Y-69095905D01*
X123475667Y-68905429D01*
X123428048Y-68810190D01*
X123380429Y-68762571D01*
X123285191Y-68714952D01*
X122475667Y-80986381D02*
X122475667Y-81700667D01*
X122428047Y-81843524D01*
X122332809Y-81938762D01*
X122189952Y-81986381D01*
X122094714Y-81986381D01*
X122999476Y-81986381D02*
X123189952Y-81986381D01*
X123285191Y-81938762D01*
X123332810Y-81891143D01*
X123428048Y-81748286D01*
X123475667Y-81557810D01*
X123475667Y-81176857D01*
X123428048Y-81081619D01*
X123380429Y-81034000D01*
X123285191Y-80986381D01*
X123094714Y-80986381D01*
X122999476Y-81034000D01*
X122951857Y-81081619D01*
X122904238Y-81176857D01*
X122904238Y-81414952D01*
X122951857Y-81510190D01*
X122999476Y-81557810D01*
X123094714Y-81605429D01*
X123285191Y-81605429D01*
X123380429Y-81557810D01*
X123428048Y-81510190D01*
X123475667Y-81414952D01*
X121999477Y-93686381D02*
X121999477Y-94400667D01*
X121951857Y-94543524D01*
X121856619Y-94638762D01*
X121713762Y-94686381D01*
X121618524Y-94686381D01*
X122999477Y-94686381D02*
X122428048Y-94686381D01*
X122713762Y-94686381D02*
X122713762Y-93686381D01*
X122618524Y-93829238D01*
X122523286Y-93924476D01*
X122428048Y-93972095D01*
X123618524Y-93686381D02*
X123713763Y-93686381D01*
X123809001Y-93734000D01*
X123856620Y-93781619D01*
X123904239Y-93876857D01*
X123951858Y-94067333D01*
X123951858Y-94305429D01*
X123904239Y-94495905D01*
X123856620Y-94591143D01*
X123809001Y-94638762D01*
X123713763Y-94686381D01*
X123618524Y-94686381D01*
X123523286Y-94638762D01*
X123475667Y-94591143D01*
X123428048Y-94495905D01*
X123380429Y-94305429D01*
X123380429Y-94067333D01*
X123428048Y-93876857D01*
X123475667Y-93781619D01*
X123523286Y-93734000D01*
X123618524Y-93686381D01*
X121999477Y-106386381D02*
X121999477Y-107100667D01*
X121951857Y-107243524D01*
X121856619Y-107338762D01*
X121713762Y-107386381D01*
X121618524Y-107386381D01*
X122999477Y-107386381D02*
X122428048Y-107386381D01*
X122713762Y-107386381D02*
X122713762Y-106386381D01*
X122618524Y-106529238D01*
X122523286Y-106624476D01*
X122428048Y-106672095D01*
X123951858Y-107386381D02*
X123380429Y-107386381D01*
X123666143Y-107386381D02*
X123666143Y-106386381D01*
X123570905Y-106529238D01*
X123475667Y-106624476D01*
X123380429Y-106672095D01*
X121999477Y-119086381D02*
X121999477Y-119800667D01*
X121951857Y-119943524D01*
X121856619Y-120038762D01*
X121713762Y-120086381D01*
X121618524Y-120086381D01*
X122999477Y-120086381D02*
X122428048Y-120086381D01*
X122713762Y-120086381D02*
X122713762Y-119086381D01*
X122618524Y-119229238D01*
X122523286Y-119324476D01*
X122428048Y-119372095D01*
X123380429Y-119181619D02*
X123428048Y-119134000D01*
X123523286Y-119086381D01*
X123761382Y-119086381D01*
X123856620Y-119134000D01*
X123904239Y-119181619D01*
X123951858Y-119276857D01*
X123951858Y-119372095D01*
X123904239Y-119514952D01*
X123332810Y-120086381D01*
X123951858Y-120086381D01*
M02*
