G04 #@! TF.FileFunction,Soldermask,Bot*
%FSLAX46Y46*%
G04 Gerber Fmt 4.6, Leading zero omitted, Abs format (unit mm)*
G04 Created by KiCad (PCBNEW 4.0.7-e2-6376~58~ubuntu16.04.1) date Mon Sep 11 23:35:24 2017*
%MOMM*%
%LPD*%
G01*
G04 APERTURE LIST*
%ADD10C,0.100000*%
%ADD11C,6.000000*%
%ADD12C,6.000000*%
G04 APERTURE END LIST*
D10*
D11*
X122555000Y-109220000D02*
X133350000Y-109220000D01*
X121920000Y-58420000D02*
X133350000Y-58420000D01*
X133350000Y-58420000D02*
X133350000Y-109220000D01*
X127635000Y-109220000D02*
X127635000Y-58420000D01*
X121920000Y-58420000D02*
X121920000Y-109220000D01*
X140970000Y-117475000D02*
X140970000Y-58420000D01*
X114300000Y-117475000D02*
X140970000Y-117475000D01*
X114300000Y-58420000D02*
X114300000Y-117475000D01*
D12*
X140970000Y-58420000D03*
X133470000Y-58420000D03*
X140970000Y-68580000D03*
X133470000Y-68580000D03*
X140970000Y-78740000D03*
X133470000Y-78740000D03*
X140970000Y-88900000D03*
X133470000Y-88900000D03*
X140970000Y-99060000D03*
X133470000Y-99060000D03*
X140970000Y-109220000D03*
X133470000Y-109220000D03*
X114300000Y-58420000D03*
X121800000Y-58420000D03*
X114300000Y-68580000D03*
X121800000Y-68580000D03*
X114300000Y-78740000D03*
X121800000Y-78740000D03*
X114300000Y-88900000D03*
X121800000Y-88900000D03*
X114300000Y-99060000D03*
X121800000Y-99060000D03*
X114300000Y-109220000D03*
X121800000Y-109220000D03*
M02*
