M48
;DRILL file {KiCad 4.0.7-e2-6376~58~ubuntu16.04.1} date Mon Sep 11 21:06:21 2017
;FORMAT={-:-/ absolute / inch / decimal}
FMAT,2
INCH,TZ
T1C0.177
%
G90
G05
M72
T1
X4.6797Y-2.45
X4.6797Y-2.95
X4.6797Y-3.45
X4.6797Y-3.95
X4.6797Y-4.45
X4.6797Y-4.95
X4.975Y-2.45
X4.975Y-2.95
X4.975Y-3.45
X4.975Y-3.95
X4.975Y-4.45
X4.975Y-4.95
X5.625Y-2.45
X5.625Y-2.95
X5.625Y-3.45
X5.625Y-3.95
X5.625Y-4.45
X5.625Y-4.95
X5.9203Y-2.45
X5.9203Y-2.95
X5.9203Y-3.45
X5.9203Y-3.95
X5.9203Y-4.45
X5.9203Y-4.95
T0
M30
