G04 #@! TF.FileFunction,Legend,Top*
%FSLAX46Y46*%
G04 Gerber Fmt 4.6, Leading zero omitted, Abs format (unit mm)*
G04 Created by KiCad (PCBNEW 4.0.7-e2-6376~58~ubuntu16.04.1) date Mon Sep 11 23:35:24 2017*
%MOMM*%
%LPD*%
G01*
G04 APERTURE LIST*
%ADD10C,0.100000*%
%ADD11C,0.300000*%
%ADD12C,0.010000*%
G04 APERTURE END LIST*
D10*
D11*
X112210002Y-118558571D02*
X113210002Y-120058571D01*
X113210002Y-118558571D02*
X112210002Y-120058571D01*
X113567144Y-118558571D02*
X114424287Y-118558571D01*
X113995716Y-120058571D02*
X113995716Y-118558571D01*
X115567144Y-118558571D02*
X115281430Y-118558571D01*
X115138573Y-118630000D01*
X115067144Y-118701429D01*
X114924287Y-118915714D01*
X114852858Y-119201429D01*
X114852858Y-119772857D01*
X114924287Y-119915714D01*
X114995715Y-119987143D01*
X115138573Y-120058571D01*
X115424287Y-120058571D01*
X115567144Y-119987143D01*
X115638573Y-119915714D01*
X115710001Y-119772857D01*
X115710001Y-119415714D01*
X115638573Y-119272857D01*
X115567144Y-119201429D01*
X115424287Y-119130000D01*
X115138573Y-119130000D01*
X114995715Y-119201429D01*
X114924287Y-119272857D01*
X114852858Y-119415714D01*
X116638572Y-118558571D02*
X116781429Y-118558571D01*
X116924286Y-118630000D01*
X116995715Y-118701429D01*
X117067144Y-118844286D01*
X117138572Y-119130000D01*
X117138572Y-119487143D01*
X117067144Y-119772857D01*
X116995715Y-119915714D01*
X116924286Y-119987143D01*
X116781429Y-120058571D01*
X116638572Y-120058571D01*
X116495715Y-119987143D01*
X116424286Y-119915714D01*
X116352858Y-119772857D01*
X116281429Y-119487143D01*
X116281429Y-119130000D01*
X116352858Y-118844286D01*
X116424286Y-118701429D01*
X116495715Y-118630000D01*
X116638572Y-118558571D01*
X119424286Y-119272857D02*
X119638572Y-119344286D01*
X119710000Y-119415714D01*
X119781429Y-119558571D01*
X119781429Y-119772857D01*
X119710000Y-119915714D01*
X119638572Y-119987143D01*
X119495714Y-120058571D01*
X118924286Y-120058571D01*
X118924286Y-118558571D01*
X119424286Y-118558571D01*
X119567143Y-118630000D01*
X119638572Y-118701429D01*
X119710000Y-118844286D01*
X119710000Y-118987143D01*
X119638572Y-119130000D01*
X119567143Y-119201429D01*
X119424286Y-119272857D01*
X118924286Y-119272857D01*
X120638572Y-120058571D02*
X120495714Y-119987143D01*
X120424286Y-119915714D01*
X120352857Y-119772857D01*
X120352857Y-119344286D01*
X120424286Y-119201429D01*
X120495714Y-119130000D01*
X120638572Y-119058571D01*
X120852857Y-119058571D01*
X120995714Y-119130000D01*
X121067143Y-119201429D01*
X121138572Y-119344286D01*
X121138572Y-119772857D01*
X121067143Y-119915714D01*
X120995714Y-119987143D01*
X120852857Y-120058571D01*
X120638572Y-120058571D01*
X122424286Y-120058571D02*
X122424286Y-119272857D01*
X122352857Y-119130000D01*
X122210000Y-119058571D01*
X121924286Y-119058571D01*
X121781429Y-119130000D01*
X122424286Y-119987143D02*
X122281429Y-120058571D01*
X121924286Y-120058571D01*
X121781429Y-119987143D01*
X121710000Y-119844286D01*
X121710000Y-119701429D01*
X121781429Y-119558571D01*
X121924286Y-119487143D01*
X122281429Y-119487143D01*
X122424286Y-119415714D01*
X123138572Y-120058571D02*
X123138572Y-119058571D01*
X123138572Y-119344286D02*
X123210000Y-119201429D01*
X123281429Y-119130000D01*
X123424286Y-119058571D01*
X123567143Y-119058571D01*
X124710000Y-120058571D02*
X124710000Y-118558571D01*
X124710000Y-119987143D02*
X124567143Y-120058571D01*
X124281429Y-120058571D01*
X124138571Y-119987143D01*
X124067143Y-119915714D01*
X123995714Y-119772857D01*
X123995714Y-119344286D01*
X124067143Y-119201429D01*
X124138571Y-119130000D01*
X124281429Y-119058571D01*
X124567143Y-119058571D01*
X124710000Y-119130000D01*
X126352857Y-118558571D02*
X126852857Y-120058571D01*
X127352857Y-118558571D01*
X128424285Y-119987143D02*
X128281428Y-120058571D01*
X127995714Y-120058571D01*
X127852857Y-119987143D01*
X127781428Y-119844286D01*
X127781428Y-119272857D01*
X127852857Y-119130000D01*
X127995714Y-119058571D01*
X128281428Y-119058571D01*
X128424285Y-119130000D01*
X128495714Y-119272857D01*
X128495714Y-119415714D01*
X127781428Y-119558571D01*
X129138571Y-120058571D02*
X129138571Y-119058571D01*
X129138571Y-119344286D02*
X129209999Y-119201429D01*
X129281428Y-119130000D01*
X129424285Y-119058571D01*
X129567142Y-119058571D01*
X129995713Y-119987143D02*
X130138570Y-120058571D01*
X130424285Y-120058571D01*
X130567142Y-119987143D01*
X130638570Y-119844286D01*
X130638570Y-119772857D01*
X130567142Y-119630000D01*
X130424285Y-119558571D01*
X130209999Y-119558571D01*
X130067142Y-119487143D01*
X129995713Y-119344286D01*
X129995713Y-119272857D01*
X130067142Y-119130000D01*
X130209999Y-119058571D01*
X130424285Y-119058571D01*
X130567142Y-119130000D01*
X131281428Y-120058571D02*
X131281428Y-119058571D01*
X131281428Y-118558571D02*
X131209999Y-118630000D01*
X131281428Y-118701429D01*
X131352856Y-118630000D01*
X131281428Y-118558571D01*
X131281428Y-118701429D01*
X132210000Y-120058571D02*
X132067142Y-119987143D01*
X131995714Y-119915714D01*
X131924285Y-119772857D01*
X131924285Y-119344286D01*
X131995714Y-119201429D01*
X132067142Y-119130000D01*
X132210000Y-119058571D01*
X132424285Y-119058571D01*
X132567142Y-119130000D01*
X132638571Y-119201429D01*
X132710000Y-119344286D01*
X132710000Y-119772857D01*
X132638571Y-119915714D01*
X132567142Y-119987143D01*
X132424285Y-120058571D01*
X132210000Y-120058571D01*
X133352857Y-119058571D02*
X133352857Y-120058571D01*
X133352857Y-119201429D02*
X133424285Y-119130000D01*
X133567143Y-119058571D01*
X133781428Y-119058571D01*
X133924285Y-119130000D01*
X133995714Y-119272857D01*
X133995714Y-120058571D01*
X135781428Y-118701429D02*
X135852857Y-118630000D01*
X135995714Y-118558571D01*
X136352857Y-118558571D01*
X136495714Y-118630000D01*
X136567143Y-118701429D01*
X136638571Y-118844286D01*
X136638571Y-118987143D01*
X136567143Y-119201429D01*
X135710000Y-120058571D01*
X136638571Y-120058571D01*
X114424286Y-116018571D02*
X114424286Y-117090000D01*
X114352858Y-117304286D01*
X114210001Y-117447143D01*
X113995715Y-117518571D01*
X113852858Y-117518571D01*
X115781429Y-116518571D02*
X115781429Y-117518571D01*
X115138572Y-116518571D02*
X115138572Y-117304286D01*
X115210000Y-117447143D01*
X115352858Y-117518571D01*
X115567143Y-117518571D01*
X115710000Y-117447143D01*
X115781429Y-117375714D01*
X116424286Y-117447143D02*
X116567143Y-117518571D01*
X116852858Y-117518571D01*
X116995715Y-117447143D01*
X117067143Y-117304286D01*
X117067143Y-117232857D01*
X116995715Y-117090000D01*
X116852858Y-117018571D01*
X116638572Y-117018571D01*
X116495715Y-116947143D01*
X116424286Y-116804286D01*
X116424286Y-116732857D01*
X116495715Y-116590000D01*
X116638572Y-116518571D01*
X116852858Y-116518571D01*
X116995715Y-116590000D01*
X117495715Y-116518571D02*
X118067144Y-116518571D01*
X117710001Y-116018571D02*
X117710001Y-117304286D01*
X117781429Y-117447143D01*
X117924287Y-117518571D01*
X118067144Y-117518571D01*
X118567144Y-117518571D02*
X118567144Y-116518571D01*
X118567144Y-116018571D02*
X118495715Y-116090000D01*
X118567144Y-116161429D01*
X118638572Y-116090000D01*
X118567144Y-116018571D01*
X118567144Y-116161429D01*
X119281430Y-116518571D02*
X119281430Y-117518571D01*
X119281430Y-116661429D02*
X119352858Y-116590000D01*
X119495716Y-116518571D01*
X119710001Y-116518571D01*
X119852858Y-116590000D01*
X119924287Y-116732857D01*
X119924287Y-117518571D01*
X121781430Y-116732857D02*
X122281430Y-116732857D01*
X122495716Y-117518571D02*
X121781430Y-117518571D01*
X121781430Y-116018571D01*
X122495716Y-116018571D01*
X123781430Y-117518571D02*
X123781430Y-116732857D01*
X123710001Y-116590000D01*
X123567144Y-116518571D01*
X123281430Y-116518571D01*
X123138573Y-116590000D01*
X123781430Y-117447143D02*
X123638573Y-117518571D01*
X123281430Y-117518571D01*
X123138573Y-117447143D01*
X123067144Y-117304286D01*
X123067144Y-117161429D01*
X123138573Y-117018571D01*
X123281430Y-116947143D01*
X123638573Y-116947143D01*
X123781430Y-116875714D01*
X124424287Y-117447143D02*
X124567144Y-117518571D01*
X124852859Y-117518571D01*
X124995716Y-117447143D01*
X125067144Y-117304286D01*
X125067144Y-117232857D01*
X124995716Y-117090000D01*
X124852859Y-117018571D01*
X124638573Y-117018571D01*
X124495716Y-116947143D01*
X124424287Y-116804286D01*
X124424287Y-116732857D01*
X124495716Y-116590000D01*
X124638573Y-116518571D01*
X124852859Y-116518571D01*
X124995716Y-116590000D01*
X125495716Y-116518571D02*
X126067145Y-116518571D01*
X125710002Y-116018571D02*
X125710002Y-117304286D01*
X125781430Y-117447143D01*
X125924288Y-117518571D01*
X126067145Y-117518571D01*
X127138573Y-117447143D02*
X126995716Y-117518571D01*
X126710002Y-117518571D01*
X126567145Y-117447143D01*
X126495716Y-117304286D01*
X126495716Y-116732857D01*
X126567145Y-116590000D01*
X126710002Y-116518571D01*
X126995716Y-116518571D01*
X127138573Y-116590000D01*
X127210002Y-116732857D01*
X127210002Y-116875714D01*
X126495716Y-117018571D01*
X127852859Y-117518571D02*
X127852859Y-116518571D01*
X127852859Y-116804286D02*
X127924287Y-116661429D01*
X127995716Y-116590000D01*
X128138573Y-116518571D01*
X128281430Y-116518571D01*
X129852858Y-116161429D02*
X129924287Y-116090000D01*
X130067144Y-116018571D01*
X130424287Y-116018571D01*
X130567144Y-116090000D01*
X130638573Y-116161429D01*
X130710001Y-116304286D01*
X130710001Y-116447143D01*
X130638573Y-116661429D01*
X129781430Y-117518571D01*
X130710001Y-117518571D01*
X131638572Y-116018571D02*
X131781429Y-116018571D01*
X131924286Y-116090000D01*
X131995715Y-116161429D01*
X132067144Y-116304286D01*
X132138572Y-116590000D01*
X132138572Y-116947143D01*
X132067144Y-117232857D01*
X131995715Y-117375714D01*
X131924286Y-117447143D01*
X131781429Y-117518571D01*
X131638572Y-117518571D01*
X131495715Y-117447143D01*
X131424286Y-117375714D01*
X131352858Y-117232857D01*
X131281429Y-116947143D01*
X131281429Y-116590000D01*
X131352858Y-116304286D01*
X131424286Y-116161429D01*
X131495715Y-116090000D01*
X131638572Y-116018571D01*
X133567143Y-117518571D02*
X132710000Y-117518571D01*
X133138572Y-117518571D02*
X133138572Y-116018571D01*
X132995715Y-116232857D01*
X132852857Y-116375714D01*
X132710000Y-116447143D01*
X134067143Y-116018571D02*
X135067143Y-116018571D01*
X134424286Y-117518571D01*
X125635000Y-62678571D02*
X126135000Y-64178571D01*
X126635000Y-62678571D01*
X127992143Y-64035714D02*
X127920714Y-64107143D01*
X127706428Y-64178571D01*
X127563571Y-64178571D01*
X127349286Y-64107143D01*
X127206428Y-63964286D01*
X127135000Y-63821429D01*
X127063571Y-63535714D01*
X127063571Y-63321429D01*
X127135000Y-63035714D01*
X127206428Y-62892857D01*
X127349286Y-62750000D01*
X127563571Y-62678571D01*
X127706428Y-62678571D01*
X127920714Y-62750000D01*
X127992143Y-62821429D01*
X129492143Y-64035714D02*
X129420714Y-64107143D01*
X129206428Y-64178571D01*
X129063571Y-64178571D01*
X128849286Y-64107143D01*
X128706428Y-63964286D01*
X128635000Y-63821429D01*
X128563571Y-63535714D01*
X128563571Y-63321429D01*
X128635000Y-63035714D01*
X128706428Y-62892857D01*
X128849286Y-62750000D01*
X129063571Y-62678571D01*
X129206428Y-62678571D01*
X129420714Y-62750000D01*
X129492143Y-62821429D01*
X113157143Y-62750000D02*
X113014286Y-62678571D01*
X112800000Y-62678571D01*
X112585715Y-62750000D01*
X112442857Y-62892857D01*
X112371429Y-63035714D01*
X112300000Y-63321429D01*
X112300000Y-63535714D01*
X112371429Y-63821429D01*
X112442857Y-63964286D01*
X112585715Y-64107143D01*
X112800000Y-64178571D01*
X112942857Y-64178571D01*
X113157143Y-64107143D01*
X113228572Y-64035714D01*
X113228572Y-63535714D01*
X112942857Y-63535714D01*
X113871429Y-64178571D02*
X113871429Y-62678571D01*
X114728572Y-64178571D01*
X114728572Y-62678571D01*
X115442858Y-64178571D02*
X115442858Y-62678571D01*
X115800001Y-62678571D01*
X116014286Y-62750000D01*
X116157144Y-62892857D01*
X116228572Y-63035714D01*
X116300001Y-63321429D01*
X116300001Y-63535714D01*
X116228572Y-63821429D01*
X116157144Y-63964286D01*
X116014286Y-64107143D01*
X115800001Y-64178571D01*
X115442858Y-64178571D01*
X139827143Y-62750000D02*
X139684286Y-62678571D01*
X139470000Y-62678571D01*
X139255715Y-62750000D01*
X139112857Y-62892857D01*
X139041429Y-63035714D01*
X138970000Y-63321429D01*
X138970000Y-63535714D01*
X139041429Y-63821429D01*
X139112857Y-63964286D01*
X139255715Y-64107143D01*
X139470000Y-64178571D01*
X139612857Y-64178571D01*
X139827143Y-64107143D01*
X139898572Y-64035714D01*
X139898572Y-63535714D01*
X139612857Y-63535714D01*
X140541429Y-64178571D02*
X140541429Y-62678571D01*
X141398572Y-64178571D01*
X141398572Y-62678571D01*
X142112858Y-64178571D02*
X142112858Y-62678571D01*
X142470001Y-62678571D01*
X142684286Y-62750000D01*
X142827144Y-62892857D01*
X142898572Y-63035714D01*
X142970001Y-63321429D01*
X142970001Y-63535714D01*
X142898572Y-63821429D01*
X142827144Y-63964286D01*
X142684286Y-64107143D01*
X142470001Y-64178571D01*
X142112858Y-64178571D01*
D10*
X133770000Y-54420000D02*
X129070000Y-54420000D01*
X129070000Y-54420000D02*
X129070000Y-56020000D01*
X133470000Y-62420000D02*
X129270000Y-62420000D01*
X129270000Y-62420000D02*
X129170000Y-62420000D01*
X129170000Y-62420000D02*
X129070000Y-62420000D01*
X129070000Y-62420000D02*
X129070000Y-58420000D01*
X143370000Y-54420000D02*
X145370000Y-57120000D01*
X143370000Y-62420000D02*
X145370000Y-59720000D01*
X145370000Y-58420000D02*
X145370000Y-57170000D01*
X145370000Y-58420000D02*
X145370000Y-59670000D01*
X140970000Y-54420000D02*
X143370000Y-54420000D01*
X137970000Y-54420000D02*
X140970000Y-54420000D01*
X140970000Y-62420000D02*
X143370000Y-62420000D01*
X137870000Y-62420000D02*
X140970000Y-62420000D01*
X145370000Y-58520000D02*
X145370000Y-58220000D01*
X129070000Y-58420000D02*
X129070000Y-56020000D01*
X133470000Y-62420000D02*
X137870000Y-62420000D01*
X133770000Y-54420000D02*
X137970000Y-54420000D01*
X133770000Y-64580000D02*
X129070000Y-64580000D01*
X129070000Y-64580000D02*
X129070000Y-66180000D01*
X133470000Y-72580000D02*
X129270000Y-72580000D01*
X129270000Y-72580000D02*
X129170000Y-72580000D01*
X129170000Y-72580000D02*
X129070000Y-72580000D01*
X129070000Y-72580000D02*
X129070000Y-68580000D01*
X143370000Y-64580000D02*
X145370000Y-67280000D01*
X143370000Y-72580000D02*
X145370000Y-69880000D01*
X145370000Y-68580000D02*
X145370000Y-67330000D01*
X145370000Y-68580000D02*
X145370000Y-69830000D01*
X140970000Y-64580000D02*
X143370000Y-64580000D01*
X137970000Y-64580000D02*
X140970000Y-64580000D01*
X140970000Y-72580000D02*
X143370000Y-72580000D01*
X137870000Y-72580000D02*
X140970000Y-72580000D01*
X145370000Y-68680000D02*
X145370000Y-68380000D01*
X129070000Y-68580000D02*
X129070000Y-66180000D01*
X133470000Y-72580000D02*
X137870000Y-72580000D01*
X133770000Y-64580000D02*
X137970000Y-64580000D01*
X133770000Y-74740000D02*
X129070000Y-74740000D01*
X129070000Y-74740000D02*
X129070000Y-76340000D01*
X133470000Y-82740000D02*
X129270000Y-82740000D01*
X129270000Y-82740000D02*
X129170000Y-82740000D01*
X129170000Y-82740000D02*
X129070000Y-82740000D01*
X129070000Y-82740000D02*
X129070000Y-78740000D01*
X143370000Y-74740000D02*
X145370000Y-77440000D01*
X143370000Y-82740000D02*
X145370000Y-80040000D01*
X145370000Y-78740000D02*
X145370000Y-77490000D01*
X145370000Y-78740000D02*
X145370000Y-79990000D01*
X140970000Y-74740000D02*
X143370000Y-74740000D01*
X137970000Y-74740000D02*
X140970000Y-74740000D01*
X140970000Y-82740000D02*
X143370000Y-82740000D01*
X137870000Y-82740000D02*
X140970000Y-82740000D01*
X145370000Y-78840000D02*
X145370000Y-78540000D01*
X129070000Y-78740000D02*
X129070000Y-76340000D01*
X133470000Y-82740000D02*
X137870000Y-82740000D01*
X133770000Y-74740000D02*
X137970000Y-74740000D01*
X133770000Y-84900000D02*
X129070000Y-84900000D01*
X129070000Y-84900000D02*
X129070000Y-86500000D01*
X133470000Y-92900000D02*
X129270000Y-92900000D01*
X129270000Y-92900000D02*
X129170000Y-92900000D01*
X129170000Y-92900000D02*
X129070000Y-92900000D01*
X129070000Y-92900000D02*
X129070000Y-88900000D01*
X143370000Y-84900000D02*
X145370000Y-87600000D01*
X143370000Y-92900000D02*
X145370000Y-90200000D01*
X145370000Y-88900000D02*
X145370000Y-87650000D01*
X145370000Y-88900000D02*
X145370000Y-90150000D01*
X140970000Y-84900000D02*
X143370000Y-84900000D01*
X137970000Y-84900000D02*
X140970000Y-84900000D01*
X140970000Y-92900000D02*
X143370000Y-92900000D01*
X137870000Y-92900000D02*
X140970000Y-92900000D01*
X145370000Y-89000000D02*
X145370000Y-88700000D01*
X129070000Y-88900000D02*
X129070000Y-86500000D01*
X133470000Y-92900000D02*
X137870000Y-92900000D01*
X133770000Y-84900000D02*
X137970000Y-84900000D01*
X133770000Y-95060000D02*
X129070000Y-95060000D01*
X129070000Y-95060000D02*
X129070000Y-96660000D01*
X133470000Y-103060000D02*
X129270000Y-103060000D01*
X129270000Y-103060000D02*
X129170000Y-103060000D01*
X129170000Y-103060000D02*
X129070000Y-103060000D01*
X129070000Y-103060000D02*
X129070000Y-99060000D01*
X143370000Y-95060000D02*
X145370000Y-97760000D01*
X143370000Y-103060000D02*
X145370000Y-100360000D01*
X145370000Y-99060000D02*
X145370000Y-97810000D01*
X145370000Y-99060000D02*
X145370000Y-100310000D01*
X140970000Y-95060000D02*
X143370000Y-95060000D01*
X137970000Y-95060000D02*
X140970000Y-95060000D01*
X140970000Y-103060000D02*
X143370000Y-103060000D01*
X137870000Y-103060000D02*
X140970000Y-103060000D01*
X145370000Y-99160000D02*
X145370000Y-98860000D01*
X129070000Y-99060000D02*
X129070000Y-96660000D01*
X133470000Y-103060000D02*
X137870000Y-103060000D01*
X133770000Y-95060000D02*
X137970000Y-95060000D01*
X133770000Y-105220000D02*
X129070000Y-105220000D01*
X129070000Y-105220000D02*
X129070000Y-106820000D01*
X133470000Y-113220000D02*
X129270000Y-113220000D01*
X129270000Y-113220000D02*
X129170000Y-113220000D01*
X129170000Y-113220000D02*
X129070000Y-113220000D01*
X129070000Y-113220000D02*
X129070000Y-109220000D01*
X143370000Y-105220000D02*
X145370000Y-107920000D01*
X143370000Y-113220000D02*
X145370000Y-110520000D01*
X145370000Y-109220000D02*
X145370000Y-107970000D01*
X145370000Y-109220000D02*
X145370000Y-110470000D01*
X140970000Y-105220000D02*
X143370000Y-105220000D01*
X137970000Y-105220000D02*
X140970000Y-105220000D01*
X140970000Y-113220000D02*
X143370000Y-113220000D01*
X137870000Y-113220000D02*
X140970000Y-113220000D01*
X145370000Y-109320000D02*
X145370000Y-109020000D01*
X129070000Y-109220000D02*
X129070000Y-106820000D01*
X133470000Y-113220000D02*
X137870000Y-113220000D01*
X133770000Y-105220000D02*
X137970000Y-105220000D01*
X121500000Y-62420000D02*
X126200000Y-62420000D01*
X126200000Y-62420000D02*
X126200000Y-60820000D01*
X121800000Y-54420000D02*
X126000000Y-54420000D01*
X126000000Y-54420000D02*
X126100000Y-54420000D01*
X126100000Y-54420000D02*
X126200000Y-54420000D01*
X126200000Y-54420000D02*
X126200000Y-58420000D01*
X111900000Y-62420000D02*
X109900000Y-59720000D01*
X111900000Y-54420000D02*
X109900000Y-57120000D01*
X109900000Y-58420000D02*
X109900000Y-59670000D01*
X109900000Y-58420000D02*
X109900000Y-57170000D01*
X114300000Y-62420000D02*
X111900000Y-62420000D01*
X117300000Y-62420000D02*
X114300000Y-62420000D01*
X114300000Y-54420000D02*
X111900000Y-54420000D01*
X117400000Y-54420000D02*
X114300000Y-54420000D01*
X109900000Y-58320000D02*
X109900000Y-58620000D01*
X126200000Y-58420000D02*
X126200000Y-60820000D01*
X121800000Y-54420000D02*
X117400000Y-54420000D01*
X121500000Y-62420000D02*
X117300000Y-62420000D01*
X121500000Y-72580000D02*
X126200000Y-72580000D01*
X126200000Y-72580000D02*
X126200000Y-70980000D01*
X121800000Y-64580000D02*
X126000000Y-64580000D01*
X126000000Y-64580000D02*
X126100000Y-64580000D01*
X126100000Y-64580000D02*
X126200000Y-64580000D01*
X126200000Y-64580000D02*
X126200000Y-68580000D01*
X111900000Y-72580000D02*
X109900000Y-69880000D01*
X111900000Y-64580000D02*
X109900000Y-67280000D01*
X109900000Y-68580000D02*
X109900000Y-69830000D01*
X109900000Y-68580000D02*
X109900000Y-67330000D01*
X114300000Y-72580000D02*
X111900000Y-72580000D01*
X117300000Y-72580000D02*
X114300000Y-72580000D01*
X114300000Y-64580000D02*
X111900000Y-64580000D01*
X117400000Y-64580000D02*
X114300000Y-64580000D01*
X109900000Y-68480000D02*
X109900000Y-68780000D01*
X126200000Y-68580000D02*
X126200000Y-70980000D01*
X121800000Y-64580000D02*
X117400000Y-64580000D01*
X121500000Y-72580000D02*
X117300000Y-72580000D01*
X121500000Y-82740000D02*
X126200000Y-82740000D01*
X126200000Y-82740000D02*
X126200000Y-81140000D01*
X121800000Y-74740000D02*
X126000000Y-74740000D01*
X126000000Y-74740000D02*
X126100000Y-74740000D01*
X126100000Y-74740000D02*
X126200000Y-74740000D01*
X126200000Y-74740000D02*
X126200000Y-78740000D01*
X111900000Y-82740000D02*
X109900000Y-80040000D01*
X111900000Y-74740000D02*
X109900000Y-77440000D01*
X109900000Y-78740000D02*
X109900000Y-79990000D01*
X109900000Y-78740000D02*
X109900000Y-77490000D01*
X114300000Y-82740000D02*
X111900000Y-82740000D01*
X117300000Y-82740000D02*
X114300000Y-82740000D01*
X114300000Y-74740000D02*
X111900000Y-74740000D01*
X117400000Y-74740000D02*
X114300000Y-74740000D01*
X109900000Y-78640000D02*
X109900000Y-78940000D01*
X126200000Y-78740000D02*
X126200000Y-81140000D01*
X121800000Y-74740000D02*
X117400000Y-74740000D01*
X121500000Y-82740000D02*
X117300000Y-82740000D01*
X121500000Y-92900000D02*
X126200000Y-92900000D01*
X126200000Y-92900000D02*
X126200000Y-91300000D01*
X121800000Y-84900000D02*
X126000000Y-84900000D01*
X126000000Y-84900000D02*
X126100000Y-84900000D01*
X126100000Y-84900000D02*
X126200000Y-84900000D01*
X126200000Y-84900000D02*
X126200000Y-88900000D01*
X111900000Y-92900000D02*
X109900000Y-90200000D01*
X111900000Y-84900000D02*
X109900000Y-87600000D01*
X109900000Y-88900000D02*
X109900000Y-90150000D01*
X109900000Y-88900000D02*
X109900000Y-87650000D01*
X114300000Y-92900000D02*
X111900000Y-92900000D01*
X117300000Y-92900000D02*
X114300000Y-92900000D01*
X114300000Y-84900000D02*
X111900000Y-84900000D01*
X117400000Y-84900000D02*
X114300000Y-84900000D01*
X109900000Y-88800000D02*
X109900000Y-89100000D01*
X126200000Y-88900000D02*
X126200000Y-91300000D01*
X121800000Y-84900000D02*
X117400000Y-84900000D01*
X121500000Y-92900000D02*
X117300000Y-92900000D01*
X121500000Y-103060000D02*
X126200000Y-103060000D01*
X126200000Y-103060000D02*
X126200000Y-101460000D01*
X121800000Y-95060000D02*
X126000000Y-95060000D01*
X126000000Y-95060000D02*
X126100000Y-95060000D01*
X126100000Y-95060000D02*
X126200000Y-95060000D01*
X126200000Y-95060000D02*
X126200000Y-99060000D01*
X111900000Y-103060000D02*
X109900000Y-100360000D01*
X111900000Y-95060000D02*
X109900000Y-97760000D01*
X109900000Y-99060000D02*
X109900000Y-100310000D01*
X109900000Y-99060000D02*
X109900000Y-97810000D01*
X114300000Y-103060000D02*
X111900000Y-103060000D01*
X117300000Y-103060000D02*
X114300000Y-103060000D01*
X114300000Y-95060000D02*
X111900000Y-95060000D01*
X117400000Y-95060000D02*
X114300000Y-95060000D01*
X109900000Y-98960000D02*
X109900000Y-99260000D01*
X126200000Y-99060000D02*
X126200000Y-101460000D01*
X121800000Y-95060000D02*
X117400000Y-95060000D01*
X121500000Y-103060000D02*
X117300000Y-103060000D01*
X121500000Y-113220000D02*
X126200000Y-113220000D01*
X126200000Y-113220000D02*
X126200000Y-111620000D01*
X121800000Y-105220000D02*
X126000000Y-105220000D01*
X126000000Y-105220000D02*
X126100000Y-105220000D01*
X126100000Y-105220000D02*
X126200000Y-105220000D01*
X126200000Y-105220000D02*
X126200000Y-109220000D01*
X111900000Y-113220000D02*
X109900000Y-110520000D01*
X111900000Y-105220000D02*
X109900000Y-107920000D01*
X109900000Y-109220000D02*
X109900000Y-110470000D01*
X109900000Y-109220000D02*
X109900000Y-107970000D01*
X114300000Y-113220000D02*
X111900000Y-113220000D01*
X117300000Y-113220000D02*
X114300000Y-113220000D01*
X114300000Y-105220000D02*
X111900000Y-105220000D01*
X117400000Y-105220000D02*
X114300000Y-105220000D01*
X109900000Y-109120000D02*
X109900000Y-109420000D01*
X126200000Y-109220000D02*
X126200000Y-111620000D01*
X121800000Y-105220000D02*
X117400000Y-105220000D01*
X121500000Y-113220000D02*
X117300000Y-113220000D01*
D12*
G36*
X139061241Y-118944184D02*
X139087753Y-118957282D01*
X139120447Y-118980106D01*
X139144275Y-119004996D01*
X139160594Y-119036249D01*
X139170760Y-119078166D01*
X139176128Y-119135044D01*
X139178056Y-119211184D01*
X139178169Y-119243917D01*
X139177839Y-119315656D01*
X139176473Y-119366927D01*
X139173500Y-119402404D01*
X139168351Y-119426763D01*
X139160457Y-119444680D01*
X139152243Y-119456902D01*
X139099813Y-119508905D01*
X139038070Y-119540184D01*
X138971464Y-119549592D01*
X138904442Y-119535980D01*
X138883208Y-119526354D01*
X138832376Y-119499859D01*
X138832376Y-119915052D01*
X138869475Y-119895868D01*
X138918357Y-119881025D01*
X138978439Y-119877222D01*
X139038436Y-119884243D01*
X139083744Y-119900013D01*
X139121325Y-119930047D01*
X139153436Y-119973024D01*
X139155850Y-119977436D01*
X139166033Y-119998221D01*
X139173470Y-120019170D01*
X139178589Y-120044548D01*
X139181819Y-120078618D01*
X139183587Y-120125641D01*
X139184323Y-120189882D01*
X139184456Y-120262176D01*
X139184456Y-120492822D01*
X139046139Y-120492822D01*
X139046139Y-120067533D01*
X139007451Y-120034979D01*
X138967262Y-120008940D01*
X138929203Y-120004205D01*
X138890934Y-120016389D01*
X138870538Y-120028320D01*
X138855358Y-120045313D01*
X138844562Y-120070995D01*
X138837317Y-120108991D01*
X138832792Y-120162926D01*
X138830156Y-120236425D01*
X138829228Y-120285347D01*
X138826089Y-120486535D01*
X138760074Y-120490336D01*
X138694060Y-120494136D01*
X138694060Y-119245650D01*
X138832376Y-119245650D01*
X138835903Y-119315254D01*
X138847785Y-119363569D01*
X138869980Y-119393631D01*
X138904441Y-119408471D01*
X138939258Y-119411436D01*
X138978671Y-119408028D01*
X139004829Y-119394617D01*
X139021186Y-119376896D01*
X139034063Y-119357835D01*
X139041728Y-119336601D01*
X139045139Y-119306849D01*
X139045251Y-119262236D01*
X139044103Y-119224880D01*
X139041468Y-119168604D01*
X139037544Y-119131658D01*
X139030937Y-119108223D01*
X139020251Y-119092480D01*
X139010167Y-119083380D01*
X138968030Y-119063537D01*
X138918160Y-119060332D01*
X138889524Y-119067168D01*
X138861172Y-119091464D01*
X138842391Y-119138728D01*
X138833288Y-119208624D01*
X138832376Y-119245650D01*
X138694060Y-119245650D01*
X138694060Y-118933614D01*
X138763218Y-118933614D01*
X138804740Y-118935256D01*
X138826162Y-118941087D01*
X138832374Y-118952461D01*
X138832376Y-118952798D01*
X138835258Y-118963938D01*
X138847970Y-118962673D01*
X138873243Y-118950433D01*
X138932131Y-118931707D01*
X138998385Y-118929739D01*
X139061241Y-118944184D01*
X139061241Y-118944184D01*
G37*
X139061241Y-118944184D02*
X139087753Y-118957282D01*
X139120447Y-118980106D01*
X139144275Y-119004996D01*
X139160594Y-119036249D01*
X139170760Y-119078166D01*
X139176128Y-119135044D01*
X139178056Y-119211184D01*
X139178169Y-119243917D01*
X139177839Y-119315656D01*
X139176473Y-119366927D01*
X139173500Y-119402404D01*
X139168351Y-119426763D01*
X139160457Y-119444680D01*
X139152243Y-119456902D01*
X139099813Y-119508905D01*
X139038070Y-119540184D01*
X138971464Y-119549592D01*
X138904442Y-119535980D01*
X138883208Y-119526354D01*
X138832376Y-119499859D01*
X138832376Y-119915052D01*
X138869475Y-119895868D01*
X138918357Y-119881025D01*
X138978439Y-119877222D01*
X139038436Y-119884243D01*
X139083744Y-119900013D01*
X139121325Y-119930047D01*
X139153436Y-119973024D01*
X139155850Y-119977436D01*
X139166033Y-119998221D01*
X139173470Y-120019170D01*
X139178589Y-120044548D01*
X139181819Y-120078618D01*
X139183587Y-120125641D01*
X139184323Y-120189882D01*
X139184456Y-120262176D01*
X139184456Y-120492822D01*
X139046139Y-120492822D01*
X139046139Y-120067533D01*
X139007451Y-120034979D01*
X138967262Y-120008940D01*
X138929203Y-120004205D01*
X138890934Y-120016389D01*
X138870538Y-120028320D01*
X138855358Y-120045313D01*
X138844562Y-120070995D01*
X138837317Y-120108991D01*
X138832792Y-120162926D01*
X138830156Y-120236425D01*
X138829228Y-120285347D01*
X138826089Y-120486535D01*
X138760074Y-120490336D01*
X138694060Y-120494136D01*
X138694060Y-119245650D01*
X138832376Y-119245650D01*
X138835903Y-119315254D01*
X138847785Y-119363569D01*
X138869980Y-119393631D01*
X138904441Y-119408471D01*
X138939258Y-119411436D01*
X138978671Y-119408028D01*
X139004829Y-119394617D01*
X139021186Y-119376896D01*
X139034063Y-119357835D01*
X139041728Y-119336601D01*
X139045139Y-119306849D01*
X139045251Y-119262236D01*
X139044103Y-119224880D01*
X139041468Y-119168604D01*
X139037544Y-119131658D01*
X139030937Y-119108223D01*
X139020251Y-119092480D01*
X139010167Y-119083380D01*
X138968030Y-119063537D01*
X138918160Y-119060332D01*
X138889524Y-119067168D01*
X138861172Y-119091464D01*
X138842391Y-119138728D01*
X138833288Y-119208624D01*
X138832376Y-119245650D01*
X138694060Y-119245650D01*
X138694060Y-118933614D01*
X138763218Y-118933614D01*
X138804740Y-118935256D01*
X138826162Y-118941087D01*
X138832374Y-118952461D01*
X138832376Y-118952798D01*
X138835258Y-118963938D01*
X138847970Y-118962673D01*
X138873243Y-118950433D01*
X138932131Y-118931707D01*
X138998385Y-118929739D01*
X139061241Y-118944184D01*
G36*
X139585790Y-119881555D02*
X139644945Y-119897339D01*
X139689977Y-119925948D01*
X139721754Y-119963419D01*
X139731634Y-119979411D01*
X139738927Y-119996163D01*
X139744026Y-120017592D01*
X139747321Y-120047616D01*
X139749203Y-120090154D01*
X139750063Y-120149122D01*
X139750293Y-120228440D01*
X139750297Y-120249484D01*
X139750297Y-120492822D01*
X139689941Y-120492822D01*
X139651443Y-120490126D01*
X139622977Y-120483295D01*
X139615845Y-120479083D01*
X139596348Y-120471813D01*
X139576434Y-120479083D01*
X139543647Y-120488160D01*
X139496022Y-120491813D01*
X139443236Y-120490228D01*
X139394964Y-120483589D01*
X139366782Y-120475072D01*
X139312247Y-120440063D01*
X139278165Y-120391479D01*
X139262843Y-120326882D01*
X139262701Y-120325223D01*
X139264045Y-120296566D01*
X139385644Y-120296566D01*
X139396274Y-120329161D01*
X139413590Y-120347505D01*
X139448348Y-120361379D01*
X139494227Y-120366917D01*
X139541012Y-120364191D01*
X139578486Y-120353274D01*
X139588985Y-120346269D01*
X139607332Y-120313904D01*
X139611980Y-120277111D01*
X139611980Y-120228763D01*
X139542418Y-120228763D01*
X139476333Y-120233850D01*
X139426236Y-120248263D01*
X139395071Y-120270729D01*
X139385644Y-120296566D01*
X139264045Y-120296566D01*
X139266013Y-120254647D01*
X139289290Y-120198845D01*
X139333052Y-120156647D01*
X139339101Y-120152808D01*
X139365093Y-120140309D01*
X139397265Y-120132740D01*
X139442240Y-120129061D01*
X139495669Y-120128216D01*
X139611980Y-120128169D01*
X139611980Y-120079411D01*
X139607047Y-120041581D01*
X139594457Y-120016236D01*
X139592983Y-120014887D01*
X139564966Y-120003800D01*
X139522674Y-119999503D01*
X139475936Y-120001615D01*
X139434582Y-120009756D01*
X139410043Y-120021965D01*
X139396747Y-120031746D01*
X139382706Y-120033613D01*
X139363329Y-120025600D01*
X139334024Y-120005739D01*
X139290197Y-119972063D01*
X139286175Y-119968909D01*
X139288236Y-119957236D01*
X139305432Y-119937822D01*
X139331567Y-119916248D01*
X139360448Y-119898096D01*
X139369522Y-119893809D01*
X139402620Y-119885256D01*
X139451120Y-119879155D01*
X139505305Y-119876708D01*
X139507839Y-119876703D01*
X139585790Y-119881555D01*
X139585790Y-119881555D01*
G37*
X139585790Y-119881555D02*
X139644945Y-119897339D01*
X139689977Y-119925948D01*
X139721754Y-119963419D01*
X139731634Y-119979411D01*
X139738927Y-119996163D01*
X139744026Y-120017592D01*
X139747321Y-120047616D01*
X139749203Y-120090154D01*
X139750063Y-120149122D01*
X139750293Y-120228440D01*
X139750297Y-120249484D01*
X139750297Y-120492822D01*
X139689941Y-120492822D01*
X139651443Y-120490126D01*
X139622977Y-120483295D01*
X139615845Y-120479083D01*
X139596348Y-120471813D01*
X139576434Y-120479083D01*
X139543647Y-120488160D01*
X139496022Y-120491813D01*
X139443236Y-120490228D01*
X139394964Y-120483589D01*
X139366782Y-120475072D01*
X139312247Y-120440063D01*
X139278165Y-120391479D01*
X139262843Y-120326882D01*
X139262701Y-120325223D01*
X139264045Y-120296566D01*
X139385644Y-120296566D01*
X139396274Y-120329161D01*
X139413590Y-120347505D01*
X139448348Y-120361379D01*
X139494227Y-120366917D01*
X139541012Y-120364191D01*
X139578486Y-120353274D01*
X139588985Y-120346269D01*
X139607332Y-120313904D01*
X139611980Y-120277111D01*
X139611980Y-120228763D01*
X139542418Y-120228763D01*
X139476333Y-120233850D01*
X139426236Y-120248263D01*
X139395071Y-120270729D01*
X139385644Y-120296566D01*
X139264045Y-120296566D01*
X139266013Y-120254647D01*
X139289290Y-120198845D01*
X139333052Y-120156647D01*
X139339101Y-120152808D01*
X139365093Y-120140309D01*
X139397265Y-120132740D01*
X139442240Y-120129061D01*
X139495669Y-120128216D01*
X139611980Y-120128169D01*
X139611980Y-120079411D01*
X139607047Y-120041581D01*
X139594457Y-120016236D01*
X139592983Y-120014887D01*
X139564966Y-120003800D01*
X139522674Y-119999503D01*
X139475936Y-120001615D01*
X139434582Y-120009756D01*
X139410043Y-120021965D01*
X139396747Y-120031746D01*
X139382706Y-120033613D01*
X139363329Y-120025600D01*
X139334024Y-120005739D01*
X139290197Y-119972063D01*
X139286175Y-119968909D01*
X139288236Y-119957236D01*
X139305432Y-119937822D01*
X139331567Y-119916248D01*
X139360448Y-119898096D01*
X139369522Y-119893809D01*
X139402620Y-119885256D01*
X139451120Y-119879155D01*
X139505305Y-119876708D01*
X139507839Y-119876703D01*
X139585790Y-119881555D01*
G36*
X139976644Y-119878020D02*
X139995461Y-119883660D01*
X140001527Y-119896053D01*
X140001782Y-119901647D01*
X140002871Y-119917230D01*
X140010368Y-119919676D01*
X140030619Y-119908993D01*
X140042649Y-119901694D01*
X140080600Y-119886063D01*
X140125928Y-119878334D01*
X140173456Y-119877740D01*
X140218005Y-119883513D01*
X140254398Y-119894884D01*
X140277457Y-119911088D01*
X140282004Y-119931355D01*
X140279709Y-119936843D01*
X140262980Y-119959626D01*
X140237037Y-119987647D01*
X140232345Y-119992177D01*
X140207617Y-120013005D01*
X140186282Y-120019735D01*
X140156445Y-120015038D01*
X140144492Y-120011917D01*
X140107295Y-120004421D01*
X140081141Y-120007792D01*
X140059054Y-120019681D01*
X140038822Y-120035635D01*
X140023921Y-120055700D01*
X140013566Y-120083702D01*
X140006971Y-120123467D01*
X140003351Y-120178823D01*
X140001922Y-120253594D01*
X140001782Y-120298740D01*
X140001782Y-120492822D01*
X139876040Y-120492822D01*
X139876040Y-119876683D01*
X139938911Y-119876683D01*
X139976644Y-119878020D01*
X139976644Y-119878020D01*
G37*
X139976644Y-119878020D02*
X139995461Y-119883660D01*
X140001527Y-119896053D01*
X140001782Y-119901647D01*
X140002871Y-119917230D01*
X140010368Y-119919676D01*
X140030619Y-119908993D01*
X140042649Y-119901694D01*
X140080600Y-119886063D01*
X140125928Y-119878334D01*
X140173456Y-119877740D01*
X140218005Y-119883513D01*
X140254398Y-119894884D01*
X140277457Y-119911088D01*
X140282004Y-119931355D01*
X140279709Y-119936843D01*
X140262980Y-119959626D01*
X140237037Y-119987647D01*
X140232345Y-119992177D01*
X140207617Y-120013005D01*
X140186282Y-120019735D01*
X140156445Y-120015038D01*
X140144492Y-120011917D01*
X140107295Y-120004421D01*
X140081141Y-120007792D01*
X140059054Y-120019681D01*
X140038822Y-120035635D01*
X140023921Y-120055700D01*
X140013566Y-120083702D01*
X140006971Y-120123467D01*
X140003351Y-120178823D01*
X140001922Y-120253594D01*
X140001782Y-120298740D01*
X140001782Y-120492822D01*
X139876040Y-120492822D01*
X139876040Y-119876683D01*
X139938911Y-119876683D01*
X139976644Y-119878020D01*
G36*
X140768812Y-120492822D02*
X140699654Y-120492822D01*
X140659512Y-120491645D01*
X140638606Y-120486772D01*
X140631078Y-120476186D01*
X140630495Y-120469029D01*
X140629226Y-120454676D01*
X140621221Y-120451923D01*
X140600185Y-120460771D01*
X140583827Y-120469029D01*
X140521023Y-120488597D01*
X140452752Y-120489729D01*
X140397248Y-120475135D01*
X140345562Y-120439877D01*
X140306162Y-120387835D01*
X140284587Y-120326450D01*
X140284038Y-120323018D01*
X140280833Y-120285571D01*
X140279239Y-120231813D01*
X140279367Y-120191155D01*
X140416721Y-120191155D01*
X140419903Y-120245194D01*
X140427141Y-120289735D01*
X140436940Y-120314888D01*
X140474011Y-120349260D01*
X140518026Y-120361582D01*
X140563416Y-120351618D01*
X140602203Y-120321895D01*
X140616892Y-120301905D01*
X140625481Y-120278050D01*
X140629504Y-120243230D01*
X140630495Y-120190930D01*
X140628722Y-120139139D01*
X140624037Y-120093634D01*
X140617397Y-120063181D01*
X140616290Y-120060452D01*
X140589509Y-120028000D01*
X140550421Y-120010183D01*
X140506685Y-120007306D01*
X140465962Y-120019674D01*
X140435913Y-120047593D01*
X140432796Y-120053148D01*
X140423039Y-120087022D01*
X140417723Y-120135728D01*
X140416721Y-120191155D01*
X140279367Y-120191155D01*
X140279432Y-120170540D01*
X140280336Y-120137563D01*
X140286486Y-120055981D01*
X140299267Y-119994730D01*
X140320529Y-119949449D01*
X140352122Y-119915779D01*
X140382793Y-119896014D01*
X140425646Y-119882120D01*
X140478944Y-119877354D01*
X140533520Y-119881236D01*
X140580208Y-119893282D01*
X140604876Y-119907693D01*
X140630495Y-119930878D01*
X140630495Y-119637773D01*
X140768812Y-119637773D01*
X140768812Y-120492822D01*
X140768812Y-120492822D01*
G37*
X140768812Y-120492822D02*
X140699654Y-120492822D01*
X140659512Y-120491645D01*
X140638606Y-120486772D01*
X140631078Y-120476186D01*
X140630495Y-120469029D01*
X140629226Y-120454676D01*
X140621221Y-120451923D01*
X140600185Y-120460771D01*
X140583827Y-120469029D01*
X140521023Y-120488597D01*
X140452752Y-120489729D01*
X140397248Y-120475135D01*
X140345562Y-120439877D01*
X140306162Y-120387835D01*
X140284587Y-120326450D01*
X140284038Y-120323018D01*
X140280833Y-120285571D01*
X140279239Y-120231813D01*
X140279367Y-120191155D01*
X140416721Y-120191155D01*
X140419903Y-120245194D01*
X140427141Y-120289735D01*
X140436940Y-120314888D01*
X140474011Y-120349260D01*
X140518026Y-120361582D01*
X140563416Y-120351618D01*
X140602203Y-120321895D01*
X140616892Y-120301905D01*
X140625481Y-120278050D01*
X140629504Y-120243230D01*
X140630495Y-120190930D01*
X140628722Y-120139139D01*
X140624037Y-120093634D01*
X140617397Y-120063181D01*
X140616290Y-120060452D01*
X140589509Y-120028000D01*
X140550421Y-120010183D01*
X140506685Y-120007306D01*
X140465962Y-120019674D01*
X140435913Y-120047593D01*
X140432796Y-120053148D01*
X140423039Y-120087022D01*
X140417723Y-120135728D01*
X140416721Y-120191155D01*
X140279367Y-120191155D01*
X140279432Y-120170540D01*
X140280336Y-120137563D01*
X140286486Y-120055981D01*
X140299267Y-119994730D01*
X140320529Y-119949449D01*
X140352122Y-119915779D01*
X140382793Y-119896014D01*
X140425646Y-119882120D01*
X140478944Y-119877354D01*
X140533520Y-119881236D01*
X140580208Y-119893282D01*
X140604876Y-119907693D01*
X140630495Y-119930878D01*
X140630495Y-119637773D01*
X140768812Y-119637773D01*
X140768812Y-120492822D01*
G36*
X141251524Y-119879237D02*
X141301255Y-119882971D01*
X141431291Y-120272773D01*
X141451678Y-120203614D01*
X141463946Y-120160874D01*
X141480085Y-120103115D01*
X141497512Y-120039625D01*
X141506726Y-120005570D01*
X141541388Y-119876683D01*
X141684391Y-119876683D01*
X141641646Y-120011857D01*
X141620596Y-120078342D01*
X141595167Y-120158539D01*
X141568610Y-120242193D01*
X141544902Y-120316782D01*
X141490902Y-120486535D01*
X141432598Y-120490328D01*
X141374295Y-120494122D01*
X141342679Y-120389734D01*
X141323182Y-120324889D01*
X141301904Y-120253400D01*
X141283308Y-120190263D01*
X141282574Y-120187750D01*
X141268684Y-120144969D01*
X141256429Y-120115779D01*
X141247846Y-120104741D01*
X141246082Y-120106018D01*
X141239891Y-120123130D01*
X141228128Y-120159787D01*
X141212225Y-120211378D01*
X141193614Y-120273294D01*
X141183543Y-120307352D01*
X141129007Y-120492822D01*
X141013264Y-120492822D01*
X140920737Y-120200471D01*
X140894744Y-120118462D01*
X140871066Y-120043987D01*
X140850820Y-119980544D01*
X140835126Y-119931632D01*
X140825102Y-119900749D01*
X140822055Y-119891726D01*
X140824467Y-119882487D01*
X140843408Y-119878441D01*
X140882823Y-119878846D01*
X140888993Y-119879152D01*
X140962086Y-119882971D01*
X141009957Y-120059010D01*
X141027553Y-120123211D01*
X141043277Y-120179649D01*
X141055746Y-120223422D01*
X141063574Y-120249630D01*
X141065020Y-120253903D01*
X141071014Y-120248990D01*
X141083101Y-120223532D01*
X141099893Y-120180997D01*
X141120003Y-120124850D01*
X141137003Y-120074130D01*
X141201794Y-119875504D01*
X141251524Y-119879237D01*
X141251524Y-119879237D01*
G37*
X141251524Y-119879237D02*
X141301255Y-119882971D01*
X141431291Y-120272773D01*
X141451678Y-120203614D01*
X141463946Y-120160874D01*
X141480085Y-120103115D01*
X141497512Y-120039625D01*
X141506726Y-120005570D01*
X141541388Y-119876683D01*
X141684391Y-119876683D01*
X141641646Y-120011857D01*
X141620596Y-120078342D01*
X141595167Y-120158539D01*
X141568610Y-120242193D01*
X141544902Y-120316782D01*
X141490902Y-120486535D01*
X141432598Y-120490328D01*
X141374295Y-120494122D01*
X141342679Y-120389734D01*
X141323182Y-120324889D01*
X141301904Y-120253400D01*
X141283308Y-120190263D01*
X141282574Y-120187750D01*
X141268684Y-120144969D01*
X141256429Y-120115779D01*
X141247846Y-120104741D01*
X141246082Y-120106018D01*
X141239891Y-120123130D01*
X141228128Y-120159787D01*
X141212225Y-120211378D01*
X141193614Y-120273294D01*
X141183543Y-120307352D01*
X141129007Y-120492822D01*
X141013264Y-120492822D01*
X140920737Y-120200471D01*
X140894744Y-120118462D01*
X140871066Y-120043987D01*
X140850820Y-119980544D01*
X140835126Y-119931632D01*
X140825102Y-119900749D01*
X140822055Y-119891726D01*
X140824467Y-119882487D01*
X140843408Y-119878441D01*
X140882823Y-119878846D01*
X140888993Y-119879152D01*
X140962086Y-119882971D01*
X141009957Y-120059010D01*
X141027553Y-120123211D01*
X141043277Y-120179649D01*
X141055746Y-120223422D01*
X141063574Y-120249630D01*
X141065020Y-120253903D01*
X141071014Y-120248990D01*
X141083101Y-120223532D01*
X141099893Y-120180997D01*
X141120003Y-120124850D01*
X141137003Y-120074130D01*
X141201794Y-119875504D01*
X141251524Y-119879237D01*
G36*
X142008411Y-119880417D02*
X142061411Y-119893290D01*
X142076731Y-119900110D01*
X142106428Y-119917974D01*
X142129220Y-119938093D01*
X142146083Y-119963962D01*
X142157998Y-119999073D01*
X142165942Y-120046920D01*
X142170894Y-120110996D01*
X142173831Y-120194794D01*
X142174947Y-120250768D01*
X142179052Y-120492822D01*
X142108932Y-120492822D01*
X142066393Y-120491038D01*
X142044476Y-120484942D01*
X142038812Y-120474706D01*
X142035821Y-120463637D01*
X142022451Y-120465754D01*
X142004233Y-120474629D01*
X141958624Y-120488233D01*
X141900007Y-120491899D01*
X141838354Y-120485903D01*
X141783638Y-120470521D01*
X141778730Y-120468386D01*
X141728723Y-120433255D01*
X141695756Y-120384419D01*
X141680587Y-120327333D01*
X141681746Y-120306824D01*
X141805508Y-120306824D01*
X141816413Y-120334425D01*
X141848745Y-120354204D01*
X141900910Y-120364819D01*
X141928787Y-120366228D01*
X141975247Y-120362620D01*
X142006129Y-120348597D01*
X142013664Y-120341931D01*
X142034076Y-120305666D01*
X142038812Y-120272773D01*
X142038812Y-120228763D01*
X141977513Y-120228763D01*
X141906256Y-120232395D01*
X141856276Y-120243818D01*
X141824696Y-120263824D01*
X141817626Y-120272743D01*
X141805508Y-120306824D01*
X141681746Y-120306824D01*
X141683971Y-120267456D01*
X141706663Y-120210244D01*
X141737624Y-120171580D01*
X141756376Y-120154864D01*
X141774733Y-120143878D01*
X141798619Y-120137180D01*
X141833957Y-120133326D01*
X141886669Y-120130873D01*
X141907577Y-120130168D01*
X142038812Y-120125879D01*
X142038620Y-120086158D01*
X142033537Y-120044405D01*
X142015162Y-120019158D01*
X141978039Y-120003030D01*
X141977043Y-120002742D01*
X141924410Y-119996400D01*
X141872906Y-120004684D01*
X141834630Y-120024827D01*
X141819272Y-120034773D01*
X141802730Y-120033397D01*
X141777275Y-120018987D01*
X141762328Y-120008817D01*
X141733091Y-119987088D01*
X141714980Y-119970800D01*
X141712074Y-119966137D01*
X141724040Y-119942005D01*
X141759396Y-119913185D01*
X141774753Y-119903461D01*
X141818901Y-119886714D01*
X141878398Y-119877227D01*
X141944487Y-119875095D01*
X142008411Y-119880417D01*
X142008411Y-119880417D01*
G37*
X142008411Y-119880417D02*
X142061411Y-119893290D01*
X142076731Y-119900110D01*
X142106428Y-119917974D01*
X142129220Y-119938093D01*
X142146083Y-119963962D01*
X142157998Y-119999073D01*
X142165942Y-120046920D01*
X142170894Y-120110996D01*
X142173831Y-120194794D01*
X142174947Y-120250768D01*
X142179052Y-120492822D01*
X142108932Y-120492822D01*
X142066393Y-120491038D01*
X142044476Y-120484942D01*
X142038812Y-120474706D01*
X142035821Y-120463637D01*
X142022451Y-120465754D01*
X142004233Y-120474629D01*
X141958624Y-120488233D01*
X141900007Y-120491899D01*
X141838354Y-120485903D01*
X141783638Y-120470521D01*
X141778730Y-120468386D01*
X141728723Y-120433255D01*
X141695756Y-120384419D01*
X141680587Y-120327333D01*
X141681746Y-120306824D01*
X141805508Y-120306824D01*
X141816413Y-120334425D01*
X141848745Y-120354204D01*
X141900910Y-120364819D01*
X141928787Y-120366228D01*
X141975247Y-120362620D01*
X142006129Y-120348597D01*
X142013664Y-120341931D01*
X142034076Y-120305666D01*
X142038812Y-120272773D01*
X142038812Y-120228763D01*
X141977513Y-120228763D01*
X141906256Y-120232395D01*
X141856276Y-120243818D01*
X141824696Y-120263824D01*
X141817626Y-120272743D01*
X141805508Y-120306824D01*
X141681746Y-120306824D01*
X141683971Y-120267456D01*
X141706663Y-120210244D01*
X141737624Y-120171580D01*
X141756376Y-120154864D01*
X141774733Y-120143878D01*
X141798619Y-120137180D01*
X141833957Y-120133326D01*
X141886669Y-120130873D01*
X141907577Y-120130168D01*
X142038812Y-120125879D01*
X142038620Y-120086158D01*
X142033537Y-120044405D01*
X142015162Y-120019158D01*
X141978039Y-120003030D01*
X141977043Y-120002742D01*
X141924410Y-119996400D01*
X141872906Y-120004684D01*
X141834630Y-120024827D01*
X141819272Y-120034773D01*
X141802730Y-120033397D01*
X141777275Y-120018987D01*
X141762328Y-120008817D01*
X141733091Y-119987088D01*
X141714980Y-119970800D01*
X141712074Y-119966137D01*
X141724040Y-119942005D01*
X141759396Y-119913185D01*
X141774753Y-119903461D01*
X141818901Y-119886714D01*
X141878398Y-119877227D01*
X141944487Y-119875095D01*
X142008411Y-119880417D01*
G36*
X142605255Y-119876486D02*
X142653595Y-119886015D01*
X142681114Y-119900125D01*
X142710064Y-119923568D01*
X142668876Y-119975571D01*
X142643482Y-120007064D01*
X142626238Y-120022428D01*
X142609102Y-120024776D01*
X142584027Y-120017217D01*
X142572257Y-120012941D01*
X142524270Y-120006631D01*
X142480324Y-120020156D01*
X142448060Y-120050710D01*
X142442819Y-120060452D01*
X142437112Y-120086258D01*
X142432706Y-120133817D01*
X142429811Y-120199758D01*
X142428631Y-120280710D01*
X142428614Y-120292226D01*
X142428614Y-120492822D01*
X142290297Y-120492822D01*
X142290297Y-119876683D01*
X142359456Y-119876683D01*
X142399333Y-119877725D01*
X142420107Y-119882358D01*
X142427789Y-119892849D01*
X142428614Y-119902745D01*
X142428614Y-119928806D01*
X142461745Y-119902745D01*
X142499735Y-119884965D01*
X142550770Y-119876174D01*
X142605255Y-119876486D01*
X142605255Y-119876486D01*
G37*
X142605255Y-119876486D02*
X142653595Y-119886015D01*
X142681114Y-119900125D01*
X142710064Y-119923568D01*
X142668876Y-119975571D01*
X142643482Y-120007064D01*
X142626238Y-120022428D01*
X142609102Y-120024776D01*
X142584027Y-120017217D01*
X142572257Y-120012941D01*
X142524270Y-120006631D01*
X142480324Y-120020156D01*
X142448060Y-120050710D01*
X142442819Y-120060452D01*
X142437112Y-120086258D01*
X142432706Y-120133817D01*
X142429811Y-120199758D01*
X142428631Y-120280710D01*
X142428614Y-120292226D01*
X142428614Y-120492822D01*
X142290297Y-120492822D01*
X142290297Y-119876683D01*
X142359456Y-119876683D01*
X142399333Y-119877725D01*
X142420107Y-119882358D01*
X142427789Y-119892849D01*
X142428614Y-119902745D01*
X142428614Y-119928806D01*
X142461745Y-119902745D01*
X142499735Y-119884965D01*
X142550770Y-119876174D01*
X142605255Y-119876486D01*
G36*
X143002581Y-119879970D02*
X143062685Y-119895597D01*
X143113021Y-119927848D01*
X143137393Y-119951940D01*
X143177345Y-120008895D01*
X143200242Y-120074965D01*
X143208108Y-120156182D01*
X143208148Y-120162748D01*
X143208218Y-120228763D01*
X142828264Y-120228763D01*
X142836363Y-120263342D01*
X142850987Y-120294659D01*
X142876581Y-120327291D01*
X142881935Y-120332500D01*
X142927943Y-120360694D01*
X142980410Y-120365475D01*
X143040803Y-120346926D01*
X143051040Y-120341931D01*
X143082439Y-120326745D01*
X143103470Y-120318094D01*
X143107139Y-120317293D01*
X143119948Y-120325063D01*
X143144378Y-120344072D01*
X143156779Y-120354460D01*
X143182476Y-120378321D01*
X143190915Y-120394077D01*
X143185058Y-120408571D01*
X143181928Y-120412534D01*
X143160725Y-120429879D01*
X143125738Y-120450959D01*
X143101337Y-120463265D01*
X143032072Y-120484946D01*
X142955388Y-120491971D01*
X142882765Y-120483647D01*
X142862426Y-120477686D01*
X142799476Y-120443952D01*
X142752815Y-120392045D01*
X142722173Y-120321459D01*
X142707282Y-120231692D01*
X142705647Y-120184753D01*
X142710421Y-120116413D01*
X142830990Y-120116413D01*
X142842652Y-120121465D01*
X142873998Y-120125429D01*
X142919571Y-120127768D01*
X142950446Y-120128169D01*
X143005981Y-120127783D01*
X143041033Y-120125975D01*
X143060262Y-120121773D01*
X143068330Y-120114203D01*
X143069901Y-120103218D01*
X143059121Y-120069381D01*
X143031980Y-120035940D01*
X142996277Y-120010272D01*
X142960560Y-119999772D01*
X142912048Y-120009086D01*
X142870053Y-120036013D01*
X142840936Y-120074827D01*
X142830990Y-120116413D01*
X142710421Y-120116413D01*
X142712599Y-120085236D01*
X142734055Y-120005949D01*
X142770470Y-119946263D01*
X142822297Y-119905549D01*
X142889990Y-119883179D01*
X142926662Y-119878871D01*
X143002581Y-119879970D01*
X143002581Y-119879970D01*
G37*
X143002581Y-119879970D02*
X143062685Y-119895597D01*
X143113021Y-119927848D01*
X143137393Y-119951940D01*
X143177345Y-120008895D01*
X143200242Y-120074965D01*
X143208108Y-120156182D01*
X143208148Y-120162748D01*
X143208218Y-120228763D01*
X142828264Y-120228763D01*
X142836363Y-120263342D01*
X142850987Y-120294659D01*
X142876581Y-120327291D01*
X142881935Y-120332500D01*
X142927943Y-120360694D01*
X142980410Y-120365475D01*
X143040803Y-120346926D01*
X143051040Y-120341931D01*
X143082439Y-120326745D01*
X143103470Y-120318094D01*
X143107139Y-120317293D01*
X143119948Y-120325063D01*
X143144378Y-120344072D01*
X143156779Y-120354460D01*
X143182476Y-120378321D01*
X143190915Y-120394077D01*
X143185058Y-120408571D01*
X143181928Y-120412534D01*
X143160725Y-120429879D01*
X143125738Y-120450959D01*
X143101337Y-120463265D01*
X143032072Y-120484946D01*
X142955388Y-120491971D01*
X142882765Y-120483647D01*
X142862426Y-120477686D01*
X142799476Y-120443952D01*
X142752815Y-120392045D01*
X142722173Y-120321459D01*
X142707282Y-120231692D01*
X142705647Y-120184753D01*
X142710421Y-120116413D01*
X142830990Y-120116413D01*
X142842652Y-120121465D01*
X142873998Y-120125429D01*
X142919571Y-120127768D01*
X142950446Y-120128169D01*
X143005981Y-120127783D01*
X143041033Y-120125975D01*
X143060262Y-120121773D01*
X143068330Y-120114203D01*
X143069901Y-120103218D01*
X143059121Y-120069381D01*
X143031980Y-120035940D01*
X142996277Y-120010272D01*
X142960560Y-119999772D01*
X142912048Y-120009086D01*
X142870053Y-120036013D01*
X142840936Y-120074827D01*
X142830990Y-120116413D01*
X142710421Y-120116413D01*
X142712599Y-120085236D01*
X142734055Y-120005949D01*
X142770470Y-119946263D01*
X142822297Y-119905549D01*
X142889990Y-119883179D01*
X142926662Y-119878871D01*
X143002581Y-119879970D01*
G36*
X138431739Y-118940148D02*
X138497521Y-118969231D01*
X138547460Y-119017793D01*
X138581626Y-119085908D01*
X138600093Y-119173651D01*
X138601417Y-119187351D01*
X138602454Y-119283939D01*
X138589007Y-119368602D01*
X138561892Y-119437221D01*
X138547373Y-119459294D01*
X138496799Y-119506011D01*
X138432391Y-119536268D01*
X138360334Y-119548824D01*
X138286815Y-119542439D01*
X138230928Y-119522772D01*
X138182868Y-119489629D01*
X138143588Y-119446175D01*
X138142908Y-119445158D01*
X138126956Y-119418338D01*
X138116590Y-119391368D01*
X138110312Y-119357332D01*
X138106627Y-119309310D01*
X138105003Y-119269931D01*
X138104328Y-119234219D01*
X138230045Y-119234219D01*
X138231274Y-119269770D01*
X138235734Y-119317094D01*
X138243603Y-119347465D01*
X138257793Y-119369072D01*
X138271083Y-119381694D01*
X138318198Y-119408122D01*
X138367495Y-119411653D01*
X138413407Y-119392639D01*
X138436362Y-119371331D01*
X138452904Y-119349859D01*
X138462579Y-119329313D01*
X138466826Y-119302574D01*
X138467080Y-119262523D01*
X138465772Y-119225638D01*
X138462957Y-119172947D01*
X138458495Y-119138772D01*
X138450452Y-119116480D01*
X138436897Y-119099442D01*
X138426155Y-119089703D01*
X138381223Y-119064123D01*
X138332751Y-119062847D01*
X138292106Y-119077999D01*
X138257433Y-119109642D01*
X138236776Y-119161620D01*
X138230045Y-119234219D01*
X138104328Y-119234219D01*
X138103521Y-119191621D01*
X138106052Y-119133056D01*
X138113638Y-119089007D01*
X138127319Y-119054248D01*
X138148135Y-119023551D01*
X138155853Y-119014436D01*
X138204111Y-118969021D01*
X138255872Y-118942493D01*
X138319172Y-118931379D01*
X138350039Y-118930471D01*
X138431739Y-118940148D01*
X138431739Y-118940148D01*
G37*
X138431739Y-118940148D02*
X138497521Y-118969231D01*
X138547460Y-119017793D01*
X138581626Y-119085908D01*
X138600093Y-119173651D01*
X138601417Y-119187351D01*
X138602454Y-119283939D01*
X138589007Y-119368602D01*
X138561892Y-119437221D01*
X138547373Y-119459294D01*
X138496799Y-119506011D01*
X138432391Y-119536268D01*
X138360334Y-119548824D01*
X138286815Y-119542439D01*
X138230928Y-119522772D01*
X138182868Y-119489629D01*
X138143588Y-119446175D01*
X138142908Y-119445158D01*
X138126956Y-119418338D01*
X138116590Y-119391368D01*
X138110312Y-119357332D01*
X138106627Y-119309310D01*
X138105003Y-119269931D01*
X138104328Y-119234219D01*
X138230045Y-119234219D01*
X138231274Y-119269770D01*
X138235734Y-119317094D01*
X138243603Y-119347465D01*
X138257793Y-119369072D01*
X138271083Y-119381694D01*
X138318198Y-119408122D01*
X138367495Y-119411653D01*
X138413407Y-119392639D01*
X138436362Y-119371331D01*
X138452904Y-119349859D01*
X138462579Y-119329313D01*
X138466826Y-119302574D01*
X138467080Y-119262523D01*
X138465772Y-119225638D01*
X138462957Y-119172947D01*
X138458495Y-119138772D01*
X138450452Y-119116480D01*
X138436897Y-119099442D01*
X138426155Y-119089703D01*
X138381223Y-119064123D01*
X138332751Y-119062847D01*
X138292106Y-119077999D01*
X138257433Y-119109642D01*
X138236776Y-119161620D01*
X138230045Y-119234219D01*
X138104328Y-119234219D01*
X138103521Y-119191621D01*
X138106052Y-119133056D01*
X138113638Y-119089007D01*
X138127319Y-119054248D01*
X138148135Y-119023551D01*
X138155853Y-119014436D01*
X138204111Y-118969021D01*
X138255872Y-118942493D01*
X138319172Y-118931379D01*
X138350039Y-118930471D01*
X138431739Y-118940148D01*
G36*
X139613301Y-118947614D02*
X139625832Y-118953514D01*
X139669201Y-118985283D01*
X139710210Y-119031646D01*
X139740832Y-119082696D01*
X139749541Y-119106166D01*
X139757488Y-119148091D01*
X139762226Y-119198757D01*
X139762801Y-119219679D01*
X139762871Y-119285693D01*
X139382917Y-119285693D01*
X139391017Y-119320273D01*
X139410896Y-119361170D01*
X139445653Y-119396514D01*
X139487002Y-119419282D01*
X139513351Y-119424010D01*
X139549084Y-119418273D01*
X139591718Y-119403882D01*
X139606201Y-119397262D01*
X139659760Y-119370513D01*
X139705467Y-119405376D01*
X139731842Y-119428955D01*
X139745876Y-119448417D01*
X139746586Y-119454129D01*
X139734049Y-119467973D01*
X139706572Y-119489012D01*
X139681634Y-119505425D01*
X139614336Y-119534930D01*
X139538890Y-119548284D01*
X139464112Y-119544812D01*
X139404505Y-119526663D01*
X139343059Y-119487784D01*
X139299392Y-119436595D01*
X139272074Y-119370367D01*
X139259678Y-119286371D01*
X139258579Y-119247936D01*
X139262978Y-119159861D01*
X139263518Y-119157299D01*
X139389418Y-119157299D01*
X139392885Y-119165558D01*
X139407137Y-119170113D01*
X139436530Y-119172065D01*
X139485425Y-119172517D01*
X139504252Y-119172525D01*
X139561533Y-119171843D01*
X139597859Y-119169364D01*
X139617396Y-119164443D01*
X139624310Y-119156434D01*
X139624555Y-119153862D01*
X139616664Y-119133423D01*
X139596915Y-119104789D01*
X139588425Y-119094763D01*
X139556906Y-119066408D01*
X139524051Y-119055259D01*
X139506349Y-119054327D01*
X139458461Y-119065981D01*
X139418301Y-119097285D01*
X139392827Y-119142752D01*
X139392375Y-119144233D01*
X139389418Y-119157299D01*
X139263518Y-119157299D01*
X139277608Y-119090510D01*
X139303962Y-119035025D01*
X139336193Y-118995639D01*
X139395783Y-118952931D01*
X139465832Y-118930109D01*
X139540339Y-118928046D01*
X139613301Y-118947614D01*
X139613301Y-118947614D01*
G37*
X139613301Y-118947614D02*
X139625832Y-118953514D01*
X139669201Y-118985283D01*
X139710210Y-119031646D01*
X139740832Y-119082696D01*
X139749541Y-119106166D01*
X139757488Y-119148091D01*
X139762226Y-119198757D01*
X139762801Y-119219679D01*
X139762871Y-119285693D01*
X139382917Y-119285693D01*
X139391017Y-119320273D01*
X139410896Y-119361170D01*
X139445653Y-119396514D01*
X139487002Y-119419282D01*
X139513351Y-119424010D01*
X139549084Y-119418273D01*
X139591718Y-119403882D01*
X139606201Y-119397262D01*
X139659760Y-119370513D01*
X139705467Y-119405376D01*
X139731842Y-119428955D01*
X139745876Y-119448417D01*
X139746586Y-119454129D01*
X139734049Y-119467973D01*
X139706572Y-119489012D01*
X139681634Y-119505425D01*
X139614336Y-119534930D01*
X139538890Y-119548284D01*
X139464112Y-119544812D01*
X139404505Y-119526663D01*
X139343059Y-119487784D01*
X139299392Y-119436595D01*
X139272074Y-119370367D01*
X139259678Y-119286371D01*
X139258579Y-119247936D01*
X139262978Y-119159861D01*
X139263518Y-119157299D01*
X139389418Y-119157299D01*
X139392885Y-119165558D01*
X139407137Y-119170113D01*
X139436530Y-119172065D01*
X139485425Y-119172517D01*
X139504252Y-119172525D01*
X139561533Y-119171843D01*
X139597859Y-119169364D01*
X139617396Y-119164443D01*
X139624310Y-119156434D01*
X139624555Y-119153862D01*
X139616664Y-119133423D01*
X139596915Y-119104789D01*
X139588425Y-119094763D01*
X139556906Y-119066408D01*
X139524051Y-119055259D01*
X139506349Y-119054327D01*
X139458461Y-119065981D01*
X139418301Y-119097285D01*
X139392827Y-119142752D01*
X139392375Y-119144233D01*
X139389418Y-119157299D01*
X139263518Y-119157299D01*
X139277608Y-119090510D01*
X139303962Y-119035025D01*
X139336193Y-118995639D01*
X139395783Y-118952931D01*
X139465832Y-118930109D01*
X139540339Y-118928046D01*
X139613301Y-118947614D01*
G36*
X140984017Y-118931452D02*
X141031634Y-118940482D01*
X141081034Y-118959370D01*
X141086312Y-118961777D01*
X141123774Y-118981476D01*
X141149717Y-118999781D01*
X141158103Y-119011508D01*
X141150117Y-119030632D01*
X141130720Y-119058850D01*
X141122110Y-119069384D01*
X141086628Y-119110847D01*
X141040885Y-119083858D01*
X140997350Y-119065878D01*
X140947050Y-119056267D01*
X140898812Y-119055660D01*
X140861467Y-119064691D01*
X140852505Y-119070327D01*
X140835437Y-119096171D01*
X140833363Y-119125941D01*
X140846134Y-119149197D01*
X140853688Y-119153708D01*
X140876325Y-119159309D01*
X140916115Y-119165892D01*
X140965166Y-119172183D01*
X140974215Y-119173170D01*
X141052996Y-119186798D01*
X141110136Y-119209946D01*
X141148030Y-119244752D01*
X141169079Y-119293354D01*
X141175635Y-119352718D01*
X141166577Y-119420198D01*
X141137164Y-119473188D01*
X141087278Y-119511783D01*
X141016800Y-119536081D01*
X140938565Y-119545667D01*
X140874766Y-119545552D01*
X140823016Y-119536845D01*
X140787673Y-119524825D01*
X140743017Y-119503880D01*
X140701747Y-119479574D01*
X140687079Y-119468876D01*
X140649357Y-119438084D01*
X140694852Y-119392049D01*
X140740347Y-119346013D01*
X140792072Y-119380243D01*
X140843952Y-119405952D01*
X140899351Y-119419399D01*
X140952605Y-119420818D01*
X140998049Y-119410443D01*
X141030016Y-119388507D01*
X141040338Y-119369998D01*
X141038789Y-119340314D01*
X141013140Y-119317615D01*
X140963460Y-119301940D01*
X140909031Y-119294695D01*
X140825264Y-119280873D01*
X140763033Y-119254796D01*
X140721507Y-119215699D01*
X140699853Y-119162820D01*
X140696853Y-119100126D01*
X140711671Y-119034642D01*
X140745454Y-118985144D01*
X140798505Y-118951408D01*
X140871126Y-118933207D01*
X140924928Y-118929639D01*
X140984017Y-118931452D01*
X140984017Y-118931452D01*
G37*
X140984017Y-118931452D02*
X141031634Y-118940482D01*
X141081034Y-118959370D01*
X141086312Y-118961777D01*
X141123774Y-118981476D01*
X141149717Y-118999781D01*
X141158103Y-119011508D01*
X141150117Y-119030632D01*
X141130720Y-119058850D01*
X141122110Y-119069384D01*
X141086628Y-119110847D01*
X141040885Y-119083858D01*
X140997350Y-119065878D01*
X140947050Y-119056267D01*
X140898812Y-119055660D01*
X140861467Y-119064691D01*
X140852505Y-119070327D01*
X140835437Y-119096171D01*
X140833363Y-119125941D01*
X140846134Y-119149197D01*
X140853688Y-119153708D01*
X140876325Y-119159309D01*
X140916115Y-119165892D01*
X140965166Y-119172183D01*
X140974215Y-119173170D01*
X141052996Y-119186798D01*
X141110136Y-119209946D01*
X141148030Y-119244752D01*
X141169079Y-119293354D01*
X141175635Y-119352718D01*
X141166577Y-119420198D01*
X141137164Y-119473188D01*
X141087278Y-119511783D01*
X141016800Y-119536081D01*
X140938565Y-119545667D01*
X140874766Y-119545552D01*
X140823016Y-119536845D01*
X140787673Y-119524825D01*
X140743017Y-119503880D01*
X140701747Y-119479574D01*
X140687079Y-119468876D01*
X140649357Y-119438084D01*
X140694852Y-119392049D01*
X140740347Y-119346013D01*
X140792072Y-119380243D01*
X140843952Y-119405952D01*
X140899351Y-119419399D01*
X140952605Y-119420818D01*
X140998049Y-119410443D01*
X141030016Y-119388507D01*
X141040338Y-119369998D01*
X141038789Y-119340314D01*
X141013140Y-119317615D01*
X140963460Y-119301940D01*
X140909031Y-119294695D01*
X140825264Y-119280873D01*
X140763033Y-119254796D01*
X140721507Y-119215699D01*
X140699853Y-119162820D01*
X140696853Y-119100126D01*
X140711671Y-119034642D01*
X140745454Y-118985144D01*
X140798505Y-118951408D01*
X140871126Y-118933207D01*
X140924928Y-118929639D01*
X140984017Y-118931452D01*
G36*
X141580762Y-118941055D02*
X141644363Y-118975692D01*
X141694123Y-119030372D01*
X141717568Y-119074842D01*
X141727634Y-119114121D01*
X141734156Y-119170116D01*
X141736951Y-119234621D01*
X141735836Y-119299429D01*
X141730626Y-119356334D01*
X141724541Y-119386727D01*
X141704014Y-119428306D01*
X141668463Y-119472468D01*
X141625619Y-119511087D01*
X141583211Y-119536034D01*
X141582177Y-119536430D01*
X141529553Y-119547331D01*
X141467188Y-119547601D01*
X141407924Y-119537676D01*
X141385040Y-119529722D01*
X141326102Y-119496300D01*
X141283890Y-119452511D01*
X141256156Y-119394538D01*
X141240651Y-119318565D01*
X141237143Y-119278771D01*
X141237590Y-119228766D01*
X141372376Y-119228766D01*
X141376917Y-119301732D01*
X141389986Y-119357334D01*
X141410756Y-119392861D01*
X141425552Y-119403020D01*
X141463464Y-119410104D01*
X141508527Y-119408007D01*
X141547487Y-119397812D01*
X141557704Y-119392204D01*
X141584659Y-119359538D01*
X141602451Y-119309545D01*
X141610024Y-119248705D01*
X141606325Y-119183497D01*
X141598057Y-119144253D01*
X141574320Y-119098805D01*
X141536849Y-119070396D01*
X141491720Y-119060573D01*
X141445011Y-119070887D01*
X141409132Y-119096112D01*
X141390277Y-119116925D01*
X141379272Y-119137439D01*
X141374026Y-119165203D01*
X141372449Y-119207762D01*
X141372376Y-119228766D01*
X141237590Y-119228766D01*
X141238094Y-119172580D01*
X141255388Y-119085501D01*
X141289029Y-119017530D01*
X141339018Y-118968664D01*
X141405356Y-118938899D01*
X141419601Y-118935448D01*
X141505210Y-118927345D01*
X141580762Y-118941055D01*
X141580762Y-118941055D01*
G37*
X141580762Y-118941055D02*
X141644363Y-118975692D01*
X141694123Y-119030372D01*
X141717568Y-119074842D01*
X141727634Y-119114121D01*
X141734156Y-119170116D01*
X141736951Y-119234621D01*
X141735836Y-119299429D01*
X141730626Y-119356334D01*
X141724541Y-119386727D01*
X141704014Y-119428306D01*
X141668463Y-119472468D01*
X141625619Y-119511087D01*
X141583211Y-119536034D01*
X141582177Y-119536430D01*
X141529553Y-119547331D01*
X141467188Y-119547601D01*
X141407924Y-119537676D01*
X141385040Y-119529722D01*
X141326102Y-119496300D01*
X141283890Y-119452511D01*
X141256156Y-119394538D01*
X141240651Y-119318565D01*
X141237143Y-119278771D01*
X141237590Y-119228766D01*
X141372376Y-119228766D01*
X141376917Y-119301732D01*
X141389986Y-119357334D01*
X141410756Y-119392861D01*
X141425552Y-119403020D01*
X141463464Y-119410104D01*
X141508527Y-119408007D01*
X141547487Y-119397812D01*
X141557704Y-119392204D01*
X141584659Y-119359538D01*
X141602451Y-119309545D01*
X141610024Y-119248705D01*
X141606325Y-119183497D01*
X141598057Y-119144253D01*
X141574320Y-119098805D01*
X141536849Y-119070396D01*
X141491720Y-119060573D01*
X141445011Y-119070887D01*
X141409132Y-119096112D01*
X141390277Y-119116925D01*
X141379272Y-119137439D01*
X141374026Y-119165203D01*
X141372449Y-119207762D01*
X141372376Y-119228766D01*
X141237590Y-119228766D01*
X141238094Y-119172580D01*
X141255388Y-119085501D01*
X141289029Y-119017530D01*
X141339018Y-118968664D01*
X141405356Y-118938899D01*
X141419601Y-118935448D01*
X141505210Y-118927345D01*
X141580762Y-118941055D01*
G36*
X141963367Y-119129342D02*
X141964555Y-119221563D01*
X141968897Y-119291610D01*
X141977558Y-119342381D01*
X141991704Y-119376772D01*
X142012500Y-119397679D01*
X142041110Y-119408000D01*
X142076535Y-119410636D01*
X142113636Y-119407682D01*
X142141818Y-119396889D01*
X142162243Y-119375360D01*
X142176079Y-119340199D01*
X142184491Y-119288510D01*
X142188643Y-119217394D01*
X142189703Y-119129342D01*
X142189703Y-118933614D01*
X142328020Y-118933614D01*
X142328020Y-119537179D01*
X142258862Y-119537179D01*
X142217170Y-119535489D01*
X142195701Y-119529556D01*
X142189703Y-119518293D01*
X142186091Y-119508261D01*
X142171714Y-119510383D01*
X142142736Y-119524580D01*
X142076319Y-119546480D01*
X142005875Y-119544928D01*
X141938377Y-119521147D01*
X141906233Y-119502362D01*
X141881715Y-119482022D01*
X141863804Y-119456573D01*
X141851479Y-119422458D01*
X141843723Y-119376121D01*
X141839516Y-119314007D01*
X141837840Y-119232561D01*
X141837624Y-119169578D01*
X141837624Y-118933614D01*
X141963367Y-118933614D01*
X141963367Y-119129342D01*
X141963367Y-119129342D01*
G37*
X141963367Y-119129342D02*
X141964555Y-119221563D01*
X141968897Y-119291610D01*
X141977558Y-119342381D01*
X141991704Y-119376772D01*
X142012500Y-119397679D01*
X142041110Y-119408000D01*
X142076535Y-119410636D01*
X142113636Y-119407682D01*
X142141818Y-119396889D01*
X142162243Y-119375360D01*
X142176079Y-119340199D01*
X142184491Y-119288510D01*
X142188643Y-119217394D01*
X142189703Y-119129342D01*
X142189703Y-118933614D01*
X142328020Y-118933614D01*
X142328020Y-119537179D01*
X142258862Y-119537179D01*
X142217170Y-119535489D01*
X142195701Y-119529556D01*
X142189703Y-119518293D01*
X142186091Y-119508261D01*
X142171714Y-119510383D01*
X142142736Y-119524580D01*
X142076319Y-119546480D01*
X142005875Y-119544928D01*
X141938377Y-119521147D01*
X141906233Y-119502362D01*
X141881715Y-119482022D01*
X141863804Y-119456573D01*
X141851479Y-119422458D01*
X141843723Y-119376121D01*
X141839516Y-119314007D01*
X141837840Y-119232561D01*
X141837624Y-119169578D01*
X141837624Y-118933614D01*
X141963367Y-118933614D01*
X141963367Y-119129342D01*
G36*
X143187226Y-118938880D02*
X143260080Y-118969830D01*
X143283027Y-118984895D01*
X143312354Y-119008048D01*
X143330764Y-119026253D01*
X143333961Y-119032183D01*
X143324935Y-119045340D01*
X143301837Y-119067667D01*
X143283344Y-119083250D01*
X143232728Y-119123926D01*
X143192760Y-119090295D01*
X143161874Y-119068584D01*
X143131759Y-119061090D01*
X143097292Y-119062920D01*
X143042561Y-119076528D01*
X143004886Y-119104772D01*
X142981991Y-119150433D01*
X142971597Y-119216289D01*
X142971595Y-119216331D01*
X142972494Y-119289939D01*
X142986463Y-119343946D01*
X143014328Y-119380716D01*
X143033325Y-119393168D01*
X143083776Y-119408673D01*
X143137663Y-119408683D01*
X143184546Y-119393638D01*
X143195644Y-119386287D01*
X143223476Y-119367511D01*
X143245236Y-119364434D01*
X143268704Y-119378409D01*
X143294649Y-119403510D01*
X143335716Y-119445880D01*
X143290121Y-119483464D01*
X143219674Y-119525882D01*
X143140233Y-119546785D01*
X143057215Y-119545272D01*
X143002694Y-119531411D01*
X142938970Y-119497135D01*
X142888005Y-119443212D01*
X142864851Y-119405149D01*
X142846099Y-119350536D01*
X142836715Y-119281369D01*
X142836643Y-119206407D01*
X142845824Y-119134409D01*
X142864199Y-119074137D01*
X142867093Y-119067958D01*
X142909952Y-119007351D01*
X142967979Y-118963224D01*
X143036591Y-118936493D01*
X143111201Y-118928073D01*
X143187226Y-118938880D01*
X143187226Y-118938880D01*
G37*
X143187226Y-118938880D02*
X143260080Y-118969830D01*
X143283027Y-118984895D01*
X143312354Y-119008048D01*
X143330764Y-119026253D01*
X143333961Y-119032183D01*
X143324935Y-119045340D01*
X143301837Y-119067667D01*
X143283344Y-119083250D01*
X143232728Y-119123926D01*
X143192760Y-119090295D01*
X143161874Y-119068584D01*
X143131759Y-119061090D01*
X143097292Y-119062920D01*
X143042561Y-119076528D01*
X143004886Y-119104772D01*
X142981991Y-119150433D01*
X142971597Y-119216289D01*
X142971595Y-119216331D01*
X142972494Y-119289939D01*
X142986463Y-119343946D01*
X143014328Y-119380716D01*
X143033325Y-119393168D01*
X143083776Y-119408673D01*
X143137663Y-119408683D01*
X143184546Y-119393638D01*
X143195644Y-119386287D01*
X143223476Y-119367511D01*
X143245236Y-119364434D01*
X143268704Y-119378409D01*
X143294649Y-119403510D01*
X143335716Y-119445880D01*
X143290121Y-119483464D01*
X143219674Y-119525882D01*
X143140233Y-119546785D01*
X143057215Y-119545272D01*
X143002694Y-119531411D01*
X142938970Y-119497135D01*
X142888005Y-119443212D01*
X142864851Y-119405149D01*
X142846099Y-119350536D01*
X142836715Y-119281369D01*
X142836643Y-119206407D01*
X142845824Y-119134409D01*
X142864199Y-119074137D01*
X142867093Y-119067958D01*
X142909952Y-119007351D01*
X142967979Y-118963224D01*
X143036591Y-118936493D01*
X143111201Y-118928073D01*
X143187226Y-118938880D01*
G36*
X143647898Y-118931457D02*
X143680096Y-118939279D01*
X143741825Y-118967921D01*
X143794610Y-119011667D01*
X143831141Y-119064117D01*
X143836160Y-119075893D01*
X143843045Y-119106740D01*
X143847864Y-119152371D01*
X143849505Y-119198492D01*
X143849505Y-119285693D01*
X143667178Y-119285693D01*
X143591979Y-119285978D01*
X143539003Y-119287704D01*
X143505325Y-119292181D01*
X143488020Y-119300720D01*
X143484163Y-119314630D01*
X143490829Y-119335222D01*
X143502770Y-119359315D01*
X143536080Y-119399525D01*
X143582368Y-119419558D01*
X143638944Y-119418905D01*
X143703031Y-119397101D01*
X143758417Y-119370193D01*
X143804375Y-119406532D01*
X143850333Y-119442872D01*
X143807096Y-119482819D01*
X143749374Y-119520563D01*
X143678386Y-119543320D01*
X143602029Y-119549688D01*
X143528199Y-119538268D01*
X143516287Y-119534393D01*
X143451399Y-119500506D01*
X143403130Y-119449986D01*
X143370465Y-119381325D01*
X143352385Y-119293014D01*
X143352175Y-119291121D01*
X143350556Y-119194878D01*
X143357100Y-119160542D01*
X143484852Y-119160542D01*
X143496584Y-119165822D01*
X143528438Y-119169867D01*
X143575397Y-119172176D01*
X143605154Y-119172525D01*
X143660648Y-119172306D01*
X143695346Y-119170916D01*
X143713601Y-119167251D01*
X143719766Y-119160210D01*
X143718195Y-119148690D01*
X143716878Y-119144233D01*
X143694382Y-119102355D01*
X143659003Y-119068604D01*
X143627780Y-119053773D01*
X143586301Y-119054668D01*
X143544269Y-119073164D01*
X143509012Y-119103786D01*
X143487854Y-119141062D01*
X143484852Y-119160542D01*
X143357100Y-119160542D01*
X143366690Y-119110229D01*
X143398698Y-119039191D01*
X143444701Y-118983779D01*
X143502821Y-118946009D01*
X143571180Y-118927896D01*
X143647898Y-118931457D01*
X143647898Y-118931457D01*
G37*
X143647898Y-118931457D02*
X143680096Y-118939279D01*
X143741825Y-118967921D01*
X143794610Y-119011667D01*
X143831141Y-119064117D01*
X143836160Y-119075893D01*
X143843045Y-119106740D01*
X143847864Y-119152371D01*
X143849505Y-119198492D01*
X143849505Y-119285693D01*
X143667178Y-119285693D01*
X143591979Y-119285978D01*
X143539003Y-119287704D01*
X143505325Y-119292181D01*
X143488020Y-119300720D01*
X143484163Y-119314630D01*
X143490829Y-119335222D01*
X143502770Y-119359315D01*
X143536080Y-119399525D01*
X143582368Y-119419558D01*
X143638944Y-119418905D01*
X143703031Y-119397101D01*
X143758417Y-119370193D01*
X143804375Y-119406532D01*
X143850333Y-119442872D01*
X143807096Y-119482819D01*
X143749374Y-119520563D01*
X143678386Y-119543320D01*
X143602029Y-119549688D01*
X143528199Y-119538268D01*
X143516287Y-119534393D01*
X143451399Y-119500506D01*
X143403130Y-119449986D01*
X143370465Y-119381325D01*
X143352385Y-119293014D01*
X143352175Y-119291121D01*
X143350556Y-119194878D01*
X143357100Y-119160542D01*
X143484852Y-119160542D01*
X143496584Y-119165822D01*
X143528438Y-119169867D01*
X143575397Y-119172176D01*
X143605154Y-119172525D01*
X143660648Y-119172306D01*
X143695346Y-119170916D01*
X143713601Y-119167251D01*
X143719766Y-119160210D01*
X143718195Y-119148690D01*
X143716878Y-119144233D01*
X143694382Y-119102355D01*
X143659003Y-119068604D01*
X143627780Y-119053773D01*
X143586301Y-119054668D01*
X143544269Y-119073164D01*
X143509012Y-119103786D01*
X143487854Y-119141062D01*
X143484852Y-119160542D01*
X143357100Y-119160542D01*
X143366690Y-119110229D01*
X143398698Y-119039191D01*
X143444701Y-118983779D01*
X143502821Y-118946009D01*
X143571180Y-118927896D01*
X143647898Y-118931457D01*
G36*
X140215988Y-118944002D02*
X140247283Y-118958950D01*
X140277591Y-118980541D01*
X140300682Y-119005391D01*
X140317500Y-119037087D01*
X140328994Y-119079214D01*
X140336109Y-119135358D01*
X140339793Y-119209106D01*
X140340992Y-119304044D01*
X140341011Y-119313985D01*
X140341287Y-119537179D01*
X140202970Y-119537179D01*
X140202970Y-119331418D01*
X140202872Y-119255189D01*
X140202191Y-119199939D01*
X140200349Y-119161501D01*
X140196767Y-119135706D01*
X140190868Y-119118384D01*
X140182073Y-119105368D01*
X140169820Y-119092507D01*
X140126953Y-119064873D01*
X140080157Y-119059745D01*
X140035576Y-119077217D01*
X140020072Y-119090221D01*
X140008690Y-119102447D01*
X140000519Y-119115540D01*
X139995026Y-119133615D01*
X139991680Y-119160787D01*
X139989949Y-119201170D01*
X139989303Y-119258879D01*
X139989208Y-119329132D01*
X139989208Y-119537179D01*
X139850891Y-119537179D01*
X139850891Y-118933614D01*
X139920050Y-118933614D01*
X139961572Y-118935256D01*
X139982994Y-118941087D01*
X139989205Y-118952461D01*
X139989208Y-118952798D01*
X139992090Y-118963938D01*
X140004801Y-118962674D01*
X140030074Y-118950434D01*
X140087395Y-118932424D01*
X140152963Y-118930421D01*
X140215988Y-118944002D01*
X140215988Y-118944002D01*
G37*
X140215988Y-118944002D02*
X140247283Y-118958950D01*
X140277591Y-118980541D01*
X140300682Y-119005391D01*
X140317500Y-119037087D01*
X140328994Y-119079214D01*
X140336109Y-119135358D01*
X140339793Y-119209106D01*
X140340992Y-119304044D01*
X140341011Y-119313985D01*
X140341287Y-119537179D01*
X140202970Y-119537179D01*
X140202970Y-119331418D01*
X140202872Y-119255189D01*
X140202191Y-119199939D01*
X140200349Y-119161501D01*
X140196767Y-119135706D01*
X140190868Y-119118384D01*
X140182073Y-119105368D01*
X140169820Y-119092507D01*
X140126953Y-119064873D01*
X140080157Y-119059745D01*
X140035576Y-119077217D01*
X140020072Y-119090221D01*
X140008690Y-119102447D01*
X140000519Y-119115540D01*
X139995026Y-119133615D01*
X139991680Y-119160787D01*
X139989949Y-119201170D01*
X139989303Y-119258879D01*
X139989208Y-119329132D01*
X139989208Y-119537179D01*
X139850891Y-119537179D01*
X139850891Y-118933614D01*
X139920050Y-118933614D01*
X139961572Y-118935256D01*
X139982994Y-118941087D01*
X139989205Y-118952461D01*
X139989208Y-118952798D01*
X139992090Y-118963938D01*
X140004801Y-118962674D01*
X140030074Y-118950434D01*
X140087395Y-118932424D01*
X140152963Y-118930421D01*
X140215988Y-118944002D01*
G36*
X142769460Y-118933030D02*
X142812711Y-118946245D01*
X142840558Y-118962941D01*
X142849629Y-118976145D01*
X142847132Y-118991797D01*
X142830931Y-119016385D01*
X142817232Y-119033800D01*
X142788992Y-119065283D01*
X142767775Y-119078529D01*
X142749688Y-119077664D01*
X142696035Y-119064010D01*
X142656630Y-119064630D01*
X142624632Y-119080104D01*
X142613890Y-119089161D01*
X142579505Y-119121027D01*
X142579505Y-119537179D01*
X142441188Y-119537179D01*
X142441188Y-118933614D01*
X142510347Y-118933614D01*
X142551869Y-118935256D01*
X142573291Y-118941087D01*
X142579502Y-118952461D01*
X142579505Y-118952798D01*
X142582439Y-118964713D01*
X142595704Y-118963159D01*
X142614084Y-118954563D01*
X142652046Y-118938568D01*
X142682872Y-118928945D01*
X142722536Y-118926478D01*
X142769460Y-118933030D01*
X142769460Y-118933030D01*
G37*
X142769460Y-118933030D02*
X142812711Y-118946245D01*
X142840558Y-118962941D01*
X142849629Y-118976145D01*
X142847132Y-118991797D01*
X142830931Y-119016385D01*
X142817232Y-119033800D01*
X142788992Y-119065283D01*
X142767775Y-119078529D01*
X142749688Y-119077664D01*
X142696035Y-119064010D01*
X142656630Y-119064630D01*
X142624632Y-119080104D01*
X142613890Y-119089161D01*
X142579505Y-119121027D01*
X142579505Y-119537179D01*
X142441188Y-119537179D01*
X142441188Y-118933614D01*
X142510347Y-118933614D01*
X142551869Y-118935256D01*
X142573291Y-118941087D01*
X142579502Y-118952461D01*
X142579505Y-118952798D01*
X142582439Y-118964713D01*
X142595704Y-118963159D01*
X142614084Y-118954563D01*
X142652046Y-118938568D01*
X142682872Y-118928945D01*
X142722536Y-118926478D01*
X142769460Y-118933030D01*
G36*
X141346964Y-114765018D02*
X141403812Y-115066570D01*
X141823338Y-115239512D01*
X142074984Y-115068395D01*
X142145458Y-115020750D01*
X142209163Y-114978210D01*
X142263126Y-114942715D01*
X142304373Y-114916210D01*
X142329934Y-114900636D01*
X142336895Y-114897278D01*
X142349435Y-114905914D01*
X142376231Y-114929792D01*
X142414280Y-114965859D01*
X142460579Y-115011067D01*
X142512123Y-115062364D01*
X142565909Y-115116701D01*
X142618935Y-115171028D01*
X142668195Y-115222295D01*
X142710687Y-115267451D01*
X142743407Y-115303446D01*
X142763351Y-115327230D01*
X142768119Y-115335190D01*
X142761257Y-115349865D01*
X142742020Y-115382014D01*
X142712430Y-115428492D01*
X142674510Y-115486156D01*
X142630282Y-115551860D01*
X142604654Y-115589336D01*
X142557941Y-115657768D01*
X142516432Y-115719520D01*
X142482140Y-115771519D01*
X142457080Y-115810692D01*
X142443264Y-115833965D01*
X142441188Y-115838855D01*
X142445895Y-115852755D01*
X142458723Y-115885150D01*
X142477738Y-115931485D01*
X142501003Y-115987206D01*
X142526584Y-116047758D01*
X142552545Y-116108586D01*
X142576950Y-116165136D01*
X142597863Y-116212852D01*
X142613349Y-116247181D01*
X142621472Y-116263568D01*
X142621952Y-116264212D01*
X142634707Y-116267341D01*
X142668677Y-116274321D01*
X142720340Y-116284467D01*
X142786176Y-116297092D01*
X142862664Y-116311509D01*
X142907290Y-116319823D01*
X142989021Y-116335384D01*
X143062843Y-116350192D01*
X143125021Y-116363436D01*
X143171822Y-116374305D01*
X143199509Y-116381989D01*
X143205074Y-116384427D01*
X143210526Y-116400930D01*
X143214924Y-116438200D01*
X143218272Y-116491880D01*
X143220574Y-116557612D01*
X143221832Y-116631037D01*
X143222048Y-116707796D01*
X143221227Y-116783532D01*
X143219371Y-116853886D01*
X143216482Y-116914500D01*
X143212565Y-116961016D01*
X143207622Y-116989075D01*
X143204657Y-116994916D01*
X143186934Y-117001917D01*
X143149381Y-117011927D01*
X143096964Y-117023769D01*
X143034652Y-117036267D01*
X143012900Y-117040310D01*
X142908024Y-117059520D01*
X142825180Y-117074991D01*
X142761630Y-117087337D01*
X142714637Y-117097173D01*
X142681463Y-117105114D01*
X142659371Y-117111776D01*
X142645624Y-117117773D01*
X142637484Y-117123719D01*
X142636345Y-117124894D01*
X142624977Y-117143826D01*
X142607635Y-117180669D01*
X142586050Y-117230913D01*
X142561954Y-117290046D01*
X142537079Y-117353556D01*
X142513157Y-117416932D01*
X142491919Y-117475662D01*
X142475097Y-117525235D01*
X142464422Y-117561139D01*
X142461627Y-117578862D01*
X142461860Y-117579483D01*
X142471331Y-117593970D01*
X142492818Y-117625844D01*
X142524063Y-117671789D01*
X142562807Y-117728485D01*
X142606793Y-117792617D01*
X142619319Y-117810842D01*
X142663984Y-117876914D01*
X142703288Y-117937200D01*
X142735088Y-117988235D01*
X142757245Y-118026560D01*
X142767617Y-118048711D01*
X142768119Y-118051432D01*
X142759405Y-118065736D01*
X142735325Y-118094072D01*
X142698976Y-118133396D01*
X142653453Y-118180661D01*
X142601852Y-118232823D01*
X142547267Y-118286835D01*
X142492794Y-118339653D01*
X142441529Y-118388231D01*
X142396567Y-118429523D01*
X142361004Y-118460485D01*
X142337935Y-118478070D01*
X142331554Y-118480941D01*
X142316699Y-118474178D01*
X142286286Y-118455939D01*
X142245268Y-118429297D01*
X142213709Y-118407852D01*
X142156525Y-118368503D01*
X142088806Y-118322171D01*
X142020880Y-118275913D01*
X141984361Y-118251155D01*
X141860752Y-118167547D01*
X141756991Y-118223650D01*
X141709720Y-118248228D01*
X141669523Y-118267331D01*
X141642326Y-118278227D01*
X141635402Y-118279743D01*
X141627077Y-118268549D01*
X141610654Y-118236917D01*
X141587357Y-118187765D01*
X141558414Y-118124010D01*
X141525050Y-118048571D01*
X141488491Y-117964364D01*
X141449964Y-117874308D01*
X141410694Y-117781321D01*
X141371908Y-117688320D01*
X141334830Y-117598223D01*
X141300689Y-117513948D01*
X141270708Y-117438413D01*
X141246116Y-117374534D01*
X141228136Y-117325231D01*
X141217997Y-117293421D01*
X141216366Y-117282496D01*
X141229291Y-117268561D01*
X141257589Y-117245940D01*
X141295346Y-117219333D01*
X141298515Y-117217228D01*
X141396100Y-117139114D01*
X141474786Y-117047982D01*
X141533891Y-116946745D01*
X141572732Y-116838318D01*
X141590628Y-116725614D01*
X141586897Y-116611548D01*
X141560857Y-116499034D01*
X141511825Y-116390985D01*
X141497400Y-116367345D01*
X141422369Y-116271887D01*
X141333730Y-116195232D01*
X141234549Y-116137780D01*
X141127895Y-116099929D01*
X141016836Y-116082078D01*
X140904439Y-116084625D01*
X140793773Y-116107970D01*
X140687906Y-116152510D01*
X140589905Y-116218645D01*
X140559590Y-116245487D01*
X140482438Y-116329512D01*
X140426218Y-116417966D01*
X140387653Y-116517115D01*
X140366174Y-116615303D01*
X140360872Y-116725697D01*
X140378552Y-116836640D01*
X140417419Y-116944381D01*
X140475677Y-117045169D01*
X140551531Y-117135256D01*
X140643183Y-117210892D01*
X140655228Y-117218864D01*
X140693389Y-117244974D01*
X140722399Y-117267595D01*
X140736268Y-117282039D01*
X140736469Y-117282496D01*
X140733492Y-117298121D01*
X140721689Y-117333582D01*
X140702286Y-117385962D01*
X140676512Y-117452345D01*
X140645591Y-117529814D01*
X140610751Y-117615450D01*
X140573217Y-117706337D01*
X140534217Y-117799559D01*
X140494977Y-117892197D01*
X140456724Y-117981335D01*
X140420683Y-118064055D01*
X140388083Y-118137441D01*
X140360148Y-118198575D01*
X140338105Y-118244541D01*
X140323182Y-118272421D01*
X140317172Y-118279743D01*
X140298809Y-118274041D01*
X140264448Y-118258749D01*
X140220016Y-118236599D01*
X140195583Y-118223650D01*
X140091822Y-118167547D01*
X139968213Y-118251155D01*
X139905114Y-118293987D01*
X139836030Y-118341122D01*
X139771293Y-118385503D01*
X139738866Y-118407852D01*
X139693259Y-118438477D01*
X139654640Y-118462747D01*
X139628048Y-118477587D01*
X139619410Y-118480724D01*
X139606839Y-118472261D01*
X139579016Y-118448636D01*
X139538639Y-118412302D01*
X139488405Y-118365711D01*
X139431012Y-118311317D01*
X139394714Y-118276392D01*
X139331210Y-118213996D01*
X139276327Y-118158188D01*
X139232286Y-118111354D01*
X139201305Y-118075882D01*
X139185602Y-118054161D01*
X139184095Y-118049752D01*
X139191086Y-118032985D01*
X139210406Y-117999082D01*
X139239909Y-117951476D01*
X139277455Y-117893599D01*
X139320900Y-117828884D01*
X139333255Y-117810842D01*
X139378273Y-117745267D01*
X139418660Y-117686228D01*
X139452160Y-117637042D01*
X139476514Y-117601028D01*
X139489464Y-117581502D01*
X139490715Y-117579483D01*
X139488844Y-117563922D01*
X139478913Y-117529709D01*
X139462653Y-117481355D01*
X139441795Y-117423371D01*
X139418073Y-117360270D01*
X139393216Y-117296563D01*
X139368958Y-117236761D01*
X139347029Y-117185376D01*
X139329162Y-117146919D01*
X139317087Y-117125902D01*
X139316229Y-117124894D01*
X139308846Y-117118888D01*
X139296375Y-117112948D01*
X139276080Y-117106460D01*
X139245222Y-117098809D01*
X139201066Y-117089380D01*
X139140874Y-117077559D01*
X139061907Y-117062729D01*
X138961430Y-117044277D01*
X138939675Y-117040310D01*
X138875198Y-117027853D01*
X138818989Y-117015666D01*
X138776013Y-117004926D01*
X138751240Y-116996809D01*
X138747918Y-116994916D01*
X138742444Y-116978138D01*
X138737994Y-116940645D01*
X138734572Y-116886794D01*
X138732181Y-116820944D01*
X138730823Y-116747453D01*
X138730501Y-116670680D01*
X138731219Y-116594983D01*
X138732979Y-116524720D01*
X138735784Y-116464250D01*
X138739638Y-116417930D01*
X138744543Y-116390119D01*
X138747500Y-116384427D01*
X138763963Y-116378686D01*
X138801449Y-116369345D01*
X138856225Y-116357215D01*
X138924555Y-116343107D01*
X139002706Y-116327830D01*
X139045284Y-116319823D01*
X139126071Y-116304721D01*
X139198113Y-116291040D01*
X139257889Y-116279467D01*
X139301879Y-116270687D01*
X139326561Y-116265387D01*
X139330623Y-116264212D01*
X139337489Y-116250965D01*
X139352002Y-116219057D01*
X139372229Y-116173047D01*
X139396234Y-116117492D01*
X139422082Y-116056953D01*
X139447840Y-115995986D01*
X139471573Y-115939151D01*
X139491346Y-115891006D01*
X139505224Y-115856110D01*
X139511274Y-115839021D01*
X139511386Y-115838274D01*
X139504528Y-115824793D01*
X139485302Y-115793770D01*
X139455728Y-115748289D01*
X139417827Y-115691432D01*
X139373620Y-115626283D01*
X139347921Y-115588862D01*
X139301093Y-115520247D01*
X139259501Y-115457952D01*
X139225175Y-115405129D01*
X139200143Y-115364927D01*
X139186435Y-115340500D01*
X139184456Y-115335024D01*
X139192966Y-115322278D01*
X139216493Y-115295063D01*
X139252032Y-115256428D01*
X139296577Y-115209423D01*
X139347123Y-115157095D01*
X139400664Y-115102495D01*
X139454195Y-115048670D01*
X139504711Y-114998670D01*
X139549206Y-114955543D01*
X139584675Y-114922339D01*
X139608113Y-114902106D01*
X139615954Y-114897278D01*
X139628720Y-114904067D01*
X139659256Y-114923142D01*
X139704590Y-114952561D01*
X139761756Y-114990381D01*
X139827784Y-115034661D01*
X139877590Y-115068395D01*
X140129236Y-115239512D01*
X140338999Y-115153041D01*
X140548763Y-115066570D01*
X140605611Y-114765018D01*
X140662460Y-114463466D01*
X141290115Y-114463466D01*
X141346964Y-114765018D01*
X141346964Y-114765018D01*
G37*
X141346964Y-114765018D02*
X141403812Y-115066570D01*
X141823338Y-115239512D01*
X142074984Y-115068395D01*
X142145458Y-115020750D01*
X142209163Y-114978210D01*
X142263126Y-114942715D01*
X142304373Y-114916210D01*
X142329934Y-114900636D01*
X142336895Y-114897278D01*
X142349435Y-114905914D01*
X142376231Y-114929792D01*
X142414280Y-114965859D01*
X142460579Y-115011067D01*
X142512123Y-115062364D01*
X142565909Y-115116701D01*
X142618935Y-115171028D01*
X142668195Y-115222295D01*
X142710687Y-115267451D01*
X142743407Y-115303446D01*
X142763351Y-115327230D01*
X142768119Y-115335190D01*
X142761257Y-115349865D01*
X142742020Y-115382014D01*
X142712430Y-115428492D01*
X142674510Y-115486156D01*
X142630282Y-115551860D01*
X142604654Y-115589336D01*
X142557941Y-115657768D01*
X142516432Y-115719520D01*
X142482140Y-115771519D01*
X142457080Y-115810692D01*
X142443264Y-115833965D01*
X142441188Y-115838855D01*
X142445895Y-115852755D01*
X142458723Y-115885150D01*
X142477738Y-115931485D01*
X142501003Y-115987206D01*
X142526584Y-116047758D01*
X142552545Y-116108586D01*
X142576950Y-116165136D01*
X142597863Y-116212852D01*
X142613349Y-116247181D01*
X142621472Y-116263568D01*
X142621952Y-116264212D01*
X142634707Y-116267341D01*
X142668677Y-116274321D01*
X142720340Y-116284467D01*
X142786176Y-116297092D01*
X142862664Y-116311509D01*
X142907290Y-116319823D01*
X142989021Y-116335384D01*
X143062843Y-116350192D01*
X143125021Y-116363436D01*
X143171822Y-116374305D01*
X143199509Y-116381989D01*
X143205074Y-116384427D01*
X143210526Y-116400930D01*
X143214924Y-116438200D01*
X143218272Y-116491880D01*
X143220574Y-116557612D01*
X143221832Y-116631037D01*
X143222048Y-116707796D01*
X143221227Y-116783532D01*
X143219371Y-116853886D01*
X143216482Y-116914500D01*
X143212565Y-116961016D01*
X143207622Y-116989075D01*
X143204657Y-116994916D01*
X143186934Y-117001917D01*
X143149381Y-117011927D01*
X143096964Y-117023769D01*
X143034652Y-117036267D01*
X143012900Y-117040310D01*
X142908024Y-117059520D01*
X142825180Y-117074991D01*
X142761630Y-117087337D01*
X142714637Y-117097173D01*
X142681463Y-117105114D01*
X142659371Y-117111776D01*
X142645624Y-117117773D01*
X142637484Y-117123719D01*
X142636345Y-117124894D01*
X142624977Y-117143826D01*
X142607635Y-117180669D01*
X142586050Y-117230913D01*
X142561954Y-117290046D01*
X142537079Y-117353556D01*
X142513157Y-117416932D01*
X142491919Y-117475662D01*
X142475097Y-117525235D01*
X142464422Y-117561139D01*
X142461627Y-117578862D01*
X142461860Y-117579483D01*
X142471331Y-117593970D01*
X142492818Y-117625844D01*
X142524063Y-117671789D01*
X142562807Y-117728485D01*
X142606793Y-117792617D01*
X142619319Y-117810842D01*
X142663984Y-117876914D01*
X142703288Y-117937200D01*
X142735088Y-117988235D01*
X142757245Y-118026560D01*
X142767617Y-118048711D01*
X142768119Y-118051432D01*
X142759405Y-118065736D01*
X142735325Y-118094072D01*
X142698976Y-118133396D01*
X142653453Y-118180661D01*
X142601852Y-118232823D01*
X142547267Y-118286835D01*
X142492794Y-118339653D01*
X142441529Y-118388231D01*
X142396567Y-118429523D01*
X142361004Y-118460485D01*
X142337935Y-118478070D01*
X142331554Y-118480941D01*
X142316699Y-118474178D01*
X142286286Y-118455939D01*
X142245268Y-118429297D01*
X142213709Y-118407852D01*
X142156525Y-118368503D01*
X142088806Y-118322171D01*
X142020880Y-118275913D01*
X141984361Y-118251155D01*
X141860752Y-118167547D01*
X141756991Y-118223650D01*
X141709720Y-118248228D01*
X141669523Y-118267331D01*
X141642326Y-118278227D01*
X141635402Y-118279743D01*
X141627077Y-118268549D01*
X141610654Y-118236917D01*
X141587357Y-118187765D01*
X141558414Y-118124010D01*
X141525050Y-118048571D01*
X141488491Y-117964364D01*
X141449964Y-117874308D01*
X141410694Y-117781321D01*
X141371908Y-117688320D01*
X141334830Y-117598223D01*
X141300689Y-117513948D01*
X141270708Y-117438413D01*
X141246116Y-117374534D01*
X141228136Y-117325231D01*
X141217997Y-117293421D01*
X141216366Y-117282496D01*
X141229291Y-117268561D01*
X141257589Y-117245940D01*
X141295346Y-117219333D01*
X141298515Y-117217228D01*
X141396100Y-117139114D01*
X141474786Y-117047982D01*
X141533891Y-116946745D01*
X141572732Y-116838318D01*
X141590628Y-116725614D01*
X141586897Y-116611548D01*
X141560857Y-116499034D01*
X141511825Y-116390985D01*
X141497400Y-116367345D01*
X141422369Y-116271887D01*
X141333730Y-116195232D01*
X141234549Y-116137780D01*
X141127895Y-116099929D01*
X141016836Y-116082078D01*
X140904439Y-116084625D01*
X140793773Y-116107970D01*
X140687906Y-116152510D01*
X140589905Y-116218645D01*
X140559590Y-116245487D01*
X140482438Y-116329512D01*
X140426218Y-116417966D01*
X140387653Y-116517115D01*
X140366174Y-116615303D01*
X140360872Y-116725697D01*
X140378552Y-116836640D01*
X140417419Y-116944381D01*
X140475677Y-117045169D01*
X140551531Y-117135256D01*
X140643183Y-117210892D01*
X140655228Y-117218864D01*
X140693389Y-117244974D01*
X140722399Y-117267595D01*
X140736268Y-117282039D01*
X140736469Y-117282496D01*
X140733492Y-117298121D01*
X140721689Y-117333582D01*
X140702286Y-117385962D01*
X140676512Y-117452345D01*
X140645591Y-117529814D01*
X140610751Y-117615450D01*
X140573217Y-117706337D01*
X140534217Y-117799559D01*
X140494977Y-117892197D01*
X140456724Y-117981335D01*
X140420683Y-118064055D01*
X140388083Y-118137441D01*
X140360148Y-118198575D01*
X140338105Y-118244541D01*
X140323182Y-118272421D01*
X140317172Y-118279743D01*
X140298809Y-118274041D01*
X140264448Y-118258749D01*
X140220016Y-118236599D01*
X140195583Y-118223650D01*
X140091822Y-118167547D01*
X139968213Y-118251155D01*
X139905114Y-118293987D01*
X139836030Y-118341122D01*
X139771293Y-118385503D01*
X139738866Y-118407852D01*
X139693259Y-118438477D01*
X139654640Y-118462747D01*
X139628048Y-118477587D01*
X139619410Y-118480724D01*
X139606839Y-118472261D01*
X139579016Y-118448636D01*
X139538639Y-118412302D01*
X139488405Y-118365711D01*
X139431012Y-118311317D01*
X139394714Y-118276392D01*
X139331210Y-118213996D01*
X139276327Y-118158188D01*
X139232286Y-118111354D01*
X139201305Y-118075882D01*
X139185602Y-118054161D01*
X139184095Y-118049752D01*
X139191086Y-118032985D01*
X139210406Y-117999082D01*
X139239909Y-117951476D01*
X139277455Y-117893599D01*
X139320900Y-117828884D01*
X139333255Y-117810842D01*
X139378273Y-117745267D01*
X139418660Y-117686228D01*
X139452160Y-117637042D01*
X139476514Y-117601028D01*
X139489464Y-117581502D01*
X139490715Y-117579483D01*
X139488844Y-117563922D01*
X139478913Y-117529709D01*
X139462653Y-117481355D01*
X139441795Y-117423371D01*
X139418073Y-117360270D01*
X139393216Y-117296563D01*
X139368958Y-117236761D01*
X139347029Y-117185376D01*
X139329162Y-117146919D01*
X139317087Y-117125902D01*
X139316229Y-117124894D01*
X139308846Y-117118888D01*
X139296375Y-117112948D01*
X139276080Y-117106460D01*
X139245222Y-117098809D01*
X139201066Y-117089380D01*
X139140874Y-117077559D01*
X139061907Y-117062729D01*
X138961430Y-117044277D01*
X138939675Y-117040310D01*
X138875198Y-117027853D01*
X138818989Y-117015666D01*
X138776013Y-117004926D01*
X138751240Y-116996809D01*
X138747918Y-116994916D01*
X138742444Y-116978138D01*
X138737994Y-116940645D01*
X138734572Y-116886794D01*
X138732181Y-116820944D01*
X138730823Y-116747453D01*
X138730501Y-116670680D01*
X138731219Y-116594983D01*
X138732979Y-116524720D01*
X138735784Y-116464250D01*
X138739638Y-116417930D01*
X138744543Y-116390119D01*
X138747500Y-116384427D01*
X138763963Y-116378686D01*
X138801449Y-116369345D01*
X138856225Y-116357215D01*
X138924555Y-116343107D01*
X139002706Y-116327830D01*
X139045284Y-116319823D01*
X139126071Y-116304721D01*
X139198113Y-116291040D01*
X139257889Y-116279467D01*
X139301879Y-116270687D01*
X139326561Y-116265387D01*
X139330623Y-116264212D01*
X139337489Y-116250965D01*
X139352002Y-116219057D01*
X139372229Y-116173047D01*
X139396234Y-116117492D01*
X139422082Y-116056953D01*
X139447840Y-115995986D01*
X139471573Y-115939151D01*
X139491346Y-115891006D01*
X139505224Y-115856110D01*
X139511274Y-115839021D01*
X139511386Y-115838274D01*
X139504528Y-115824793D01*
X139485302Y-115793770D01*
X139455728Y-115748289D01*
X139417827Y-115691432D01*
X139373620Y-115626283D01*
X139347921Y-115588862D01*
X139301093Y-115520247D01*
X139259501Y-115457952D01*
X139225175Y-115405129D01*
X139200143Y-115364927D01*
X139186435Y-115340500D01*
X139184456Y-115335024D01*
X139192966Y-115322278D01*
X139216493Y-115295063D01*
X139252032Y-115256428D01*
X139296577Y-115209423D01*
X139347123Y-115157095D01*
X139400664Y-115102495D01*
X139454195Y-115048670D01*
X139504711Y-114998670D01*
X139549206Y-114955543D01*
X139584675Y-114922339D01*
X139608113Y-114902106D01*
X139615954Y-114897278D01*
X139628720Y-114904067D01*
X139659256Y-114923142D01*
X139704590Y-114952561D01*
X139761756Y-114990381D01*
X139827784Y-115034661D01*
X139877590Y-115068395D01*
X140129236Y-115239512D01*
X140338999Y-115153041D01*
X140548763Y-115066570D01*
X140605611Y-114765018D01*
X140662460Y-114463466D01*
X141290115Y-114463466D01*
X141346964Y-114765018D01*
M02*
