M48
;DRILL file {KiCad 4.0.7-e2-6376~58~ubuntu16.04.1} date Mon Sep 11 23:35:32 2017
;FORMAT={-:-/ absolute / inch / decimal}
FMAT,2
INCH,TZ
T1C0.177
%
G90
G05
M72
T1
X4.5Y-2.3
X4.5Y-2.7
X4.5Y-3.1
X4.5Y-3.5
X4.5Y-3.9
X4.5Y-4.3
X4.7953Y-2.3
X4.7953Y-2.7
X4.7953Y-3.1
X4.7953Y-3.5
X4.7953Y-3.9
X4.7953Y-4.3
X5.2547Y-2.3
X5.2547Y-2.7
X5.2547Y-3.1
X5.2547Y-3.5
X5.2547Y-3.9
X5.2547Y-4.3
X5.55Y-2.3
X5.55Y-2.7
X5.55Y-3.1
X5.55Y-3.5
X5.55Y-3.9
X5.55Y-4.3
T0
M30
