G04 #@! TF.FileFunction,Copper,L1,Top,Signal*
%FSLAX46Y46*%
G04 Gerber Fmt 4.6, Leading zero omitted, Abs format (unit mm)*
G04 Created by KiCad (PCBNEW 4.0.7-e2-6376~58~ubuntu16.04.1) date Mon Sep 11 21:05:43 2017*
%MOMM*%
%LPD*%
G01*
G04 APERTURE LIST*
%ADD10C,0.100000*%
%ADD11C,6.000000*%
%ADD12C,0.254000*%
G04 APERTURE END LIST*
D10*
D11*
X142875000Y-62230000D03*
X150375000Y-62230000D03*
X142875000Y-74930000D03*
X150375000Y-74930000D03*
X142875000Y-87630000D03*
X150375000Y-87630000D03*
X142875000Y-100330000D03*
X150375000Y-100330000D03*
X142875000Y-113030000D03*
X150375000Y-113030000D03*
X142875000Y-125730000D03*
X150375000Y-125730000D03*
X126365000Y-62230000D03*
X118865000Y-62230000D03*
X126365000Y-74930000D03*
X118865000Y-74930000D03*
X126365000Y-87630000D03*
X118865000Y-87630000D03*
X126365000Y-100330000D03*
X118865000Y-100330000D03*
X126365000Y-113030000D03*
X118865000Y-113030000D03*
X126365000Y-125730000D03*
X118865000Y-125730000D03*
D12*
G36*
X121793000Y-130810000D02*
X121803006Y-130859410D01*
X121831447Y-130901035D01*
X121873841Y-130928315D01*
X121920000Y-130937000D01*
X147320000Y-130937000D01*
X147369410Y-130926994D01*
X147411035Y-130898553D01*
X147438315Y-130856159D01*
X147447000Y-130810000D01*
X147447000Y-54737000D01*
X154887394Y-54737000D01*
X158623000Y-58472606D01*
X158623000Y-134567394D01*
X154887394Y-138303000D01*
X114352606Y-138303000D01*
X110617000Y-134567394D01*
X110617000Y-58472606D01*
X114352606Y-54737000D01*
X121793000Y-54737000D01*
X121793000Y-130810000D01*
X121793000Y-130810000D01*
G37*
X121793000Y-130810000D02*
X121803006Y-130859410D01*
X121831447Y-130901035D01*
X121873841Y-130928315D01*
X121920000Y-130937000D01*
X147320000Y-130937000D01*
X147369410Y-130926994D01*
X147411035Y-130898553D01*
X147438315Y-130856159D01*
X147447000Y-130810000D01*
X147447000Y-54737000D01*
X154887394Y-54737000D01*
X158623000Y-58472606D01*
X158623000Y-134567394D01*
X154887394Y-138303000D01*
X114352606Y-138303000D01*
X110617000Y-134567394D01*
X110617000Y-58472606D01*
X114352606Y-54737000D01*
X121793000Y-54737000D01*
X121793000Y-130810000D01*
G36*
X145923000Y-129413000D02*
X123317000Y-129413000D01*
X123317000Y-54737000D01*
X145923000Y-54737000D01*
X145923000Y-129413000D01*
X145923000Y-129413000D01*
G37*
X145923000Y-129413000D02*
X123317000Y-129413000D01*
X123317000Y-54737000D01*
X145923000Y-54737000D01*
X145923000Y-129413000D01*
M02*
